<?xml version="1.0" encoding="utf-8"?>
<!-- Generator: Adobe Illustrator 22.0.1, SVG Export Plug-In . SVG Version: 6.00 Build 0)  -->
<svg version="1.1" id="レイヤー_1" xmlns="http://www.w3.org/2000/svg" xmlns:xlink="http://www.w3.org/1999/xlink" x="0px"
	 y="0px" viewBox="0 0 42.2 33.4" style="enable-background:new 0 0 42.2 33.4;" xml:space="preserve">
<style type="text/css">
	.st0{fill:#CAE0E0;}
	.st1{fill:#FFFFFF;}
	.st2{fill:#B4B4B5;}
</style>
<g id="XMLID_82_">
	<g id="XMLID_121_">
		<path id="XMLID_203_" class="st0" d="M31.8,7.8c0-0.1,0-0.2,0-0.3c0-2.3-1.9-4.3-4.3-4.3c-0.5,0-1,0.1-1.5,0.3
			C24.7,1.4,22.4,0,19.7,0C15.5,0,12,3.4,12,7.6v0c0,0,0,0.1,0,0.1c-2,1-3.4,3.1-3.4,5.5c0,3.4,2.8,6.2,6.2,6.2h14.1
			c3.4,0,6.2-2.8,6.2-6.2C35.2,10.9,33.8,8.8,31.8,7.8z"/>
		<polygon id="XMLID_193_" class="st1" points="23.5,11.1 23.5,5.7 18.5,5.7 18.5,11.1 15.9,11.1 21,16.2 26,11.1 		"/>
	</g>
	<g>
		<path class="st2" d="M3.8,32.6C3.5,33,3,33.3,2.2,33.3H0v-8.5h2.2c0.8,0,1.3,0.3,1.7,0.7c0.6,0.7,0.6,1.9,0.6,3.6
			S4.5,31.9,3.8,32.6z M2.8,26.3c-0.1-0.2-0.4-0.3-0.7-0.3H1.3v6.1h0.8c0.3,0,0.6-0.1,0.7-0.3c0.3-0.4,0.3-1.2,0.3-2.7
			S3.1,26.7,2.8,26.3z"/>
		<path class="st2" d="M8.8,32.7c-0.4,0.5-0.9,0.7-1.5,0.7c-0.6,0-1.1-0.2-1.5-0.7c-0.4-0.6-0.4-1.5-0.4-2.6c0-1.1,0-2,0.4-2.6
			c0.4-0.5,0.9-0.7,1.5-0.7c0.6,0,1.1,0.1,1.5,0.7c0.4,0.6,0.4,1.5,0.4,2.6C9.3,31.2,9.2,32.1,8.8,32.7z M7.8,28.3
			C7.7,28.1,7.5,28,7.3,28c-0.2,0-0.4,0.1-0.5,0.3c-0.2,0.3-0.2,0.9-0.2,1.9c0,0.9,0,1.6,0.2,1.9c0.1,0.2,0.3,0.3,0.5,0.3
			c0.2,0,0.4-0.1,0.5-0.3C8,31.7,8,31,8,30.1C8,29.2,8,28.5,7.8,28.3z"/>
		<path class="st2" d="M15.2,33.3h-1.3l-0.8-4.1l-0.7,4.1h-1.3L9.7,27h1.4l0.7,4.3l0.8-4.3h1.1l0.8,4.3l0.7-4.3h1.4L15.2,33.3z"/>
		<path class="st2" d="M19.8,33.3v-4.5c0-0.5-0.3-0.7-0.6-0.7s-0.6,0.2-0.6,0.7v4.5h-1.3V27h1.2v0.5c0.1-0.1,0.3-0.3,0.4-0.4
			c0.2-0.1,0.4-0.2,0.6-0.2c0.5,0,0.9,0.2,1.2,0.5c0.3,0.3,0.4,0.6,0.4,1.4v4.6H19.8z"/>
		<path class="st2" d="M24.5,33.3v-8.5h1.3v7.3h2.2v1.2H24.5z"/>
		<path class="st2" d="M32.2,32.7c-0.4,0.5-0.9,0.7-1.5,0.7c-0.6,0-1.1-0.2-1.5-0.7c-0.4-0.6-0.4-1.5-0.4-2.6c0-1.1,0-2,0.4-2.6
			c0.4-0.5,0.9-0.7,1.5-0.7c0.6,0,1.1,0.1,1.5,0.7c0.4,0.6,0.4,1.5,0.4,2.6C32.7,31.2,32.6,32.1,32.2,32.7z M31.2,28.3
			c-0.1-0.2-0.3-0.3-0.5-0.3c-0.2,0-0.4,0.1-0.5,0.3c-0.2,0.3-0.2,0.9-0.2,1.9c0,0.9,0,1.6,0.2,1.9c0.1,0.2,0.3,0.3,0.5,0.3
			c0.2,0,0.4-0.1,0.5-0.3c0.2-0.3,0.2-0.9,0.2-1.9C31.4,29.2,31.4,28.5,31.2,28.3z"/>
		<path class="st2" d="M36.1,33.3v-0.5c-0.1,0.2-0.2,0.3-0.4,0.4c-0.2,0.1-0.4,0.2-0.7,0.2c-0.5,0-0.9-0.2-1.2-0.5
			c-0.3-0.3-0.4-0.8-0.4-1.4c0-0.6,0.2-1.1,0.6-1.4c0.3-0.3,0.7-0.4,1.5-0.4H36v-0.9c0-0.5-0.2-0.7-0.6-0.7c-0.2,0-0.3,0.1-0.4,0.2
			c-0.1,0.1-0.2,0.3-0.2,0.6h-1.3c0-0.5,0.1-1,0.5-1.4c0.3-0.3,0.8-0.5,1.3-0.5c0.5,0,1,0.1,1.3,0.5c0.3,0.3,0.6,0.8,0.6,1.5v4.5
			H36.1z M36,30.5h-0.4c-0.3,0-0.5,0-0.7,0.2c-0.2,0.1-0.3,0.5-0.3,0.7c0,0.6,0.2,0.9,0.7,0.9c0.4,0,0.7-0.3,0.7-0.8V30.5z"/>
		<path class="st2" d="M41,33.3v-0.5c-0.1,0.1-0.3,0.3-0.4,0.4c-0.2,0.1-0.4,0.2-0.6,0.2c-0.5,0-0.8-0.1-1.1-0.5
			c-0.4-0.5-0.4-1.4-0.4-2.8c0-1.4,0-2.2,0.4-2.8c0.3-0.3,0.6-0.5,1.1-0.5c0.2,0,0.5,0.1,0.6,0.2c0.1,0.1,0.3,0.2,0.4,0.3v-2.6h1.3
			v8.5H41z M40.9,28.8c0-0.3-0.1-0.5-0.2-0.6C40.6,28,40.4,28,40.3,28c-0.2,0-0.4,0.1-0.5,0.3c-0.2,0.3-0.2,0.9-0.2,1.9
			c0,0.9,0,1.6,0.2,1.9c0.1,0.2,0.3,0.3,0.5,0.3c0.2,0,0.3,0,0.4-0.2c0.1-0.1,0.2-0.3,0.2-0.6V28.8z"/>
	</g>
</g>
</svg>
