<?xml version="1.0" encoding="utf-8"?>
<!-- Generator: Adobe Illustrator 22.0.1, SVG Export Plug-In . SVG Version: 6.00 Build 0)  -->
<svg version="1.1" id="レイヤー_1" xmlns="http://www.w3.org/2000/svg" xmlns:xlink="http://www.w3.org/1999/xlink" x="0px"
	 y="0px" viewBox="0 0 26.1 16.9" style="enable-background:new 0 0 26.1 16.9;" xml:space="preserve">
<style type="text/css">
	.st0{fill:#FFFFFF;}
</style>
<g id="XMLID_77_">
	<path id="XMLID_172_" class="st0" d="M0.1,2.1C0,2.1,0,2.1,0.1,2.1L0,14.9c0,0,0.1-0.1,0.1-0.1l6.6-6.3L0.1,2.1z"/>
	<g id="XMLID_112_">
		<path id="XMLID_125_" class="st0" d="M8.6,7L10,8.4l1.3,1.3c0.6,0.5,1.3,0.8,2.1,0.8c0.8,0,1.6-0.3,2.1-0.8l1.1-1.1l1.4-1.3
			l6.8-6.5c0.3-0.3,0.5-0.6,0.6-0.7h-24c0.1,0.1,0.2,0.3,0.4,0.5L8.6,7z"/>
		<path id="XMLID_124_" class="st0" d="M18.1,9.9l-1.3,1.3c-0.9,0.9-2.1,1.3-3.3,1.3c-1.2,0-2.4-0.4-3.3-1.3L8.6,9.7l-6.8,6.5
			c-0.3,0.3-0.5,0.6-0.6,0.7h24c-0.1-0.1-0.2-0.3-0.4-0.5L18.1,9.9z"/>
		<path id="XMLID_123_" class="st0" d="M26,2.2l-6.6,6.3l6.6,6.4c0,0,0.1,0.1,0.1,0.1L26,2.2C26.1,2.2,26.1,2.2,26,2.2z"/>
	</g>
</g>
</svg>
