<?xml version="1.0" encoding="utf-8"?>
<!-- Generator: Adobe Illustrator 22.0.1, SVG Export Plug-In . SVG Version: 6.00 Build 0)  -->
<svg version="1.1" id="レイヤー_1" xmlns="http://www.w3.org/2000/svg" xmlns:xlink="http://www.w3.org/1999/xlink" x="0px"
	 y="0px" viewBox="0 0 23.4 23.4" style="enable-background:new 0 0 23.4 23.4;" xml:space="preserve">
<style type="text/css">
	.st0{fill:#2660AC;}
</style>
<path id="XMLID_628_" class="st0" d="M22.6,18l-3.2-3.2C21.3,11,20.8,6.2,17.5,3C13.5-1,7-1,3,3c-4,4-4,10.5,0,14.5
	c3.2,3.2,8,3.8,11.9,1.9l3.2,3.2c1.1,1.1,3,1.1,4.1,0l0.5-0.5C23.7,21,23.7,19.2,22.6,18z M16.1,16.1c-3.2,3.2-8.4,3.2-11.6,0
	c-3.2-3.2-3.2-8.4,0-11.6c3.2-3.2,8.4-3.2,11.6,0C19.3,7.7,19.2,12.9,16.1,16.1z"/>
</svg>
