<?xml version="1.0" encoding="utf-8"?>
<!-- Generator: Adobe Illustrator 22.0.1, SVG Export Plug-In . SVG Version: 6.00 Build 0)  -->
<svg version="1.1" id="レイヤー_1" xmlns="http://www.w3.org/2000/svg" xmlns:xlink="http://www.w3.org/1999/xlink" x="0px"
	 y="0px" viewBox="0 0 13.5 20.2" style="enable-background:new 0 0 13.5 20.2;" xml:space="preserve">
<style type="text/css">
	.st0{fill:#2660AC;}
	.st1{fill:#FFFFFF;}
</style>
<g id="XMLID_276_">
	<g id="XMLID_278_">
		<path id="XMLID_280_" class="st0" d="M6.8,0C5.4,0,0,0.9,0,6.8c0,5.8,6.8,10.7,6.8,10.7s6.8-4.9,6.8-10.7C13.5,0.9,8.1,0,6.8,0z"
			/>
		<path id="XMLID_279_" class="st1" d="M10,6c0,1.8-1.4,3.2-3.2,3.2C5,9.2,3.5,7.8,3.5,6c0-1.8,1.4-3.2,3.2-3.2C8.6,2.8,10,4.2,10,6
			z"/>
	</g>
	<path id="XMLID_277_" class="st0" d="M13.3,18.7c0,0.9-2.9,1.5-6.4,1.5c-3.6,0-6.4-0.7-6.4-1.5s2.9-1.5,6.4-1.5
		C10.4,17.1,13.3,17.8,13.3,18.7z"/>
</g>
</svg>
