<?xml version="1.0" encoding="utf-8"?>
<!-- Generator: Adobe Illustrator 22.0.1, SVG Export Plug-In . SVG Version: 6.00 Build 0)  -->
<svg version="1.1" id="レイヤー_1" xmlns="http://www.w3.org/2000/svg" xmlns:xlink="http://www.w3.org/1999/xlink" x="0px"
	 y="0px" viewBox="0 0 337 400.2" style="enable-background:new 0 0 337 400.2;" xml:space="preserve">
<style type="text/css">
	.st0{fill:none;stroke:#231815;stroke-width:0.8311;stroke-linecap:round;stroke-linejoin:round;}
</style>
<path id="XMLID_327_" class="st0" d="M336.6,37.6l-2.5,8.8l0.4,7.9l-5.6,7.1l-2.8-0.2l-5.4,3.8l-4.3,1.3l-1.6,2l-1.7,4l2.3,5.1
	l-2.9,1.1l-2.8,5.3l-2.3,5.4l-0.3,4.5l-1.4,3.1l-0.6,4.8l-1.5,0.9l-2.4,6.3l-3,6.3l-1.5,5.4l-1,4l-1.7,2.9l-0.6,5.9l0,2.7l0.1,3.6
	l1.7,4l-3.6,5.1l-0.7,3.6l-2.9,1.3l-0.3,5.5l0.3,3.3l0.7,5l0.7,3.5l0.4,1.8l1.2,4.6l1.7,5.2l1,2.8l1.2,3.1l2.1,4.5l2.7,5.7l1.6,3.4
	l1.8,1.9l1.1,2.6l-0.5,1.1l1.6,1.3l2.1,3.7l0.9,1.6l2,3.6l2.4,4.2l3.2,4.4l1.7,3l1.7,2.4l1.8,1.6l-0.1,1.3l3-0.6l0.3,3.3l-1.1,4.2
	l-3.2-2.5l-3.3-0.2l-3.7,1.7l-2,0.7l-2.4,0.6l-3.2-1.3l-2.9,0.4l-1.9,0.6l-4.1,2.2l-1.5,1l-2.3,1.8l-4.2,3.3l-0.9,0.8l-2.6,2.6
	l-1.4,1.4l-1.6,2l-1.4,1.7l-1.1,1.3l-2.4,3.1l-2.7,4l-1.9,3.2l-1.4,2.7l-0.5,1.4l-0.7,2.8l-1.4,4.7l-0.3,1.5l0,3.2l0.1,2.1l0.2,5.7
	l1.7,1.5l0.4,2.2l-1.1,3.7l-0.1,3.9l0.3,1.2l-0.8,4.6l-1.4,3.2l-1.2,1.7l-3.6,0.6l-3.6,6l-1.5-1.9l-1.9,1.9l-3.6,0.3l-2.5,2.6
	l-3,0.3l-1.6,0.2l-1-1.5l-6.5,0.4l-2.6,1.6l-0.9,2.4l-0.6,2.3l-2.6,1.3l-1,1.2l-3.9,1.5l-2.7,1.5l-3.3,3.2l-0.8,1l-1,2.7l-0.3,1
	l-0.9,2.8l-0.3,4l-3.4,3.3l-1.4,0.8l-6.3,0.6l-2.7,0.2l-2.4-1.1l0.4-2.6l-3-2.3l-4.1-1.6l-1.7-2.6l5-0.2l2.7-0.7l1.2-1.2l3.5-0.6
	l-0.6-4l-2.5-1.5l-1.9-1l1.7-1l-1.3-3.1l2.7-2.9l-1.7-2.4l0.3-2.4l0.9-2.8l-2.3-2.5l-0.2-3.3l1.3-3.2l4.4-2.8l0.1-4.4l-2.1-3.4
	l0.3-1.4l-1.8-1.9l-4.6-1.8l-2.6-1.2l4.3-0.1l0.9-1.2l1.9-1.1l-1.2-2l2.2-1.8l0.6-1.5l4.5,1.5l1.3-1.4l1.5-2.3l-1.2-3l0-2.7l2.2-2
	l3.4-0.9l2.8-3.3l2.5-1.1l0.5,0.6l1.9-1.9l2.9-4.4l3.9-5l2.1,0.3l1-1.6l0.7-1.2l-0.9,0l-1.4-2.7l2.2-0.6l-0.7-1.2l-1,0l-2.5-2.7
	l-2.7-2.7l-2.6-2.8l-3.3,0.1l0.5-1.9l-1.7-0.3l-2.2-0.8l-1.4,0.3l0.9,3.6l-2.4,1.6l-4.1,2.4l-2.4-0.1l-1.1-1.7l0-1.7l-3.7-0.4l0,4.2
	l-0.7,0.4l-1.6-2.3l0-1.6l-2.2,0l-0.4,1.8l-1.4,1.3l-1.7-1.9l-0.8,0l-0.3,2.1l-0.2,1.2l1.2,2.7l1.7,4l0.3,2.5l1.1,1.3l-2.2,1.2
	l1.1,2.1L196,269l-0.6,1.5l-4.5,1.7l-0.1,1.4l-1.9,1l-1.2,0.5l-2.2-2.1l0.2,3.1l-1.8,0.7l-1.4-3.1l-3.6,1.4l0.2,1.7l4.3,2.6l0.4,2.4
	l-1.2,2l-3.2-0.6l-1.4,3l2.1,0.2l0.7,2.2l-0.2,4.9l-2.1,1l2,0.9l-0.4,3.2l1,2.3l1.4-2.3l1.1,0.5l0.5,3.1l2,1.7l2.3,0.4l1-0.6
	l2.2,1.2l-1.2,2.3l-1.1,0.7l0.2,1.8l-1.4,0.2l0.7,1.9l-4.2,0.5l-2.7,2.2l-0.8,1.5l0.8,3.2l2.1,0.6l-0.1,1.4l-2.7,1.2l-2.6,0.2
	l-2.5,0.6l-0.6-4l0.7-1.5l0-2.7l-1.7-1.1l0.3-1.3l2.6-1.1l-0.8-1.7l-1.9-0.1l-0.5-2.2l-1.8-2.1l-1.5-1.7l0-2.6l-0.5-1.2l-1.6-0.2
	l-0.2-1l-1.6-1l-2,0.6l-1.9-0.2l-1.9,0.1l-1.2,1l-0.8-2l-3.8-1.1l-3.6,0.5l-4.5,0.2l-5,0.2l-3.8,1.3l-3.6,0.7l-4,1.7l-3.4,1.6
	l-6,4.8l-1.2,0.8l-0.4,3.5l-0.6,4.3l0.7,1.8l-0.3,1.9l1.6,2l-2.1-0.4l-2-0.5l-1.1,1.1l-0.7,2l-2.2,1.9l-0.2,1.2l-1.1,1.7l0.7,0.7
	l-0.9,1.3l0.6,1.3l-1,1.7l0.2,1.1l1.3,0.8l0.7-0.6l1.2,0.6l-0.2,1.9l0,2.5l0.2,1.1l-1.3,0l-0.8,0.9l1.2,2l0.5,2.1l0.9,0.5l2.3,0
	l0.8,2.5l0.7,0.3l1.1-0.1l-0.1,1.7l0.3,1.1l-0.9,2.2l-0.1,1.3l-0.8,1.3l0.8,1.1l-1.1,1.9l-3.4,1.4l-0.9,1.9l-1.1-0.2l-0.6,0.9
	l-0.5,1.6l0,3L110,371l-0.4,1.9l-2.1,2.2l0.5,0.7l-2.5,0.4l-0.6,1.4l-0.8,0.5l-1.5,0.2l-0.3,1.9l-1.3,3.1l-1.9,2.8l-0.1,1.4l0.5,0.9
	l-0.4,1.3l0.6,0.9l0.8,0.2l-0.1,1.3l-0.9,0.6l-1.1-0.1l-0.6,0.3l-1-0.6l0.7-2.7l-1.5,0l-0.3,1.4l-1-0.2l-0.2,0.7l-2.2,0.9l-0.4,2
	l-1.5,1.5l-1.3-0.6l-0.4,1.1l-1.4,0.4l-0.7,0.8l-1.1,0.1l-0.2,1.1l-1-0.4l-0.6,1.4l-2.6-0.3l-0.2-1.2l-1.1-0.2l0.2-0.9l-0.8-1.1
	l-1.1,0.7l-0.5-0.2l0-1.7l-2.1-1l-0.3-2l2-0.8l0.2-0.8l-0.6-0.5l-0.9,0.2l-0.3-1.6l-0.9-0.5l-1-1.3l-1.5,0.3l-1-0.3l0.2-1.6
	l-0.2-3.7l1.2-1.2l1.1,0l0.2-0.8l-0.4-1.1l2.3-0.8l-0.1-1.4l-0.1-0.6l-1-0.3l0.2-0.6l-0.7-2.2l-0.9-1.2l0.3-0.8l0.7,0.2l0.4-1.4
	l-1.1-0.1l-0.4-1.1l0.4-1l0.9,0.1l-0.4-2.5l1.6-1l0.2-1.1l-0.8-0.2l-0.1-0.4l-1.5-0.6l0.1-2.7l0.8-1.4l1.3-0.8l2-1.7l-1.3-2.1
	l-0.4-1.9l-0.2-0.8l-0.9-0.9l-0.4-3l0.2-0.6l1.4,0.7L76,345l-0.7-0.4l1.1-3.2l0.1-2.3l0.8-1.4l2.7,1l2-0.4l2.4,1.1l3-0.9l2.3,0.8
	l0.7-0.7l-0.7-1.3l1.2-2l-0.7-0.8l-1.2,0.7l-0.9-2.4l-0.8-1.3l-1.1-0.2l-1.3-1.5l-0.4-1.2l-1.5-1.7l-2.7-1.7l-3.7-1.6l-3.5-0.9
	l-3.3-0.5l-2.6-0.2l-0.7-0.9l-0.2,0.3l0.2,0.8l-1.8,0.4l-1.4,0.8l-3.6,1.5l-3.4-0.2l-4.7,0.7l-2.1,1.7l-0.8,2.4l-0.8,1.6l-1.1,1.9
	l-1.8,1.6l-0.4,1.1l-0.9,1l-0.3-0.4l-0.6,0.7l-0.4,1.6l0.3,4.3l0.6,0.3l0.8-0.6l0.5-1l-0.6-0.6L44,340l0.4-1l1,0.2l-0.3-0.8l0.4-0.3
	l1.6,0.7l-0.3,1.6l-1.1,2.6l-2.2,1.9l-3.4,1.7l-7.6,3.3l-1.4,1.2l-2.6,1.1l-2.5,1.4l-1.2,2.2l-1.1,1.6l-0.1,0.7l-0.5,0.7l0.2,1.4
	l-1.1,0.5l0,1.9l0.6-0.1l0.6,0.9l0.2,1.5l-1.7,3.1l-2.8,4.4l-0.5,0.4l0.4,0.6l-0.7,1.1l-1.1,0.8l-2.5,1.3l-2.3,1.6L9.6,381l-0.8,1.3
	l-0.7,2.9l-2,4l-0.2,4l1.6,2.7l1.3-0.8l0.4,0.9l-1.3,0.3l1,1.5l0.5-0.1l1.2,0.8l-0.6,1l-1.2,0L7,399l-1.6-0.1L1.6,397l-1.2-0.6
	 M251.2,187.3l-2.5-1.9l-2,0.8l1.4,3.2l1.3,1.6l7.8,2.9l5.8-0.4l1.9,2.5l1.2,0.9l-2.4,1.6l-0.9,0.7l0.4,1.2l7.5-0.8l3.4,1.5l1.5,1.8
	l1.6,0.4l2.9,0.8l0.4-3.3l-2.4-1.3l-2.4-5.7l-2.1-3l-2.5-3l-0.5-3.2l-1.7-1.2l-0.7-3.1l-3.7-4.3l-1.9,1l-4.5-1.6l3,2.8l0.4,1.4
	l3.8,2l1.2,2.2l0.4,2.3l-2.1,2.6l-3.2-0.2l-3.9-0.6l-1.8,1l-2.8-0.9L251.2,187.3 M283.4,181.4l-0.2,2.5l1.6,1.6l0,2.7l0.9,1.3l1,1.8
	l-1.2,1.1l2.2,1.2l-1.5,2.3l4.4,4.6l0.7,1.8l2.9,2.3l1.2,1.4l-2.2-4.8l-0.8-3.4l-1.6-2.2l-0.3-2.7l-2.3-4.4l-2.7-5.1l-1.2-4.5
	l-1.1-1.2l0.2,1.8L283.4,181.4"/>
<g id="XMLID_103_">
	<polyline id="XMLID_326_" class="st0" points="133.2,0.4 133.2,1.8 131.3,3.7 130.7,10.4 125.2,17.4 129,24.3 131,22.7 133.6,25.2 
		135.1,29.1 133.7,34.3 133.7,40.4 135.6,45.7 134.1,50.7 135.1,55 132.7,61.7 	"/>
	<polyline id="XMLID_325_" class="st0" points="132.7,61.7 138.8,62.5 146.4,64.4 151.3,65.3 	"/>
	<polyline id="XMLID_324_" class="st0" points="151.3,65.3 152.4,63.2 155.2,64.1 155.9,61.7 158.2,59.9 159,57.2 162.8,57.3 
		167.8,55.3 171.9,53.1 173.5,50.9 176.4,51.1 179.5,47.7 184.4,44.3 187,44.5 189.3,43 192.9,42.9 195.8,39.5 200.8,40.7 
		200.5,35.8 202.2,33.5 206.2,31.3 213,31.1 217.3,30.1 218,31.4 225.1,32.5 229.3,34.5 234,35.4 237.5,38.8 243.9,43.3 245.7,49.9 
		250.7,48.6 250.6,52.1 250.6,57 249.8,60.7 251.9,62.6 	"/>
	<polyline id="XMLID_323_" class="st0" points="251.9,62.6 253.9,62.8 256.7,63.8 259.8,68.5 264,70 266.5,76.7 270.3,78 
		274.4,80.5 276.2,83 278.7,79.2 281.3,78.4 282.8,75.4 284.9,73.2 288,72.4 290.7,71 290.7,69.4 287.6,64.8 288,61.7 289.6,60.7 
		293.9,66.6 300.8,68.1 304.6,71.2 313,72.2 	"/>
	<polyline id="XMLID_320_" class="st0" points="151.3,65.3 150.3,66.7 148.7,68.5 148.1,70.4 146.6,70.9 146.1,74.4 148.4,76 
		150.6,77 152,77.5 151,80.3 148.6,81.1 148.7,84.3 146,85.9 146.1,88.4 147.7,89.9 147.5,92.9 144.7,97.2 144.2,99.8 143.2,102.1 
		143.5,105.3 144.1,106.4 146.5,108.3 150.3,109.2 151.4,109.9 152.4,109.4 154.4,109.9 157.4,110 159,109.9 160.4,111.9 
		161.4,113.8 160.3,114.9 158.9,116 158,117.8 156.1,117.7 155.7,119.6 155.9,121 154.8,122.6 153.8,125.2 154.7,127.3 155.7,129.7 
		152,132.7 151.4,134.2 148.8,137.5 147.5,140.4 147.7,144.5 149.9,146.4 153.6,149 154.2,150.3 153.5,151.2 154.6,153.7 
		156.4,155.5 158.3,156.1 159.3,156.9 158.8,158.1 160.2,157.6 162.6,157.7 164.5,156.8 167.2,156.8 169.4,157.4 169.6,158.8 
		170.8,159.5 173.9,158.7 176.9,158.1 179.6,159.2 178.7,161.5 181,163.2 181.6,164.8 182.7,167.2 	"/>
	<polyline id="XMLID_302_" class="st0" points="184.9,168.6 188.8,167.1 189.7,168.8 193.4,166.6 196.6,164.7 200.8,163.3 
		201.8,160 203.3,157.4 202.4,155.6 203.3,153.1 206.3,152.3 207.5,150.9 209.8,154.3 211.4,153.7 211.3,149 214.6,147.4 217.1,147 
		218.3,143.2 220.6,144.5 222.2,143.3 226.3,143.1 228.5,143.3 229.1,142.5 229.3,139.4 234.3,140.2 235.1,138.5 238,137.9 
		240.4,140.2 243.5,140.3 245.4,135.2 246.5,129.6 248.7,125.2 251.6,122 250.5,118.7 250.5,114.1 250.4,110 250.2,107.9 
		249.1,107.1 249.5,103.5 247.7,100.5 248.4,97 255.4,94.9 255.2,92.2 251.9,88.8 251.4,84.8 252.5,83.8 252.7,78.4 251,74.7 
		251.3,70.8 250.7,64.5 251.9,62.6 	"/>
	<line id="XMLID_301_" class="st0" x1="182.7" y1="167.2" x2="184.9" y2="168.6"/>
	<polyline id="XMLID_300_" class="st0" points="195.1,185.3 194.1,186 192,184.7 190.3,184.7 189.4,182.1 188.8,180.3 187.9,178.1 
		186.6,176.2 186.2,175.3 185.8,174.1 184.9,168.6 	"/>
	<polyline id="XMLID_299_" class="st0" points="321.2,234.8 319.4,235.2 313.7,231.7 309.2,228.7 306.8,224.1 306,222.8 
		304.1,220.8 303,219.8 298.1,218.6 296.6,218.1 294.1,214 291.9,211.5 290.1,209.6 285,206.4 281.9,203.9 280.2,206.7 279.5,208.6 
		280.2,211.3 276,208.9 273.1,210.4 272,210.9 268.8,210.6 265.9,211.9 259.1,217 255.3,216.1 250.4,218.7 246.6,217.7 241.7,220 
		239.5,220 236.5,216.2 232.8,214.4 230.6,215.6 226,212.2 224.2,211 220.9,210.8 218,208.2 215.8,206.9 214.2,205.7 214,202.2 
		212.8,201.9 211,201.5 208,198.6 206.9,195.9 205.9,194.7 203.7,192.2 201.1,189.8 200,188.8 199,185.4 196.8,182.4 195.4,183.6 
		195.1,185.3 	"/>
	<polyline id="XMLID_278_" class="st0" points="195.1,185.3 197.3,189 198.8,190.9 200.5,192.2 199.9,196.8 201.1,199.3 
		201.3,200.9 202.1,202.2 202.9,205.1 204,206.6 206.9,210 208.9,213.4 209.8,216.9 208.6,221.7 208.6,222.5 208.7,229.4 	"/>
	<polyline id="XMLID_277_" class="st0" points="207,249.4 208,248.5 208.5,245 211.1,242.8 211.8,240.2 210.1,238.1 209.7,235 
		209.1,233.7 208.1,231.9 208.7,229.4 	"/>
	<polyline id="XMLID_275_" class="st0" points="208.7,229.4 207.1,229.6 206.7,227.5 205.1,227.4 203.6,227.2 201.1,227.1 
		200.7,225.2 199.1,225.5 196.6,225.6 194.7,224.1 193.3,224.5 192.4,225.1 193.2,226.5 192.8,227.9 190.7,228.9 185.8,226.7 
		183.8,226.6 179.9,226.8 178.3,227.9 177.4,229.8 176.8,230.9 174.1,229.5 173,229.7 170.5,231.9 167.8,233 168.3,230.6 165.3,231 
		167.6,229 167.6,225.9 164.7,227.8 162.3,229.3 159,230 155.8,231.1 152.9,231.4 151.3,231 150.4,231.7 149.2,231.3 148.3,230.6 
		146.8,227.5 142.3,227.2 140.7,223.6 140,223.1 138.3,221 131.8,221.1 127.9,219.6 127.5,220.6 123.8,219.6 121.7,217 117.7,216.7 
		115.5,216.4 113.7,215.1 111,215.1 106.7,211.6 105.4,211.6 103.1,214.1 100.9,213.6 97.3,216.1 97.1,218.5 	"/>
	<polyline id="XMLID_274_" class="st0" points="97.1,218.5 98.7,221 100.2,222.3 100.9,227 102.4,227.7 102.2,229.8 103.3,232.1 
		105.6,234.2 106.8,237.7 111.2,240.6 116,241.8 119.3,244.3 	"/>
	<polyline id="XMLID_272_" class="st0" points="119.3,244.3 122.1,245.8 124.9,248.4 128.6,247.8 129.7,251.9 131,253.4 
		132.9,254.8 134.8,254.4 136.5,253.6 139,254.8 140.4,254.6 142.7,254.7 148.7,257.1 151.4,258.5 152.6,260.1 153.6,262 156,264 
		157,265.8 157.3,267.4 158.9,269.3 160.5,269.6 160.3,267.7 161,265.8 160.4,264.4 158.8,260.4 158.7,259.2 159.7,258.9 
		160.6,259.7 161.2,260.7 162.4,260.5 162.9,259.1 161.5,257.3 158.6,254.7 156.5,253.4 158.4,252.2 162,254.7 162.4,253.4 
		163.9,251.9 165.1,250.7 165.4,249.1 169.6,250.8 171.1,252 173.4,252.8 176.8,253.8 179.4,255.8 181,256.9 182.7,258.1 
		184.2,261.3 186.5,262.4 186.1,264.8 189.6,263.9 190.9,264.1 192.5,263.8 194.8,265.3 196.1,265.7 	"/>
	<polyline id="XMLID_260_" class="st0" points="70.5,198.2 73.5,195.5 75.2,192.1 77.5,190.8 80.1,192.4 83.3,191.3 86.1,187.2 
		89.7,184.8 93,183.2 96,183.6 99,181.3 99.4,178.6 101.6,180.7 105,178 108.7,178.7 109.4,175.2 111.6,175 111.5,173.9 111,171.5 
		111.8,169.1 114,166.8 115.2,163.8 116.8,160.3 117.1,159 119.6,156.4 124,157.4 127.4,159.2 129,159.2 130.3,160 133,162.1 
		135.2,162.1 136.6,161.3 140.1,162.7 141.8,164.6 143,163.2 145.1,160.9 148.9,162.6 151,164.7 153.3,166.1 154.3,167.6 
		156.1,168.9 158.2,170.4 162.2,170 166.4,170.1 173.4,167.5 175.6,168.6 177.4,170.4 178.3,169.3 180.6,169.5 180.7,167.2 
		182.7,167.2 	"/>
	<polyline id="XMLID_259_" class="st0" points="70.5,198.2 70.6,201 73.2,204.9 73.3,206.5 72.2,209.4 	"/>
	<polyline id="XMLID_244_" class="st0" points="72.2,209.4 78,211.6 79.9,214.4 81.8,216.2 84.7,216.4 88.2,216.9 91.2,219.9 
		93.5,218.2 97.1,218.5 	"/>
	<polyline id="XMLID_211_" class="st0" points="119.3,244.3 117.4,246.9 118.6,248.8 118.2,251.3 119.6,254.4 117.9,256.8 
		118.7,258 119.1,260.1 117.1,262.1 117.1,263.8 113.8,267.4 111.1,268.1 109.5,267.8 106.3,272 101.8,273.5 98.6,274.9 96.3,276.5 
		94.7,278.4 95.3,280.1 93.6,282.7 93.5,283.8 	"/>
	<polyline id="XMLID_210_" class="st0" points="132.7,61.7 132,58 128.9,59.3 126.2,58 125.7,53 123.5,51.5 120.7,48.6 119.3,45.8 
		117,43.9 115.9,46.1 116,50 112.5,52.1 110.1,54.5 107.4,54.2 105.6,55.5 101.6,55.5 100.9,58.9 102.9,66.2 102.4,68.5 97.4,67.6 
		95.8,70.7 95.7,74.7 96.9,76.7 95.1,77.2 91.1,77.3 88.9,78.8 84.8,79.1 85.4,82.9 84.4,86.4 82.2,86.2 80.5,88.7 78.1,88.7 
		75,86.9 73.2,86.3 71.8,90 69.5,89.8 	"/>
	<polyline id="XMLID_206_" class="st0" points="0.4,73.9 2.6,72.7 8.7,73.5 12.9,71.8 13.9,70.3 15.8,70.9 18.8,70.3 20.5,71.8 
		21,73.9 23.6,72.2 23,70.3 23.9,67.9 23.4,65 26.7,62 29.3,62.6 30.9,60.6 33.6,54.1 35.4,52 38.9,50.7 42.5,49 45,48.7 49.3,47.4 
		50.6,47.4 51.9,48.7 55.3,48.8 56.4,52.1 57.6,53 57.2,61.9 58.7,65.2 61.1,65.7 61.6,68.4 66.1,71.1 68.9,71.8 69.6,74.1 
		67.9,77.9 69.9,79.8 68.9,82.3 66.5,83.5 66.4,85 69.3,86.4 69.5,89.8 	"/>
	<polyline id="XMLID_204_" class="st0" points="69.5,89.8 63.6,91.3 60.9,92.8 59.7,94.1 57.9,93.1 55.9,94.2 52.8,94.4 49.3,96.7 
		49.1,99.4 50.5,101.4 47.8,102.7 42.6,103.3 41.6,107.4 39.6,108.4 37.7,109.6 37.3,112.8 38.5,115.7 36.1,117.8 36.4,119.2 
		35.4,120.9 34.6,124.9 34.9,128.1 35,133 38.9,135.3 41.2,135.9 41.4,137 41.8,137.8 44.9,138.3 45.4,136.8 46.6,136.6 48,137.6 
		50.5,138.4 52.8,136.2 54.2,136.2 57.4,135.6 60.7,135.8 62.6,136.4 63.4,137.9 64.2,143.1 63.7,146.7 63.8,152.5 62.3,154.7 
		59.9,155.6 58.1,156.6 57.9,159.9 58.9,161.1 59.7,165.5 61.3,165.3 61.7,167.5 60.1,168.4 61.7,171.8 58.4,173.5 55.5,170.6 
		54.6,172.6 56.3,174.7 57.8,177.3 61.1,177.5 61.9,179.2 62.6,181.5 61,182.7 62,185.8 62.3,188.9 61.1,192.1 64.7,194.4 
		66.5,194.9 67.7,197.4 70.5,198.2 	"/>
	<polyline id="XMLID_203_" class="st0" points="72.2,209.4 69.7,209.4 67.1,211.7 66.9,213.4 65.4,214.8 64.3,214.6 63.7,214.2 
		61.1,214.9 59.5,214.9 57.9,213.9 57.8,210.8 58,209.2 55.1,207.8 54.2,208.6 51.6,207.8 49.4,208.2 46.4,207.4 44.9,208.5 
		44,210.5 42.1,210.5 40,209.5 38.8,207.2 39.8,204 37.2,201.8 32,200.2 29.8,199.9 29.2,201.3 28.7,202.6 27.2,203.8 26.2,207.2 
		22.6,212.3 20.2,215.8 19.4,215.9 17.6,213.7 15.4,211.9 13.6,213.5 12.9,215.9 10.2,220.4 10,221.8 7.8,224.8 8.9,227 10.5,227.2 
		13.5,230.2 12.9,231 6.9,236.8 8.4,239.1 8.4,242.8 9.4,243.5 11,246.7 	"/>
	<polyline id="XMLID_195_" class="st0" points="0.4,274.1 0.7,274.2 3.6,273.4 3.6,270.5 4.5,268.4 1.8,267.3 2.5,265.3 1.6,264.3 
		3.9,260.7 2.4,259.6 3.5,257.2 5,255.6 6.7,256.8 8.3,253.8 9.3,252.2 9.3,248.8 11,246.7 	"/>
	<polyline id="XMLID_180_" class="st0" points="11,246.7 12,246.7 12.7,248.3 12.2,249.6 12.9,250.3 13.6,252.8 13.3,255.1 
		14.3,258.8 16.1,260.8 16.6,267 15.1,272.5 14.1,273.3 14,275.5 15.1,276.7 15.7,278.9 15.3,281.3 14.3,282 12.5,284.5 12.4,286.9 
		14.9,288.1 15.1,291.5 14.3,292.4 14.9,294.3 16.7,295 18.3,296.5 19.7,294.8 21.3,294.4 23.1,293.2 24.4,293.5 25.9,295.1 
		27.1,295 28.2,296 28.7,297.6 28.1,298.6 28,301.6 30.2,305.4 30.4,306.6 31.8,312 33,311.5 34.3,312.6 35.5,314.8 40.9,315.5 
		42.6,316.6 45.6,312.5 46.2,312.3 47.5,312.2 47.1,310.4 47.4,308.8 46.3,304.4 45.6,303.2 46.4,301.7 46.4,299.4 45.6,295.7 
		48,292.9 47.7,291.1 47.6,286.3 48.2,285.2 48,281.9 49.5,280.9 51.2,278.3 54,276.8 55.6,278.2 57,284.2 60.8,283.9 63.7,284.1 
		64.6,285.3 65.7,289.5 67.5,289.5 68.2,288.9 71.4,288.7 78.4,286.9 82.6,286.8 85.8,285.2 87.2,285.3 89,286.1 93.5,283.8 	"/>
	<polyline id="XMLID_177_" class="st0" points="93.5,283.8 99.7,283.2 103.3,283.4 103.2,286 104.2,290.2 105.4,294.1 103.8,297.4 
		103.8,299.6 102.3,300.2 100.3,303.3 100.2,308 101.4,310.8 101.5,312 102.9,314.4 104.5,315.5 105.6,315.5 106.2,316.7 106.5,320 
		110.9,321.1 116,321.6 	"/>
</g>
</svg>
