<?xml version="1.0" encoding="utf-8"?>
<!-- Generator: Adobe Illustrator 22.0.1, SVG Export Plug-In . SVG Version: 6.00 Build 0)  -->
<svg version="1.1" id="レイヤー_1" xmlns="http://www.w3.org/2000/svg" xmlns:xlink="http://www.w3.org/1999/xlink" x="0px"
	 y="0px" viewBox="0 0 22.1 23.4" style="enable-background:new 0 0 22.1 23.4;" xml:space="preserve">
<style type="text/css">
	.st0{fill:#2660AC;}
</style>
<g id="XMLID_6_">
	<path id="XMLID_8_" class="st0" d="M18,6.3c0.6,0,1.1-0.5,1.1-1.1V1.1C19.1,0.5,18.6,0,18,0c-0.6,0-1.1,0.5-1.1,1.1v4.1
		C16.9,5.8,17.4,6.3,18,6.3z"/>
	<path id="XMLID_7_" class="st0" d="M4.1,6.3c0.6,0,1.1-0.5,1.1-1.1V1.1C5.2,0.5,4.7,0,4.1,0C3.5,0,3,0.5,3,1.1v4.1
		C3,5.8,3.5,6.3,4.1,6.3z"/>
</g>
<path id="XMLID_1_" class="st0" d="M21,2h-1.2H2.3H1.1C0.5,2,0,2.5,0,3.1v19.2c0,0.6,0.5,1.1,1.1,1.1H21c0.6,0,1.1-0.5,1.1-1.1V3.1
	C22.1,2.5,21.6,2,21,2z M4.1,3.3c1,0,1.9,0.8,1.9,1.9S5.2,7.1,4.1,7.1c-1,0-1.9-0.8-1.9-1.9S3.1,3.3,4.1,3.3z M19.9,20
	c0,0.6-0.5,1.1-1.1,1.1H3.3c-0.6,0-1.1-0.5-1.1-1.1V9.2c0-0.6,0.5-1.1,1.1-1.1h15.5c0.6,0,1.1,0.5,1.1,1.1V20z M18,7.1
	c-1,0-1.9-0.8-1.9-1.9S17,3.3,18,3.3c1,0,1.9,0.8,1.9,1.9S19.1,7.1,18,7.1z"/>
<rect id="XMLID_118_" x="3.7" y="10.2" class="st0" width="2.3" height="2.3"/>
<rect id="XMLID_126_" x="7.8" y="10.2" class="st0" width="2.3" height="2.3"/>
<rect id="XMLID_128_" x="12" y="10.2" class="st0" width="2.3" height="2.3"/>
<rect id="XMLID_130_" x="16.2" y="10.2" class="st0" width="2.3" height="2.3"/>
<rect id="XMLID_146_" x="3.7" y="13.7" class="st0" width="2.3" height="2.3"/>
<rect id="XMLID_133_" x="7.8" y="13.7" class="st0" width="2.3" height="2.3"/>
<rect id="XMLID_132_" x="12" y="13.7" class="st0" width="2.3" height="2.3"/>
<rect id="XMLID_131_" x="16.2" y="13.7" class="st0" width="2.3" height="2.3"/>
<rect id="XMLID_154_" x="3.7" y="17.3" class="st0" width="2.3" height="2.3"/>
<rect id="XMLID_151_" x="7.8" y="17.3" class="st0" width="2.3" height="2.3"/>
<rect id="XMLID_148_" x="12" y="17.3" class="st0" width="2.3" height="2.3"/>
<rect id="XMLID_147_" x="16.2" y="17.3" class="st0" width="2.3" height="2.3"/>
</svg>
