<?xml version="1.0" encoding="utf-8"?>
<!-- Generator: Adobe Illustrator 22.0.1, SVG Export Plug-In . SVG Version: 6.00 Build 0)  -->
<svg version="1.1" id="レイヤー_1" xmlns="http://www.w3.org/2000/svg" xmlns:xlink="http://www.w3.org/1999/xlink" x="0px"
	 y="0px" viewBox="0 0 27.1 24.1" style="enable-background:new 0 0 27.1 24.1;" xml:space="preserve">
<style type="text/css">
	.st0{fill:#2660AC;}
</style>
<g id="XMLID_175_">
	<path id="XMLID_200_" class="st0" d="M9.8,13.9c-2.8,0-5.1-2.3-5.1-5.1S7,3.7,9.8,3.7s5.1,2.3,5.1,5.1S12.6,13.9,9.8,13.9z
		 M9.8,5.3c-1.9,0-3.5,1.6-3.5,3.5s1.6,3.5,3.5,3.5s3.5-1.6,3.5-3.5S11.7,5.3,9.8,5.3z"/>
	<path id="XMLID_197_" class="st0" d="M18.8,24.1H1.3c-0.7,0-1.3-0.6-1.3-1.3v-2.7c0-1,3.8-4.8,10-4.8c6.3,0,10.1,3.8,10.1,4.8v2.7
		C20.1,23.6,19.5,24.1,18.8,24.1z M1.8,22.3h16.4v-1.6c-0.5-0.7-3.3-3.3-8.2-3.3c-4.9,0-7.7,2.6-8.2,3.3V22.3z"/>
</g>
<path id="XMLID_173_" class="st0" d="M9.8,13.9c-2.8,0-5.1-2.3-5.1-5.1S7,3.7,9.8,3.7s5.1,2.3,5.1,5.1S12.6,13.9,9.8,13.9z"/>
<g id="XMLID_168_">
	<path id="XMLID_171_" class="st0" d="M16.9,8.8c0,0.5-0.1,1-0.1,1.4c0,0,0,0,0.1,0c2.8,0,5.1-2.3,5.1-5.1S19.6,0,16.8,0
		c-1.8,0-3.3,0.9-4.2,2.2C15.1,3.3,16.9,5.9,16.9,8.8z"/>
	<path id="XMLID_169_" class="st0" d="M17,11.7c-0.3,0-0.5,0-0.8,0c-0.4,0.9-1,1.6-1.7,2.3c4.6,1.3,7.5,4.3,7.5,6.1v0.3h3.8
		c0.7,0,1.3-0.6,1.3-1.3v-2.7C27.1,15.5,23.3,11.7,17,11.7z"/>
</g>
<path id="XMLID_160_" class="st0" d="M18.8,24.1H1.3c-0.7,0-1.3-0.6-1.3-1.3v-2.7c0-1,3.8-4.8,10-4.8c6.3,0,10.1,3.8,10.1,4.8v2.7
	C20.1,23.6,19.5,24.1,18.8,24.1z"/>
</svg>
