<?xml version="1.0" encoding="utf-8"?>
<!-- Generator: Adobe Illustrator 22.0.1, SVG Export Plug-In . SVG Version: 6.00 Build 0)  -->
<svg version="1.1" id="レイヤー_1" xmlns="http://www.w3.org/2000/svg" xmlns:xlink="http://www.w3.org/1999/xlink" x="0px"
	 y="0px" viewBox="0 0 25.3 24" style="enable-background:new 0 0 25.3 24;" xml:space="preserve">
<style type="text/css">
	.st0{fill:#2660AC;}
</style>
<path id="XMLID_136_" class="st0" d="M24.2,7.1l-5.8-5.7c-0.7-0.7-1.8-1.1-2.9-1.1c-0.4,0-0.7,0-1,0.1l-0.2,0.1
	C13.7,0.6,13,1,12.4,1.4l0,0c-1.1-0.5-2.2-1-2.7-1.2L9.4,0.1c-0.9-0.3-2.2,0-2.9,0.7L0.8,6.6c-0.7,0.7-1,2-0.7,2.9l0.1,0.3
	C0.5,10.7,1.3,12,2,12.7l1.2,1.2c-0.3,0.8-0.1,1.7,0.5,2.3c0.3,0.3,0.6,0.5,1.1,0.6l0,0c-1.1,1.1-1.2,2.7-0.3,3.6
	c0.4,0.4,0.9,0.6,1.5,0.6c0.3,0,0.6,0,0.8-0.1c0,0.6,0.2,1.1,0.6,1.5c0.4,0.4,0.9,0.6,1.5,0.6c0.5,0,1.1-0.2,1.6-0.5
	c0.1,0.4,0.3,0.8,0.6,1.1c0.4,0.4,0.9,0.6,1.5,0.6c0.7,0,1.5-0.3,2.1-0.9l0.3-0.3c0.4,0.1,0.8,0,1.1-0.2l0.2-0.1
	c0.6-0.4,0.9-1.1,0.7-1.7l0.2-0.2c0.5,0.4,1.2,0.4,1.7,0.1l0.2-0.1c0.7-0.4,1-1.4,0.5-2.1l-0.1-0.2l0.2-0.2c0.5,0.3,1.1,0.3,1.6,0
	l0.2-0.1c0.7-0.4,1-1.4,0.5-2.1l-0.1-0.1l0.2-0.2c0.5,0.3,1,0.3,1.5,0l0.2-0.1c0.7-0.4,1-1.4,0.5-2.1l-0.1-0.2
	c0.4-0.6,0.7-1.2,0.9-1.8l0.1-0.3C25.6,9.8,25.2,8.1,24.2,7.1z M24.2,10.7l-0.1,0.3c-0.1,0.3-0.3,0.7-0.5,1.1l-0.5-0.8
	c-0.4-0.7-1.4-1-2.1-0.5l-0.2,0.1c-0.7,0.4-1,1.4-0.5,2.1l0.1,0.2c-0.4-0.7-1.4-1-2.1-0.5L18,12.9c-0.7,0.4-1,1.4-0.5,2.1l0.8,1.5
	c-0.4-0.7-1.4-1-2.1-0.5L16,16.1c-0.7,0.4-1,1.4-0.5,2.1l0.8,1.3c-0.4-0.7-1.4-1-2.1-0.5l-0.2,0.1c-0.7,0.4-1,1.4-0.5,2.1l0.5,0.9
	c0,0,0.1,0.1,0.1,0.1l-0.2,0.2c-0.4,0.4-0.9,0.6-1.4,0.6c-0.3,0-0.6-0.1-0.8-0.3c-0.3-0.3-0.3-0.6-0.3-1c0-0.2,0.1-0.4,0.2-0.6
	c0,0,0,0,0-0.1c0-0.1,0.1-0.1,0.1-0.2c0.1-0.1,0.1-0.2,0.2-0.3l2.5-2.5l-0.6-0.6l-3.7,3.7c-0.4,0.4-0.9,0.6-1.4,0.6
	c-0.3,0-0.6-0.1-0.8-0.3C7.5,21,7.7,20,8.4,19.4l0.2-0.2l0,0l0.1-0.1l4.2-4.2l-0.6-0.6l-4.9,4.9c-0.4,0.4-0.9,0.6-1.4,0.6
	c-0.3,0-0.6-0.1-0.8-0.3c-0.5-0.5-0.3-1.5,0.3-2.1l4.9-4.9l-0.6-0.6L6.5,15c-0.4,0.4-0.9,0.6-1.4,0.6c-0.3,0-0.6-0.1-0.8-0.3
	c-0.2-0.2-0.2-0.4-0.3-0.6c0-0.2,0-0.4,0-0.5c0,0,0,0,0-0.1c0,0,0-0.1,0-0.2c0-0.1,0.1-0.1,0.1-0.2c0,0,0-0.1,0.1-0.1
	c0-0.1,0.1-0.1,0.1-0.2c0,0,0-0.1,0.1-0.1c0.1-0.1,0.1-0.2,0.2-0.2L7.9,10L7.6,9.7C7.4,9.6,7.3,9.4,7.2,9.2l-2,1.1
	c-0.3,0.2-0.6,0.2-0.9,0.2c-0.6,0-1.1-0.3-1.4-0.7C2.4,9,2.7,8.1,3.6,7.6l5.7-3.2C9.5,4.6,9.7,4.8,10,5l3.7,2.5
	C14.8,8.2,16.3,8,16.9,7c0.7-1,0.3-2.4-0.8-3.2L13.3,2c0.4-0.2,0.9-0.4,1.3-0.6l0.2-0.1c0.2-0.1,0.5-0.1,0.7-0.1
	c0.8,0,1.6,0.3,2.2,0.8l5.8,5.8C24.1,8.5,24.5,9.8,24.2,10.7z"/>
</svg>
