<?xml version="1.0" encoding="utf-8"?>
<!-- Generator: Adobe Illustrator 22.0.1, SVG Export Plug-In . SVG Version: 6.00 Build 0)  -->
<svg version="1.1" id="レイヤー_1" xmlns="http://www.w3.org/2000/svg" xmlns:xlink="http://www.w3.org/1999/xlink" x="0px"
	 y="0px" viewBox="0 0 25.9 24.3" style="enable-background:new 0 0 25.9 24.3;" xml:space="preserve">
<style type="text/css">
	.st0{fill:#2660AC;}
</style>
<g id="XMLID_167_">
	<path class="st0" d="M22.9,24.3H3c-1.7,0-3-1.3-3-3V0.2L21.7,0v5.2h4.3v16.2C25.9,23,24.6,24.3,22.9,24.3z M2,2.2v19.1
		c0,0.5,0.5,1,1,1h19.9c0.6,0,1-0.4,1-1V7.2h-2.3v12.3h-2V2L2,2.2z"/>
</g>
<g id="XMLID_166_">
	<path class="st0" d="M10.7,11.7H3.8V4.3h6.9V11.7z M5.8,9.7h2.9V6.3H5.8V9.7z"/>
</g>
<g id="XMLID_165_">
	<rect x="4.1" y="13.4" class="st0" width="13.3" height="2"/>
</g>
<g id="XMLID_164_">
	<rect x="4.1" y="17.6" class="st0" width="13.3" height="2"/>
</g>
<g id="XMLID_153_">
	<rect x="12.6" y="4.8" class="st0" width="5" height="2"/>
</g>
<g id="XMLID_150_">
	<rect x="12.6" y="9.1" class="st0" width="5" height="2"/>
</g>
<g id="XMLID_111_">
</g>
</svg>
