<?xml version="1.0" encoding="utf-8"?>
<!-- Generator: Adobe Illustrator 22.0.1, SVG Export Plug-In . SVG Version: 6.00 Build 0)  -->
<svg version="1.1" id="レイヤー_1" xmlns="http://www.w3.org/2000/svg" xmlns:xlink="http://www.w3.org/1999/xlink" x="0px"
	 y="0px" viewBox="0 0 264.4 62.6" style="enable-background:new 0 0 264.4 62.6;" xml:space="preserve">
<style type="text/css">
	.st0{fill:#2660AC;}
	.st1{fill:#E50012;}
</style>
<g id="XMLID_87_">
	<path id="XMLID_90_" class="st0" d="M264.4,62.6c0,0-214.5-7.2-214.5-31.3S264.4,0,264.4,0S0,1.6,0,31.3S264.4,62.6,264.4,62.6z"/>
	<g>
		<path class="st0" d="M173.4,37.8h-6.2l8-20.4h-9.1l1.8-4.7h24.4l-1.8,4.7h-9.1L173.4,37.8z"/>
		<path class="st0" d="M205.2,37.8h-4.1l0.9-18.6l-6.9,18.6h-5.6l9.8-25.1h7.5l-1,18.4l13.4-18.4h7.5l-9.8,25.1h-5.6l7.6-18.6
			L205.2,37.8z"/>
		<path class="st0" d="M234,30.1c-0.8,2.9,1.3,3.5,4.2,3.5c0.9,0,4.6,0,5.6-2.5c0.5-1.4-0.4-1.9-4.3-3.3c-5.4-2-8.8-3.2-6.9-8.1
			c0.8-2,3.9-7.6,13.6-7.6c9.4,0,8.2,5.7,7.7,7.9h-6.3c0.3-1,0-1.7-0.1-1.9c-0.2-0.4-0.6-1.2-3.3-1.2c-3.1,0-4.6,1.1-5,2.2
			c-0.7,1.8,0.6,2.3,3.9,3.5c6.8,2.5,8.8,4.1,7.3,8c-1,2.6-5,8.1-14.1,8.1c-4.3,0-10.7-1.5-8.5-8.4H234z"/>
	</g>
	<g>
		<path class="st1" d="M146.4,45.9c1,0.6,1.8,1.3,2.2,1.8c-0.6,0.5-0.6,0.6-1.2,1.1c-0.2-0.2-0.7-1-1.9-1.7l-1.4,3.7h-1.4l2.7-6.9
			l1.4,0.1c0.1,0,0.2,0,0.1,0.1c0,0.1-0.1,0.1-0.2,0.1l-0.9,2.4L146.4,45.9z"/>
		<path class="st1" d="M155.5,45.9c0.3,0,0.5,0,0.8-0.1l0.6,0.5c-0.2,0.3-1.3,1.4-1.5,1.6c-1.4,1.4-2.7,2.3-4.8,3
			c-0.1-0.4-0.3-0.8-0.5-1c0.9-0.3,3-0.9,4.7-2.9h-5.1l0.4-1.1H155.5z M156.7,44l-0.4,1.1h-4.9l0.4-1.1H156.7z"/>
		<path class="st1" d="M163.8,45.8c0.1,0,0.1,0,0.1,0.1c0,0.1-0.2,0.1-0.2,0.1c-1.8,2.8-3.6,3.9-5.8,4.7c0-0.2-0.1-0.6-0.5-0.9
			c2.5-0.8,4-1.8,5.3-4.3L163.8,45.8z M159.1,45.6c0.1,0.4,0.2,1.1,0.2,1.4c-0.2,0.1-0.8,0.3-1.3,0.5c0-0.5-0.1-1-0.2-1.5
			L159.1,45.6z M161,45.3c0.1,0.4,0.2,0.8,0.1,1.5c-0.7,0.2-0.9,0.3-1.2,0.4c0-0.4-0.1-1.1-0.2-1.5L161,45.3z"/>
		<path class="st1" d="M170.8,44.9c0.3,0,0.5-0.1,0.6-0.1l0.5,0.6c-0.2,0.2-1.2,1.3-1.5,1.7c-2.4,2.7-4.6,3.6-5.4,3.9
			c-0.1-0.2-0.2-0.4-0.7-0.9c1.5-0.5,2.8-1.4,3.5-1.9c1-0.8,1.7-1.7,2.1-2.2h-2.1c-0.8,0.7-1.7,1.4-2.7,2c-0.3-0.4-0.4-0.6-0.7-0.8
			c2.7-1.6,3.8-3,4.1-3.5l1,0.5c0,0,0.1,0.1,0.1,0.1c0,0.1-0.2,0.1-0.2,0.1c-0.2,0.2-0.3,0.3-0.4,0.4H170.8z"/>
		<path class="st1" d="M176.5,46.4h3.4l-0.4,1.1h-3.4l-0.5,1.2c-0.2,0.6-0.2,0.6,1,0.6c0.1,0,1.5,0,1.7,0c-0.1,0.3-0.4,0.8-0.5,1.2
			c-2.9,0-3,0-3.2-0.1c-1-0.2-0.7-1.1-0.5-1.4l0.5-1.4h-2.5l0.4-1.1h2.5l0.5-1.2h-1.7l0.4-1.1h5.7l-0.4,1.1H177L176.5,46.4z"/>
		<path class="st1" d="M187.5,48.6l-0.5,1.2h-7.3l0.5-1.2H187.5z M188,44.7l-0.5,1.2h-5.3l0.5-1.2H188z"/>
		<path class="st1" d="M192.3,46.5c0.5,0.3,0.8,0.5,1,0.8c0.6-0.6,0.9-1,1.1-1.2h-2c-0.8,0.6-1.6,1.3-2.5,1.8
			c-0.4-0.5-0.4-0.5-0.7-0.8c1.5-0.8,2.8-1.9,4-3.3l1.2,0.4c0.1,0,0.1,0,0.1,0.1c0,0.1-0.1,0.1-0.2,0.1c-0.3,0.3-0.4,0.4-0.7,0.7
			h1.8c0.3,0,0.5,0,0.6-0.1l0.4,0.5c-0.2,0.2-0.2,0.2-0.3,0.3c-1,1.2-1.4,1.6-2.1,2.3c0.3,0.4,0.4,0.6,0.4,0.7c-0.3,0.3-1,0.8-1.2,1
			c-0.1-0.2-0.2-0.5-0.4-0.8c-1.6,1.1-3,1.6-3.8,1.9c-0.1-0.4-0.3-0.7-0.5-1.1c1.2-0.3,2.8-1,3.6-1.6c-0.4-0.4-0.8-0.7-1-0.8
			L192.3,46.5z"/>
		<path class="st1" d="M199.7,44c0.1,0,0.2,0,0.1,0.1c0,0.1-0.2,0.1-0.2,0.1l-1.5,3.8h-1.4l1.6-4.1L199.7,44z M203.7,43.8
			c0.1,0,0.2,0,0.1,0.1c0,0.1-0.2,0.1-0.2,0.2l-1,2.6c-0.3,0.9-0.8,1.7-1.6,2.4c-0.7,0.6-2,1.5-3.3,1.8c0-0.3-0.2-0.7-0.5-1
			c3-0.9,3.6-2.4,4-3.2l1.1-2.8L203.7,43.8z"/>
		<path class="st1" d="M203.3,49.4c2.6-0.5,5.5-2,7.9-4.2c0.2,0.5,0.2,0.7,0.5,1.1c-0.8,0.7-1.9,1.7-3.6,2.6c-1,0.5-2.6,1.3-4.2,1.7
			c0,0.1-0.1,0.2-0.2,0.2c-0.1,0-0.1,0-0.1-0.1L203.3,49.4z M206.1,43.9c1.2,0.7,1.4,1.1,1.6,1.3c-0.3,0.2-0.4,0.3-1.2,1.1
			c-0.6-0.7-1.3-1.1-1.6-1.3L206.1,43.9z"/>
		<path class="st1" d="M218.2,44.9c0.3,0,0.5-0.1,0.6-0.1l0.5,0.6c-0.2,0.2-1.2,1.3-1.5,1.7c-2.4,2.7-4.6,3.6-5.4,3.9
			c-0.1-0.2-0.2-0.4-0.7-0.9c1.5-0.5,2.8-1.4,3.5-1.9c1-0.8,1.7-1.7,2.1-2.2h-2.1c-0.8,0.7-1.7,1.4-2.7,2c-0.3-0.4-0.4-0.6-0.7-0.8
			c2.7-1.6,3.8-3,4.1-3.5l1,0.5c0,0,0.1,0.1,0.1,0.1c0,0.1-0.2,0.1-0.2,0.1c-0.2,0.2-0.3,0.3-0.4,0.4H218.2z M218.5,43.5
			c0.2,0.3,0.4,0.5,0.5,0.8c-0.6,0.3-0.7,0.3-0.9,0.4c-0.2-0.3-0.3-0.5-0.5-0.8L218.5,43.5z M219.9,43.4c0.2,0.2,0.4,0.6,0.5,0.8
			c-0.1,0.1-0.7,0.4-0.9,0.4c0-0.1-0.2-0.5-0.4-0.8L219.9,43.4z"/>
		<path class="st1" d="M225.7,43.8l1.4,0.1c0.1,0,0.1,0,0.1,0.1c0,0.1-0.1,0.1-0.2,0.1l-0.5,1.3h1.5l-0.5,1.2H226
			c-0.5,1.2-0.8,1.6-1,1.8c-0.8,1-2.1,2-3.4,2.5c-0.1-0.5-0.5-0.8-0.7-1c1.7-0.5,2.5-1.4,2.7-1.6c0.4-0.5,0.7-1,0.9-1.6h-1.5
			l-0.7,1.7h-1.4l0.7-1.7h-1.6l0.5-1.2h1.6l0.6-1.5l1.3,0.1c0.1,0,0.2,0,0.1,0.1c0,0.1-0.1,0.1-0.2,0.1l-0.5,1.2h1.5L225.7,43.8z"/>
		<path class="st1" d="M236,46.6l-0.5,1.3h-7.3l0.5-1.3H236z"/>
		<path class="st1" d="M243.8,45.9c0,0,0.1,0.1,0.1,0.1c0,0-0.1,0.1-0.2,0.1c0,0-0.1,0-0.2,0c-1.4,0.6-3.5,1.3-5,1.5l-0.5,1.2
			c-0.2,0.6,0,0.6,1.4,0.6c1,0,2.1,0,3.2-0.2c-0.3,0.5-0.5,0.8-0.7,1.3c-0.3,0-0.7,0-1.5,0c-3.4,0-3.5-0.1-3.8-0.3
			c-0.4-0.3-0.3-0.7,0-1.3l2-5.1l1.4,0.1c0.1,0,0.2,0,0.1,0.1c0,0.1-0.1,0.1-0.2,0.2l-0.9,2.2c1-0.2,2.7-0.6,4-1.4L243.8,45.9z
			 M243.9,44.1c0.2,0.2,0.5,0.6,0.6,0.8c-0.1,0-0.5,0.3-0.7,0.4c-0.1-0.1-0.3-0.5-0.6-0.8L243.9,44.1z M244.9,43.4
			c0.2,0.2,0.5,0.6,0.5,0.8c-0.2,0.1-0.5,0.3-0.8,0.5c-0.1-0.1-0.3-0.5-0.6-0.8L244.9,43.4z"/>
		<path class="st1" d="M246.2,45.4l0.5-1.2h4.3c0.1,0,0.4,0,0.6-0.1l0.4,0.7c-0.1,0.1-0.3,0.2-0.5,0.5c-0.6,0.7-1.2,1.3-1.8,1.9
			c0.3,0.3,1.3,1.4,1.7,2.1c-0.4,0.3-1,0.8-1.4,1.1c-0.2-0.4-0.5-1.3-1.4-2.2c-1.2,0.9-2.9,1.9-4.2,2.3c-0.1-0.5-0.2-0.7-0.5-1.1
			c1.2-0.4,2.2-0.8,3.4-1.6c1.3-0.9,1.9-1.6,2.7-2.5H246.2z"/>
	</g>
</g>
</svg>
