<?xml version="1.0" encoding="utf-8"?>
<!-- Generator: Adobe Illustrator 22.0.1, SVG Export Plug-In . SVG Version: 6.00 Build 0)  -->
<svg version="1.1" id="レイヤー_1" xmlns="http://www.w3.org/2000/svg" xmlns:xlink="http://www.w3.org/1999/xlink" x="0px"
	 y="0px" viewBox="0 0 409.1 28.3" style="enable-background:new 0 0 409.1 28.3;" xml:space="preserve">
<style type="text/css">
	.st0{fill:#FFFFFF;}
</style>
<g id="XMLID_90_">
	<path id="XMLID_381_" class="st0" d="M11.5,2v9.8H3.2v16.5H0V2H11.5z M3.2,5.8h5.1V4.3H3.2V5.8z M3.2,9.6h5.1V8H3.2V9.6z M25.3,2
		v23.4c0,0.9-0.3,1.6-0.8,2.1c-0.5,0.5-1.2,0.8-2.1,0.8h-2.5v-1c-1.6-0.2-3-0.5-4.1-1.1s-2.1-1.3-2.9-2.2c-0.8,1-1.8,1.8-2.9,2.3
		c-1.4,0.7-2.9,1-4.6,1v-2.8c1.5,0,2.7-0.3,3.6-0.8c0.9-0.5,1.6-1.3,2-2.2H5.3v-2.7h5.9v-1.6H5.3v-2.7H8c-0.2-0.7-0.5-1.3-1-1.9h3.1
		c0.4,0.5,0.7,1.1,0.9,1.9h3.7l0.7-1.9h3.1l-0.8,1.9h2.3v2.7h-5.9v1.6h5.9v2.7h-5.6c0.8,1.7,2.7,2.7,5.5,3v0.9h1.2
		c0.3,0,0.5-0.1,0.7-0.3c0.2-0.2,0.3-0.5,0.3-0.8V11.8h-8.2V2H25.3z M17,5.8h5.1V4.3H17V5.8z M17,9.6h5.1V8H17V9.6z"/>
	<path id="XMLID_321_" class="st0" d="M44.8,1.5v1.6h11.5v3.1H44.8v2h10.8v12.2h-7.9c1,1.1,2.2,2.1,3.8,2.9c1.6,0.8,3.2,1.3,4.8,1.6
		v3.5c-2.3-0.3-4.5-1-6.5-2.1s-3.7-2.6-5.1-4.6v6.7h-3.7v-6.7c-1.4,1.9-3.1,3.5-5,4.6s-4.1,1.8-6.5,2.1v-3.5
		c1.7-0.2,3.3-0.8,4.8-1.6c1.5-0.8,2.8-1.8,3.8-2.9h-7.9V8.2h10.8v-2H29.5V3.1h11.5V1.5H44.8z M33.8,13.1h7.3v-2.3h-7.3V13.1z
		 M33.8,17.8h7.3v-2.3h-7.3V17.8z M44.8,13.1H52v-2.3h-7.3V13.1z M44.8,17.8H52v-2.3h-7.3V17.8z"/>
	<path id="XMLID_318_" class="st0" d="M61.4,28V3H65v8.6h13.2V15H65v13H61.4z"/>
	<path id="XMLID_315_" class="st0" d="M83,15v-3.3h19c0,2.3-0.4,4.4-1.1,6.3c-0.7,1.9-1.8,3.5-3.2,4.7c-1.4,1.2-2.8,2.2-4.2,2.8
		c-1.4,0.7-2.8,1.1-4.1,1.4c-1.3,0.3-2.5,0.5-3.6,0.7V24c1-0.1,2-0.3,3.1-0.6c1.1-0.3,2.2-0.7,3.4-1.3c1.2-0.6,2.4-1.5,3.5-2.6
		c1.1-1.2,1.9-2.7,2.3-4.5H83z M83.9,7.3V4.1h16.7v3.3H83.9z"/>
	<path id="XMLID_311_" class="st0" d="M109,7.7l1.7,9.6h-2.6l-1.6-9.6H109z M108.6,27.6v-3c2-0.4,3.7-1.2,5.3-2.5
		c1.5-1.3,2.7-2.8,3.5-4.5c0.8-1.7,1.4-3.3,1.8-4.9c0.4-1.6,0.7-3.2,0.9-5h2.8c-0.1,1.4-0.3,2.8-0.6,4.3c-0.3,1.4-0.7,3-1.4,4.7
		c-0.6,1.7-1.5,3.3-2.7,4.8s-2.6,2.9-4.3,4C112.3,26.6,110.5,27.3,108.6,27.6z M114.3,7.7l1.7,9.6h-2.6l-1.6-9.6H114.3z"/>
	<path id="XMLID_309_" class="st0" d="M135.9,2.9c-0.2,1.1-0.5,2.2-0.8,3.3h10.6v4.1c-0.2,2.6-0.8,5-1.7,7c-0.9,2-2,3.7-3.4,5
		c-1.3,1.3-2.7,2.3-4,3.1c-1.4,0.8-2.7,1.4-3.9,1.9c-1.2,0.5-2.3,0.8-3.2,1.1v-3.5c1.3-0.4,2.6-0.9,3.8-1.5c1.2-0.6,2.5-1.5,3.9-2.7
		c1.3-1.2,2.5-2.6,3.4-4.2c0.9-1.6,1.5-3.9,1.7-6.8h-8.6c-1.4,2.2-2.6,3.8-3.7,4.9c-1.1,1.1-2.1,1.9-2.8,2.4v-4.4
		c0.7-0.7,1.4-1.5,2.1-2.4c0.7-1,1.3-2.1,1.9-3.3c0.5-1.2,0.9-2.5,1.2-3.8H135.9z"/>
	<path id="XMLID_307_" class="st0" d="M151.4,7.8V4.3h17.7v3.5h-9.8l0,5.6h11.1v3.4h-11.1c0,0.5,0,1,0,1.3c0,0.3,0,0.7,0,1.1
		c0,0.4,0,0.7,0,1c0,1,0.2,1.8,0.6,2.5c0.4,0.6,1.1,1,2.3,1c0.9,0,2,0,3.2,0c1.2,0,2.4-0.1,3.6-0.2V27c-1.2,0-2.4,0-3.7,0
		c-1.3,0-2.5,0-3.6,0c-1,0-2-0.3-2.9-0.7c-0.9-0.5-1.6-1.2-2-2c-0.4-0.9-0.7-2.1-0.8-3.7c0-0.3,0-0.7,0-1.1c0-0.5,0-0.9,0-1.2
		c0-0.3,0-0.8,0-1.3h-5.5v-3.4h5.5V7.8H151.4z"/>
	<path id="XMLID_304_" class="st0" d="M174.6,22.9h18.6v3.5h-18.6V22.9z M175.2,8.2V4.7h17.3v3.5H175.2z"/>
	<path id="XMLID_302_" class="st0" d="M206.3,2.9c-0.2,0.9-0.4,1.8-0.7,2.5h11.1v4.1c-0.3,2.8-0.8,5.2-1.8,7.3
		c-0.9,2-2.1,3.8-3.5,5.1c-1.4,1.4-2.8,2.5-4.2,3.4c-1.4,0.9-2.8,1.6-4,2c-1.2,0.5-2.4,0.8-3.3,1.1v-3.5c1.1-0.3,2.3-0.7,3.4-1.2
		c1.2-0.5,2.4-1.3,3.9-2.3c1.4-1.1,2.8-2.5,4-4.4h-7.9v-3.2h9.2c0.5-1.4,0.7-3,0.8-5h-8.8c-1.4,2.6-2.7,4.5-3.9,5.7
		c-1.2,1.2-2.2,2-2.9,2.6v-4.4c0.8-0.9,1.5-1.7,2.1-2.5c0.6-0.8,1.2-1.9,1.8-3.2c0.6-1.3,1-2.6,1.4-4H206.3z"/>
	<path id="XMLID_299_" class="st0" d="M223,16.6V3.2h3.4v13.3H223z M227.6,24.4c0.8-0.2,1.6-0.5,2.4-0.9c0.9-0.4,1.7-1,2.5-1.8
		c0.8-0.8,1.4-1.8,2-3.1c0.6-1.3,0.9-2.8,0.9-4.7V3.2h3.4v10.8c0,2.5-0.4,4.7-1.2,6.4c-0.8,1.7-1.8,3.2-3.1,4.2
		c-1.3,1.1-2.5,1.9-3.6,2.3c-1.2,0.5-2.2,0.8-3.3,1.1V24.4z"/>
	<path id="XMLID_280_" class="st0" d="M244.9,7.8V4.4h8.4v3.4H244.9z M264.2,9.7c-0.8,3.1-2.1,5.9-3.8,8.3c-1.7,2.4-3.5,4.2-5.4,5.4
		c-1.9,1.3-3.6,2.1-5.3,2.7c-1.6,0.5-3.3,0.9-4.8,1v-3.6c1.3-0.1,2.6-0.3,4-0.8c1.4-0.4,2.9-1.2,4.4-2.3c1.5-1.1,2.9-2.6,4.2-4.3
		c1.3-1.7,2.4-3.9,3.2-6.5H264.2z"/>
	<path id="XMLID_268_" class="st0" d="M277.3,2.9c-0.2,1.1-0.5,2.2-0.8,3.3h10.6v4.1c-0.2,2.6-0.8,5-1.7,7c-0.9,2-2,3.7-3.4,5
		c-1.3,1.3-2.7,2.3-4,3.1c-1.4,0.8-2.7,1.4-3.9,1.9c-1.2,0.5-2.3,0.8-3.2,1.1v-3.5c1.3-0.4,2.6-0.9,3.8-1.5c1.2-0.6,2.5-1.5,3.9-2.7
		c1.3-1.2,2.5-2.6,3.4-4.2c0.9-1.6,1.5-3.9,1.7-6.8h-8.6c-1.4,2.2-2.6,3.8-3.7,4.9c-1.1,1.1-2.1,1.9-2.8,2.4v-4.4
		c0.7-0.7,1.4-1.5,2.1-2.4c0.7-1,1.3-2.1,1.9-3.3s0.9-2.5,1.2-3.8H277.3z M281.5,4.6V0h2.2v4.6H281.5z M284.9,4.6V0h2.2v4.6H284.9z"
		/>
	<path id="XMLID_226_" class="st0" d="M297.5,1.5v5.3h2.3v3.3h-2.3v18.2H294V10.1h-2.4V6.8h2.4V1.5H297.5z M303.7,13.9v1.5h4.6v8.4
		c0,1.6-0.3,2.8-0.8,3.5c-0.5,0.7-1.5,1-2.9,1h-1.4v-3.4h1.3c0.8,0,1.2-0.5,1.2-1.5v-4.7h-2c0,2.3-0.4,4.3-1.2,6
		c-0.8,1.6-1.9,2.9-3.3,3.6v-3.8c0.6-0.5,1.1-1.1,1.4-1.9c0.4-1,0.6-2.3,0.6-3.8h-2v-3.3h2v-1.5H303.7z M309.2,1.5v1h8.5v6.7
		c0,1.2-0.3,2.1-1,2.7c-0.7,0.7-1.7,1-3.2,1h-3.2V10h2.3c1.1,0,1.7-0.5,1.7-1.6V5.5h-5.1c0,1.9-0.7,3.6-2.2,5.1
		c-1.6,1.7-3.7,2.5-6.3,2.5v-3c1.5-0.2,2.8-0.7,3.7-1.6c0.8-0.8,1.3-1.8,1.4-3h-5.1v-3h5.1v-1H309.2z M313.9,13.9v1.5h4.5v8.7
		c0,1.5-0.3,2.6-0.8,3.3c-0.5,0.6-1.5,0.9-2.9,0.9h-1.5v-3.4h1.3c0.8,0,1.1-0.5,1.1-1.5v-4.7h-1.9c0,2.3-0.4,4.3-1.3,6
		c-0.8,1.7-2,2.9-3.3,3.6v-3.8c0.6-0.5,1.1-1.1,1.4-1.9c0.4-1,0.7-2.3,0.7-3.8h-2.1v-3.3h2.1v-1.5H313.9z"/>
	<path id="XMLID_207_" class="st0" d="M347.9,2V25c0,1-0.3,1.8-0.9,2.4c-0.6,0.6-1.4,0.9-2.4,0.9h-4v-2.7h-11.9V13.1h13.2v11.8h1.5
		c0.7,0,1.1-0.3,1.1-1V5.1h-18.3v23.2h-3.5V2H347.9z M341.8,7.6v2.9h-13.2V7.6H341.8z M331.9,22.7h6.7v-6.6h-6.7V22.7z"/>
	<path id="XMLID_170_" class="st0" d="M355.4,19.7c0,1.8-0.1,3.5-0.2,4.9c-0.1,1.5-0.3,2.6-0.5,3.4H352c0.3-0.7,0.4-1.8,0.5-3.3
		c0.1-1.5,0.1-3.2,0.1-5H355.4z M360.7,1.5l-5,5.6h3l1.8-2h3.8l-7.9,9.3h2.4c1.1,0,2-0.1,2.5-0.4l-0.5-3h2.8l1.2,7.4H362l-0.2-1.5
		c-0.5,0.2-1.1,0.3-1.9,0.4v11h-3.3V17.4h-4.5v-3.1l4-4.3h-4V6.6l4.6-5.1H360.7z M363.6,19.7l0.5,8.3h-2.6l-0.4-8.3H363.6z M377.8,2
		v22.8h1.1V28h-14.1v-3.1h0.9V2H377.8z M369.1,9.6h5.4V5h-5.4V9.6z M369.1,17.2h5.4v-4.6h-5.4V17.2z M369.1,24.8h5.4v-4.6h-5.4V24.8
		z"/>
	<path id="XMLID_103_" class="st0" d="M393.5,1.5h4.3c1.1,1.6,2.7,2.9,4.7,4.1s4.2,2,6.5,2.4v3.8c-1.2-0.2-2.5-0.6-3.7-1v3.1H386
		v-3.1c-0.7,0.2-1.3,0.4-1.8,0.6c-0.6,0.2-1.2,0.3-1.8,0.4V8c2.3-0.4,4.5-1.3,6.5-2.4S392.4,3,393.5,1.5z M407.9,16.8V28h-24.5V16.8
		H407.9z M386.5,10.6h18.3C401,9.1,398,7,395.7,4.1C393.4,7,390.4,9.1,386.5,10.6z M387,24.8h17.4V20H387V24.8z"/>
</g>
</svg>
