<?xml version="1.0" encoding="utf-8"?>
<!-- Generator: Adobe Illustrator 22.0.1, SVG Export Plug-In . SVG Version: 6.00 Build 0)  -->
<svg version="1.1" id="レイヤー_1" xmlns="http://www.w3.org/2000/svg" xmlns:xlink="http://www.w3.org/1999/xlink" x="0px"
	 y="0px" viewBox="0 0 882.9 554.6" style="enable-background:new 0 0 882.9 554.6;" xml:space="preserve">
<style type="text/css">
	.st0{fill:#DD332D;}
	.st1{fill:#231815;}
	.st2{fill:#22DE38;}
	.st3{fill:#2660AD;}
	.st4{fill:none;stroke:#DD332D;stroke-miterlimit:10;}
	.st5{fill:none;stroke:#22DE38;stroke-miterlimit:10;}
	.st6{fill:none;stroke:#2660AD;stroke-miterlimit:10;}
	.st7{fill:none;stroke:#22DE38;stroke-width:9.9;stroke-miterlimit:10;}
	.st8{fill:none;stroke:#2660AD;stroke-width:9.9;stroke-miterlimit:10;}
	.st9{fill:none;stroke:#DD332D;stroke-width:9.9;stroke-miterlimit:10;}
	.st10{fill:#FFFFFF;}
</style>
<g>
	<path class="st0" d="M411.4,142.7h2.1v4.3c1.9-0.2,3.2-0.4,5.2-0.8l0,2.2c-1.6,0.3-2.9,0.5-5.3,0.7v3.1c1-0.3,3.1-1,5.5-1
		c5,0,6.9,3.2,6.9,6.3c0,2-1,5.9-6.1,5.9c-1.4,0-2.1-0.3-2.6-0.4l0-2.3c0.5,0.2,1.3,0.6,2.6,0.6c3.4,0,3.9-2.6,3.9-3.8
		c0-1.8-0.9-4.3-5.1-4.3c-2.3,0-4,0.6-5.1,1v5.3c0,1.5,0,4.3-2.9,4.3c-2.1,0-5.2-1.7-5.2-4.3c0-3.6,4.6-6,6-6.6v-3.7
		c-1.8,0.1-3.5,0.1-5.3,0.1v-2.2c0.8,0,1.6,0.1,3,0.1c1.4,0,1.8,0,2.2-0.1V142.7z M411.4,155.3c-0.9,0.5-4.1,2.2-4.1,4.3
		c0,1.3,1.8,2.3,2.9,2.3c1.1,0,1.1-1.1,1.1-2.3V155.3z M421.5,144.6c2.3,1.4,3.8,2.9,5.2,4.5l-1.6,1.5c-1.5-1.9-2.9-3.2-5-4.5
		L421.5,144.6z"/>
	<path class="st0" d="M429.1,156.3c5.3-0.8,8.3-2.1,9.8-2.7c-0.9-0.6-1.6-1.1-3.3-2.8c-1.2,0.9-2.3,1.6-4.7,2.7l-0.9-1.7
		c2.3-0.9,5.4-2.4,7.8-5.7l2,0.4c-0.4,0.5-0.5,0.8-0.9,1.3h8.8v1.5c-0.6,0.8-1.9,2.5-5,4.4c3.1,1.4,6.4,2.1,9.8,2.6l-0.7,2
		c-0.8-0.1-1.2-0.2-2.5-0.5v7h-17v-7c-0.7,0.2-1.1,0.3-2.5,0.5L429.1,156.3z M441.8,141.9v1.9h9.8v5.2h-2.1v-3.4H432v3.4h-2v-5.2
		h9.7v-1.9H441.8z M447.6,157.2c-0.9-0.2-4.2-1.2-6.7-2.5c-2.6,1.4-5.5,2.2-6.6,2.5H447.6z M447.3,158.9h-13v4h13V158.9z
		 M437.3,149.3c0,0.1-0.2,0.2-0.3,0.3c1.8,1.8,3.4,2.7,3.9,3c2.5-1.4,3.4-2.3,4.2-3.3H437.3z"/>
	<path class="st0" d="M461.7,155.7c-1-1.5-1.3-2.2-1.6-3.2v12.6h-2v-11.9c-0.5,2-1.1,3.9-2.7,6.2l-0.9-2.5c1.6-2,2.9-4.9,3.5-8.2
		h-3.1v-1.8h3.2v-4.9h2v4.9h2.5v1.8H460v0.9c0.5,1.4,1.5,3.1,2.8,4.5L461.7,155.7z M461.4,162.6c0.8-0.3,3.5-1.4,6.3-3.5l0.5,1.8
		c-1.4,1-4,2.6-6,3.5L461.4,162.6z M477.3,164.3c-2.5-1.5-4.4-3.1-5.8-5.6v4.4c0,0.5,0,2-1.9,2h-2.9l-0.3-2l2.3,0
		c0.5,0,0.8-0.1,0.8-0.8v-8h-6.4v-1.8h6.4v-2.2h-5.4v-1.7h5.4v-2h-6v-1.7h3.4c-0.3-0.8-0.7-1.7-1.1-2.6l1.9-0.3
		c0.5,0.9,1,1.9,1.3,2.9h3.4c0.3-0.5,0.8-1.5,1.2-2.9l1.9,0.3c-0.5,1.5-1.1,2.4-1.2,2.6h3.4v1.7h-6.1v2h5.5v1.7h-5.5v2.2h6.5v1.8
		h-6.5v0.9c0.8,2.3,3.1,5.5,6.8,7.2L477.3,164.3z M464.5,154.9c0.4,0.3,1.7,1.1,3.1,2.6l-1.4,1.3c-0.7-0.8-1.8-1.9-3-2.6
		L464.5,154.9z M473.8,157.6c0.9-0.7,1.9-1.8,2.5-2.7l1.6,1.1c-0.8,1.1-1.6,2-2.6,2.8L473.8,157.6z"/>
</g>
<g>
	<path class="st1" d="M393.5,186.5c-2.7-2.2-4.8-3.2-6.3-3.9v7.9h-1.5v-13.8h1.5v4.3c3.4,1.6,5.6,3,7.1,4.2L393.5,186.5z"/>
	<path class="st1" d="M408.7,181c-0.4,3.1-2.2,7.7-8.9,9.5l-0.8-1.3c6.2-1.5,7.4-5.5,7.8-6.9h-10.9V181H408.7z M407.3,177.5v1.4
		h-9.7v-1.4H407.3z"/>
	<path class="st1" d="M411.9,180.6c0.9,1.3,1.3,2.3,1.8,3.3l-1.2,0.6c-0.6-1.4-1.2-2.3-1.8-3.2L411.9,180.6z M421.4,180.5
		c-0.8,5.7-3.6,8.6-7.8,10.1l-1-1c4.8-1.5,6.9-4.6,7.5-9.3L421.4,180.5z M415.3,179.9c0.7,1,1.2,2,1.7,3.4l-1.2,0.6
		c-0.5-1.3-0.9-2.2-1.7-3.4L415.3,179.9z"/>
	<path class="st1" d="M425.3,189.3c7.4-2.4,8.5-8.7,8.8-10.3h-5.8c-1.3,2.3-2.9,3.7-4,4.6l-1.1-1c1.1-0.9,2.8-2.4,4.1-5h8.5
		c-1,8.5-6,11.5-9.6,12.9L425.3,189.3z"/>
	<path class="st1" d="M446.3,187.5l1.1-7.6h-7.7v-1.4h9.4l-1.3,8.9h3.8v1.4h-13.5v-1.4H446.3z"/>
	<path class="st1" d="M466.9,182.9v1.4h-13.3v-1.4H466.9z"/>
	<path class="st1" d="M471.8,177.3h1.4v3.2h5v-3.4h1.3l0,3.4h2.9v1.4h-2.8v1.2c0,2.4-0.2,5.6-4.5,7.4l-1-1.1
		c3.8-1.5,4.1-3.9,4.1-6.3v-1.2h-5v4.2h-1.4v-4.2h-2.8v-1.4h2.8V177.3z M480.9,175.8c0.4,1.1,0.6,2,0.8,3.3l-1.2,0.3
		c-0.1-1.4-0.3-2-0.7-3.3L480.9,175.8z M483.2,175.5c0.5,1.2,0.6,2,0.8,3.3l-1.2,0.3c-0.2-1.4-0.3-2.1-0.8-3.3L483.2,175.5z"/>
	<path class="st1" d="M498.6,182.9v1.4h-13.3v-1.4H498.6z"/>
</g>
<g>
	<path class="st2" d="M30,445.7h10.6v2.1H30v5.5c0,1.8,0.6,2.2,3.7,2.2c2.1,0,3.9-0.1,5.5-0.3l-0.1,2.2c-2,0.1-3.6,0.2-4.7,0.2
		c-4.6,0-6.7-0.6-6.7-4v-5.8h-7.9v-2.1h7.9V441h-6.2v-2.1H39v2.1H30V445.7z"/>
	<path class="st2" d="M64.8,453.5v2.2H43.7v-2.2H64.8z M62.9,439.8v2.2H45.7v-2.2H62.9z"/>
	<path class="st2" d="M70.2,456.6c5.6-1.8,8.1-4.3,9.8-6.2c-1.5-1.1-3.8-2.8-8.1-5c-0.9,0.9-1.4,1.4-2.9,2.7l-1.7-1.5
		c2.8-2.2,5.1-4.9,6.8-8h13c-1.7,15.3-12.9,19.1-15.5,20L70.2,456.6z M75.5,440.6c-0.6,1-1.1,1.8-2.2,3.2c2.9,1.5,4.8,2.5,8,4.8
		c1.2-1.9,2.4-4.3,3.1-8H75.5z"/>
	<path class="st2" d="M94.3,437.9v12.8H92v-12.8H94.3z M107,437.5v8c0,5.4-1,10.3-9.4,12.9l-1.1-2c7.6-2.1,8.2-6.7,8.2-11.1v-7.8
		H107z"/>
	<path class="st2" d="M119.7,444.2c-2.3-1.5-4.4-2.6-7.3-3.7l1-2c2.8,1,5,2,7.5,3.6L119.7,444.2z M132,444.8
		c-5.1,7.9-12.2,11.9-18.8,13.3l-0.8-2.3c7.9-1.6,14-6.1,18.1-13L132,444.8z"/>
	<path class="st2" d="M150.7,438.9l2.2,3c-1,3.6-3.5,12.8-13.6,17l-1.5-1.9c3.4-1.2,6.3-3.4,8.6-6.2c2.8-3.6,3.9-7.5,4.5-9.8h-8.6
		c-2.1,3.7-4.4,5.8-6,7.1l-1.7-1.5c1.3-1.1,4.3-3.6,6.2-7.7H150.7z M152.4,436c1.3,1.6,1.8,2.5,2.8,4.5l-1.6,1.1
		c-0.9-1.9-1.5-3-2.7-4.6L152.4,436z M155.7,435.1c1.3,1.6,1.7,2.5,2.7,4.6l-1.6,1c-0.8-1.9-1.3-2.9-2.6-4.7L155.7,435.1z"/>
	<path class="st2" d="M164.8,437.9h2.2v5h7.8v-5.7h2.2v5.7h4.4v2.1h-4.4v1.9c0,3.9-0.5,8.7-7.1,11.6l-1.5-1.8
		c5.9-2.4,6.4-6.1,6.4-9.9V445H167v6.5h-2.2V445h-4.4v-2.1h4.4V437.9z"/>
	<path class="st2" d="M205.5,446.7v2.1h-20.8v-2.1H205.5z"/>
	<path class="st2" d="M212.8,445.5c1.5-0.3,6-1.3,11.6-4l1.1,1.9c-4.2,1.9-7.7,3.1-12.7,4.1v4.8c0,2.7,0.6,2.9,8,2.9
		c3.1,0,5.8-0.1,7.3-0.3v2.2c-1.9,0.1-4,0.2-7.3,0.2c-7.5,0-10.4,0-10.4-4.9v-15.1h2.3V445.5z M225.3,436.5c1.2,1.5,1.8,2.8,2.7,4.6
		l-1.6,1c-0.8-1.9-1.4-3.1-2.6-4.7L225.3,436.5z M229,435.1c0.4,0.5,1.4,1.8,2.6,4.6l-1.7,1c-0.8-2.1-1.3-3-2.5-4.7L229,435.1z"/>
	<path class="st2" d="M252.2,457.7c-1.1-1.5-3.4-4.5-7.1-7.5c-2.6,3.1-6.1,5.9-10.6,7.9l-1.3-1.9c8.9-4,12.6-9.9,14.7-15.2h-13v-2.2
		h16.2c-1.3,4.6-3,7.4-4.6,9.7c3.4,2.7,5.5,5.1,7.6,7.7L252.2,457.7z"/>
	<path class="st2" d="M278.8,437.8v2h-9.5V456h10.5v2h-23.1v-2H267v-16.2h-9.5v-2H278.8z"/>
	<path class="st2" d="M289.6,451.4c-2,1.2-4.9,2.5-7.3,3.2l-0.3-2.1c0.8-0.2,1.7-0.5,3-1v-8.1h-2.8v-1.9h2.8v-5.3h2v5.3h2.3v1.9H287
		v7.3c1.2-0.5,1.9-0.9,2.5-1.2L289.6,451.4z M304.6,449.8c0,2.5-0.2,6.9-0.8,8c-0.3,0.7-0.8,1.4-2.3,1.4h-3.2l-0.3-1.9l3.1,0
		c0.7,0,0.9-0.5,1-0.9c0.2-0.8,0.3-2,0.5-5h-1.7c-1.4,3.7-3.9,6.3-7.4,8l-1.3-1.5c3.6-1.7,5.7-4,6.8-6.5H297
		c-2.6,4.3-6.6,5.9-8.2,6.4l-0.9-1.6c1.6-0.5,4.4-1.6,7.1-4.9h-2.4c-1.7,1.8-3.2,2.5-4.1,2.9l-0.9-1.5c2.7-1.2,4.1-2.4,5.6-4.8h-3.9
		v-1.6h16.1v1.6H295c-0.4,0.7-0.6,1.1-1.1,1.7H304.6z M303.7,437v8h-13v-8H303.7z M301.8,438.6h-9.2v1.8h9.2V438.6z M301.8,441.8
		h-9.2v1.8h9.2V441.8z"/>
</g>
<g>
	<path class="st1" d="M138.5,483.8c0.6-1.5,0.7-3.2,0.8-4.1l1.2,0.1c0,0.8-0.2,2.8-0.8,4.5L138.5,483.8z M144.5,472.5
		c-0.5,0.9-1.3,2.4-3.2,4.8c1.2-0.1,1.9-0.1,2.3-0.2c-0.3-0.7-0.3-0.8-0.5-1.2l1.1-0.4c0.6,1.3,1.1,2.8,1.2,3.1l-1.2,0.4
		c-0.2-0.6-0.2-0.7-0.3-1c-0.5,0.1-1.1,0.1-1.5,0.2v7h-1.3v-6.9c-0.8,0-2.5,0.2-2.7,0.2l0-1.2c0.4,0,0.5,0,1.4-0.1
		c0.2-0.3,0.4-0.6,0.9-1.3c-0.8-0.9-1.4-1.5-2.3-2.2l0.7-1c0.3,0.2,0.4,0.3,0.6,0.4c0.2-0.3,0.9-1.5,1.5-2.9l1.2,0.4
		c-0.7,1.4-1.5,2.7-1.9,3.2c0.5,0.5,0.7,0.7,0.9,0.9c0.1-0.1,0.9-1.4,1.8-3.1L144.5,472.5z M143.9,483.1c-0.1-1.3-0.3-2.2-0.7-3.4
		l1.1-0.3c0.4,1.1,0.6,2.1,0.8,3.4L143.9,483.1z M152.6,471v12.7h0.9v1.2h-9.3v-1.2h1.6V471H152.6z M151.3,472.2h-4.2v2.9h4.2V472.2
		z M151.3,476.3h-4.2v2.9h4.2V476.3z M151.3,480.4h-4.2v3.3h4.2V480.4z"/>
	<path class="st1" d="M169.3,476.6c-1.4-0.6-2.1-1-2.8-1.5v1.2h-8v-1.2c-1.1,0.7-1.7,1-2.9,1.5l-0.8-1.3c2.6-0.9,5.2-2.5,6.9-4.8
		h1.3c2.1,2.5,4.2,3.7,7,4.8L169.3,476.6z M168.2,478.1v6.9h-11.4v-6.9H168.2z M166.8,479.3h-8.7v4.5h8.7V479.3z M166.5,475.1
		c-2.3-1.6-3.3-2.7-4-3.5c-1.5,1.9-3.2,3-3.9,3.5H166.5z"/>
	<path class="st1" d="M176.8,483.6c-1.4,0.9-3.1,1.4-4.8,1.8l-0.6-1.2c1.7-0.2,3.3-0.7,4.6-1.4L176.8,483.6z M185.2,475.5v7.1h-12.6
		v-7.1H185.2z M184.7,471v3.5h-11.6V471H184.7z M173.9,476.5v1.1h10v-1.1H173.9z M173.9,478.5v1.1h10v-1.1H173.9z M173.9,480.5v1.1
		h10v-1.1H173.9z M174.4,472v1.5h9V472H174.4z M181.7,482.7c1.4,0.8,3.1,1.3,4.7,1.4l-0.6,1.3c-1.8-0.3-3.5-0.9-5-1.8L181.7,482.7z"
		/>
</g>
<g>
	<path class="st3" d="M610.6,445.7h10.6v2.1h-10.6v5.5c0,1.8,0.6,2.2,3.7,2.2c2.1,0,3.9-0.1,5.5-0.3l-0.1,2.2
		c-2,0.1-3.6,0.2-4.7,0.2c-4.6,0-6.7-0.6-6.7-4v-5.8h-7.9v-2.1h7.9V441h-6.2v-2.1h17.3v2.1h-8.9V445.7z"/>
	<path class="st3" d="M645.4,453.5v2.2h-21.1v-2.2H645.4z M643.5,439.8v2.2h-17.2v-2.2H643.5z"/>
	<path class="st3" d="M650.7,456.6c5.6-1.8,8.1-4.3,9.8-6.2c-1.5-1.1-3.8-2.8-8.1-5c-0.9,0.9-1.4,1.4-2.9,2.7l-1.7-1.5
		c2.8-2.2,5.1-4.9,6.8-8h13c-1.7,15.3-12.9,19.1-15.5,20L650.7,456.6z M656.1,440.6c-0.6,1-1.1,1.8-2.2,3.2c2.9,1.5,4.8,2.5,8,4.8
		c1.3-1.9,2.4-4.3,3.1-8H656.1z"/>
	<path class="st3" d="M674.9,437.9v12.8h-2.3v-12.8H674.9z M687.5,437.5v8c0,5.4-1,10.3-9.4,12.9l-1.1-2c7.6-2.1,8.2-6.7,8.2-11.1
		v-7.8H687.5z"/>
	<path class="st3" d="M700.3,444.2c-2.3-1.5-4.4-2.6-7.3-3.7l1-2c2.8,1,5,2,7.5,3.6L700.3,444.2z M712.5,444.8
		c-5.1,7.9-12.2,11.9-18.8,13.3l-0.8-2.3c7.9-1.6,14-6.1,18.1-13L712.5,444.8z"/>
	<path class="st3" d="M731.3,438.9l2.2,3c-1,3.6-3.5,12.8-13.6,17l-1.5-1.9c3.4-1.2,6.3-3.4,8.6-6.2c2.8-3.6,3.9-7.5,4.5-9.8h-8.6
		c-2.1,3.7-4.4,5.8-6,7.1l-1.7-1.5c1.3-1.1,4.3-3.6,6.2-7.7H731.3z M732.9,436c1.3,1.6,1.8,2.5,2.8,4.5l-1.6,1.1
		c-0.9-1.9-1.5-3-2.7-4.6L732.9,436z M736.3,435.1c1.3,1.6,1.7,2.5,2.7,4.6l-1.6,1c-0.8-1.9-1.3-2.9-2.6-4.7L736.3,435.1z"/>
	<path class="st3" d="M745,436.2v5.9h2.4v2H745v15.3h-2V444h-2.2v-2h2.2v-5.9H745z M754.2,448.5c0,2.3-0.2,8.2-0.9,9.6
		c-0.5,1-1.3,1.2-2,1.2h-1.8l-0.4-1.9l1.3,0c0.5,0,0.8,0,1.2-0.6c0.5-1,0.6-5.5,0.6-6.4h-1.9c-0.4,3.5-1.1,6.4-3.4,9l-1.5-1.3
		c2.2-2.7,2.6-4.9,2.9-7.6h-2.1v-1.8h2.2c0-0.9,0.1-1.4,0.1-1.9h2c0,0.7,0,1.1-0.1,1.9H754.2z M762.4,438.3
		c-0.3,5.6-0.4,7.4-3.4,7.4h-2.7l-0.5-2.1l2.8,0c1.1,0,1.4,0,1.6-3.5h-4.9c-1.1,2.9-3.2,4.9-6.6,6.2l-1.3-1.7
		c1.8-0.6,4.4-1.8,5.7-4.5h-5.5v-1.8h6.1c0.2-0.9,0.3-1.5,0.3-2.1h2.1c-0.1,0.9-0.2,1.4-0.3,2.1H762.4z M763.3,448.5
		c-0.1,6.3-0.1,9-1,10.1c-0.4,0.6-1.2,0.7-1.8,0.7h-1.9l-0.4-1.9l1.5,0c0.9,0,1.1-0.3,1.3-0.8c0.1-0.4,0.4-2.6,0.4-6.3h-2
		c-0.3,3.9-1.2,6.6-3.8,9l-1.6-1.2c2.8-2.7,3.1-5.1,3.5-7.8h-2v-1.8h2.1c0-0.7,0-1,0-2h2c0,1.1,0,1.5,0,2H763.3z"/>
	<path class="st3" d="M788.5,457.1c0,1.5-0.6,2.2-2.5,2.2h-3.6l-0.4-2.1l3.4,0c0.5,0,0.9,0,0.9-0.8V439h-16.9v20.3h-2.1v-22.3h21.2
		V457.1z M785.2,441.4v1.8h-14.6v-1.8H785.2z M783.6,445.6v9.1h-11.5v-9.1H783.6z M781.6,447.4h-7.5v5.5h7.5V447.4z"/>
	<path class="st3" d="M791.7,456.9c0.9-2.3,1.1-5,1.2-6.4l1.8,0.2c0,1.3-0.3,4.4-1.2,7L791.7,456.9z M801,439.4
		c-0.8,1.5-2.1,3.7-4.9,7.5c1.9-0.1,3-0.2,3.6-0.3c-0.4-1-0.5-1.2-0.7-1.8l1.7-0.7c1,2,1.7,4.4,1.9,4.9l-1.8,0.7
		c-0.3-0.9-0.3-1.1-0.5-1.5c-0.8,0.1-1.6,0.2-2.4,0.3v10.9h-2v-10.7c-1.3,0.1-3.8,0.3-4.2,0.3l0-1.8c0.7,0,0.8,0,2.2-0.1
		c0.3-0.4,0.7-1,1.4-2c-1.2-1.4-2.1-2.3-3.6-3.4l1-1.5c0.4,0.3,0.6,0.4,0.9,0.7c0.3-0.5,1.5-2.3,2.4-4.5l1.9,0.7
		c-1.1,2.2-2.4,4.2-2.9,5c0.8,0.7,1.1,1.1,1.4,1.4c0.2-0.2,1.4-2.1,2.8-4.8L801,439.4z M800,456c-0.2-2-0.5-3.4-1.1-5.3l1.7-0.4
		c0.6,1.6,1,3.2,1.3,5.3L800,456z M813.7,437v19.8h1.4v1.9h-14.4v-1.9h2.5V437H813.7z M811.6,438.9h-6.5v4.5h6.5V438.9z
		 M811.6,445.3h-6.5v4.6h6.5V445.3z M811.6,451.7h-6.5v5.1h6.5V451.7z"/>
	<path class="st3" d="M839.8,445.8c-2.2-0.9-3.3-1.6-4.4-2.3v1.8h-12.5v-1.9c-1.6,1-2.7,1.6-4.5,2.4l-1.2-2.1
		c4-1.4,8.1-3.9,10.8-7.5h2.1c3.3,3.9,6.5,5.8,10.9,7.5L839.8,445.8z M838,448.2v10.7h-17.8v-10.7H838z M835.9,450h-13.6v7h13.6V450
		z M835.3,443.4c-3.6-2.4-5.2-4.2-6.2-5.4c-2.3,2.9-4.9,4.7-6.1,5.4H835.3z"/>
</g>
<g>
	<path class="st1" d="M711.6,473.3v-2.9h1.3v2.9h6.8v1.3h-6.1c1.6,3.3,3.9,5.4,6.2,6.8l-0.8,1.3c-3.4-2.5-4.9-4.6-6.2-7.2v5.7h3.4
		v1.2h-3.4v2.9h-1.3v-2.9h-3.3v-1.2h3.3v-5.7c-0.6,1.2-2.1,4.2-6.1,7.2l-0.8-1.3c2.9-1.8,4.8-3.9,6.2-6.9h-6v-1.3H711.6z"/>
	<path class="st1" d="M724.8,472v-1.5h1.3v1.5h3.3v1.2h-1.1c-0.1,1-0.4,2.2-0.8,3.4h2.2v1.2h-8.5v-1.2h2.1c-0.1-1-0.2-2.2-0.6-3.4
		h-1.3V472H724.8z M729,485h-7V479h7V485z M727.7,480.1h-4.4v3.8h4.4V480.1z M726.3,476.5c0.4-1.2,0.6-2.6,0.7-3.4H724
		c0.3,1.2,0.5,2.1,0.6,3.4H726.3z M730.3,485.3v-14.4h5.5v1.1c-0.6,1.7-1.2,2.8-2,4.3c1.4,1.3,2.3,2.9,2.3,4.7
		c0,0.8-0.3,1.7-0.9,2.2c-0.4,0.4-0.9,0.5-1.7,0.5h-1.2l-0.2-1.3l1.2,0c1,0,1.4-0.6,1.4-1.6c0-1.7-1-3.1-2.4-4.3
		c0.8-1.4,1.7-3.3,2-4.5h-2.7v13.3H730.3z"/>
</g>
<g>
	<g>
		<path class="st2" d="M352.4,312.1c0,3.9-3.2,7.1-7.1,7.1c-3.9,0-7.1-3.2-7.1-7.1c0-4,3.2-7.1,7.1-7.1
			C349.2,305,352.4,308.1,352.4,312.1z"/>
		<path class="st2" d="M357.2,319.5h-1.3v-8.6c-0.7,0.9-1.2,1.3-1.6,1.7l-0.7-1.3c2.5-2.5,3.4-5.3,3.7-6.7l1.3,0.2
			c-0.3,1-0.7,2.3-1.5,3.9V319.5z M358,310.3c1.6-1.6,2.6-3.6,3.2-5.7l1.4,0.2c-0.2,0.5-0.3,1-0.8,2.1h6.9v1.2h-5.4v2.6h5.1v1.2
			h-5.1v2.6h5.1v1.2h-5.1v3.6h-1.3v-11.3h-0.8c-1.1,2-1.9,2.8-2.4,3.3L358,310.3z"/>
		<path class="st2" d="M383.9,319.3c-3.2-1.1-4.5-2.1-6-3.4v3.7h-1.3v-3.6c-1.8,1.8-3.9,2.7-6,3.4l-0.7-1.2c3.1-0.9,4.4-1.7,5.7-2.8
			h-5.8v-1.1h6.7V313H371v-1h5.6v-1.1h-6v-1.1h3.4c-0.1-0.3-0.2-0.9-0.5-1.5h-3.7v-1.1h2.6c-0.3-0.7-0.4-0.9-1-2l1.3-0.4
			c0.5,0.9,0.8,1.5,1.1,2.5h1.3v-2.4h1.2v2.4h1.7v-2.4h1.2v2.4h1.3c0.1-0.3,0.7-1.3,1.1-2.5l1.3,0.4c-0.3,0.7-0.6,1.3-1,2h2.7v1.1
			h-3.7c-0.2,0.7-0.2,0.8-0.5,1.5h3.6v1.1h-6.1v1.1h5.7v1h-5.7v1.2h6.8v1.1h-5.8c1.9,1.6,3.6,2.3,5.8,2.8L383.9,319.3z M379.1,309.8
			c0.2-0.5,0.3-0.8,0.4-1.5h-4.7c0.1,0.4,0.4,1.2,0.5,1.5H379.1z"/>
		<path class="st2" d="M390.3,304.7v1.4h2.8v1.2h-2.8v1.7h3.2v1.2h-1c-0.1,0.7-0.4,1.8-0.6,2.2h1.4v1.2h-3v1.9h2.8v1.2h-2.8v2.9H389
			v-2.9h-2.8v-1.2h2.8v-1.9h-3v-1.2h1.5c-0.1-0.8-0.4-1.7-0.6-2.2h-1.1v-1.2h3.2v-1.7h-2.8V306h2.8v-1.4H390.3z M390.7,312.3
			c0.2-0.6,0.4-1.5,0.5-2.2h-3c0.2,0.7,0.4,1.6,0.5,2.2H390.7z M400.1,319.5c-0.5-0.4-1.1-0.9-2-2c-0.8,1-1.3,1.5-1.8,1.9l-0.8-1.1
			c0.5-0.4,1.1-0.9,1.8-1.9c-1.2-1.7-1.5-3-1.7-3.6l1.1-0.4c0.5,1.3,0.8,2,1.3,2.8c0.7-1.4,0.9-2.8,1-3.3h-3.8v7.5h-1.2v-14.3h6.2
			c0,1.8-0.2,3.6-0.4,4.1c-0.1,0.3-0.3,0.7-1.3,0.7h-1.8l-0.2-1.2l1.6,0c0.7,0,0.9-0.2,1-2.4h-3.7v4.5h5.2c-0.1,1.2-0.4,3.4-1.6,5.5
			c0.6,0.6,1.2,1.2,2.1,1.9L400.1,319.5z"/>
		<path class="st2" d="M408.8,306.9v-2.3h1.3v2.3h5.4v1.2h-5.4v2.6h6.6v1.2h-14.9v-1.2h7v-2.6h-3.6c-0.4,0.7-0.8,1.2-1.6,2.2
			l-1.2-0.8c1.6-1.4,2.4-3.2,3-4.8l1.2,0.3c-0.4,1.1-0.6,1.4-0.8,1.9H408.8z M415.1,319.2h-11.7v-5.7h11.7V319.2z M413.8,314.7h-9.1
			v3.3h9.1V314.7z"/>
		<path class="st2" d="M419.3,314.7c1,0.7,2.2,1.6,3.6,3.2l-1,1c-0.9-1.1-2-2.1-3.5-3.2L419.3,314.7z"/>
		<path class="st2" d="M437.5,306.2v-1.5h1.3v1.5h3.3v1.2H441c-0.1,1-0.4,2.2-0.8,3.4h2.2v1.2h-8.5v-1.2h2.1c-0.1-1-0.2-2.2-0.6-3.4
			h-1.3v-1.2H437.5z M441.7,319.2h-7v-6.1h7V319.2z M440.4,314.4h-4.4v3.8h4.4V314.4z M439,310.7c0.4-1.2,0.6-2.6,0.7-3.4h-3.1
			c0.3,1.2,0.5,2.1,0.6,3.4H439z M443,319.5v-14.4h5.5v1.1c-0.6,1.7-1.2,2.8-2,4.3c1.4,1.3,2.3,2.9,2.3,4.7c0,0.8-0.3,1.7-0.9,2.2
			c-0.4,0.4-0.9,0.5-1.7,0.5H445l-0.2-1.3l1.2,0c1,0,1.4-0.6,1.4-1.6c0-1.7-1-3.1-2.4-4.3c0.8-1.4,1.7-3.3,2-4.5h-2.7v13.3H443z"/>
		<path class="st2" d="M456.5,312.2v7h-6.1v-7H456.5z M451.6,313.4v4.6h3.7v-4.6H451.6z M462.7,305.2v5.6h-10.8v-5.6H462.7z
			 M453.2,306.3v3.2h8.2v-3.2H453.2z M464.2,312.2v7h-6.3v-7H464.2z M459.1,313.4v4.6h3.9v-4.6H459.1z"/>
		<path class="st2" d="M469.9,309.3c-1,0.5-3,1.2-3.9,1.4l-0.3-1.3c1.4-0.3,2.7-0.7,4-1.2L469.9,309.3z M471.3,317.9
			c-1.9,1.1-4.4,1.6-4.8,1.7l-0.6-1.2c1.6-0.2,3.5-0.7,4.7-1.4L471.3,317.9z M469.2,307.1c-1-0.6-2-1-2.7-1.2l0.5-1.1
			c0.9,0.3,1.9,0.7,2.8,1.2L469.2,307.1z M479,310.2v6.7h-11.4v-6.7H479z M468.9,311.2v1h8.8v-1H468.9z M468.9,313v1h8.8v-1H468.9z
			 M468.9,314.9v1h8.8v-1H468.9z M480.2,305.6v0.9c-0.4,0.8-1,1.4-1.3,1.7l-1.1-0.5c0.5-0.5,0.7-0.7,1-1.2h-2.9
			c0.6,0.9,1.8,2.3,4.9,2.7l-0.6,1.2c-1.9-0.5-3.8-1.4-4.9-3c-0.7,1.2-2.1,2.1-4.4,2.5l-0.5-1.1c1.7-0.2,3.5-0.8,4.1-2.3h-1.9
			c-1,0.9-1.5,1.2-1.8,1.4l-0.8-0.9c1-0.6,2.2-1.6,2.7-2.5l1.3,0.2c-0.2,0.3-0.3,0.5-0.6,0.8H480.2z M480.2,319.5
			c-3-0.6-4.4-1.3-5-1.7l0.8-0.9c1.4,0.7,2.8,1.1,4.8,1.3L480.2,319.5z"/>
		<path class="st2" d="M487.4,314.3c-0.9-1.1-1.5-2.4-1.6-2.6v7.8h-1.3v-7.9c-0.8,2.4-1.9,3.8-2.4,4.4l-0.6-1.4c1-1,2.3-3.3,2.9-5.6
			h-2.6v-1.2h2.7v-3.1h1.3v3.1h2.3v1.2h-2.3v0.9c0.4,0.8,1.2,2.2,2.4,3.3L487.4,314.3z M487.3,316c1.8-1.2,3.8-3.1,5.7-7h-4.3v-1.2
			h4.4v-3.1h1.3v3.1h2.2v1.2h-2.2v9.2c0,1.1-0.9,1.3-1.4,1.3h-2.4l-0.2-1.3l2.1,0c0.4,0,0.6,0,0.6-0.5v-6.5c-1.2,2.3-2.8,4.4-4.9,6
			L487.3,316z"/>
		<path class="st2" d="M506.1,317.6c3.4-1.1,4.5-3.5,4.5-5.5c0-1.2-0.4-4.4-4.5-4.9c-0.2,1.8-0.7,5.6-2.1,8.5
			c-1,2.2-1.9,2.2-2.3,2.2c-1.5,0-3.1-2.2-3.1-5.1c0-4,3-6.9,7-6.9c3.8,0,6.5,2.6,6.5,6.2c0,1.8-0.7,5.1-5.1,6.6L506.1,317.6z
			 M499.9,312.8c0,2.1,1,3.6,1.7,3.6c0.5,0,1-1,1.3-1.8c0.5-1.2,1.3-3.4,1.8-7.4C501.5,307.7,499.9,310.3,499.9,312.8z"/>
		<path class="st2" d="M528.5,306.6c-0.8,1-1.3,1.5-2.3,2.4c0.7,0.4,1.4,0.8,2.6,1.3l-0.6,1.2c-0.9-0.4-1.4-0.7-2.4-1.3v1h-2v2.3
			h4.4v1.2h-4.4v2.8c0,0.3,0.1,0.4,0.5,0.4h2.2c0.7,0,0.8-0.2,0.9-2l1.3,0.3c-0.2,2.3-0.3,3-1.7,3h-3.2c-0.4,0-1.2,0-1.2-1.1v-3.4
			h-2.8c-0.4,2.8-2.8,4.1-5.2,4.8l-0.6-1.3c2.8-0.4,4.3-2,4.5-3.5h-4.2v-1.2h4.2v-2.3h-1.8v-0.9c-0.5,0.3-1.1,0.6-2.3,1.2l-0.6-1.2
			c1.6-0.6,2.3-1,3-1.5c-0.7-0.6-1.2-1-2.1-1.6l0.9-0.8c1,0.6,2,1.5,2.2,1.7c0.8-0.6,1.3-1.1,2.1-1.9h-4.4v-1.1h6.5
			c0.4,0.7,0.8,1.1,1.2,1.6c0.9-0.8,1.4-1.2,2-2l1.1,0.6c-0.9,1-2,2-2.2,2.1c0.3,0.3,0.6,0.5,1.1,0.8c1.2-1,1.7-1.6,2.3-2.3
			L528.5,306.6z M525.6,310c-2-1.2-3.2-2.5-4.3-3.8c-0.5,0.6-1.7,2.2-4.2,3.8H525.6z M522.6,311.2h-2.8v2.3h2.8V311.2z"/>
		<path class="st2" d="M529.8,318.3c1.5-1.6,2.6-4.2,3.1-5.3l1.1,0.8c-0.9,2-1.9,4-3.3,5.7L529.8,318.3z M532.4,311.8
			c-0.9-0.8-1.5-1.2-2.6-1.7l0.7-1.1c0.9,0.4,1.9,1,2.6,1.6L532.4,311.8z M533.2,307.5c-0.4-0.3-1.1-1-2.7-1.8l0.7-1
			c0.8,0.4,2,1,2.7,1.7L533.2,307.5z M544.3,309.2h-4.4v3.4h3.9v1.2h-3.9v3.9h4.8v1.2h-11.3v-1.2h5.2v-3.9h-3.8v-1.2h3.8v-3.4h-4.4
			v-1.3h10.2V309.2z M540.2,307.6c-0.9-0.8-2.1-1.5-3.2-1.9l0.8-1c1,0.4,2.3,1,3.3,1.8L540.2,307.6z"/>
	</g>
</g>
<g>
	<g>
		<path class="st3" d="M670.4,50.4c0,3.9-3.2,7.1-7.1,7.1c-3.9,0-7.1-3.2-7.1-7.1c0-4,3.2-7.1,7.1-7.1
			C667.2,43.3,670.4,46.5,670.4,50.4z"/>
		<path class="st3" d="M686.5,45.5h-6.5v1.2h5.5v6.1h-5.5v1.2h6.8v1.2h-6.8v2.5h-1.3v-2.5h-6.8v-1.2h6.8v-1.2h-5.5v-6.1h5.5v-1.2
			h-6.6v-1.2h6.6V43h1.3v1.4h6.5V45.5z M678.6,47.9h-4.2v1.4h4.2V47.9z M678.6,50.2h-4.2v1.5h4.2V50.2z M684.1,47.9h-4.2v1.4h4.2
			V47.9z M684.1,50.2h-4.2v1.5h4.2V50.2z"/>
		<path class="st3" d="M702.7,43.6v1.2h-6.8v2h6.1v9.7c0,0.4-0.1,1.3-1.3,1.3h-2.6l-0.2-1.3l2.3,0c0.5,0,0.6-0.2,0.6-0.5v-8h-4.8
			v5.8h2.1v-4.4h1.2V55h-7.8v-5.6h1.2v4.4h2.1V48h-4.9v9.8h-1.3v-11h6.2v-2h-6.8v-1.2H702.7z"/>
		<path class="st3" d="M711,44.1v1.1h-2.5c0.2,0.4,0.4,0.9,0.5,1.3l-1.2,0.4c-0.1-0.5-0.4-1.3-0.6-1.7h-0.7c-0.5,0.6-1,1.4-1.8,1.9
			l-0.9-0.9c1.2-0.9,2.2-2.2,2.5-3.3l1.3,0.2c-0.1,0.3-0.2,0.5-0.4,1H711z M711.9,46.7v0.8h6.5v3h-1.2v-1.9h-11.7v1.9h-1.2v-3h6.4
			v-0.8h0.8l-0.9-0.7c0.4-0.4,1.5-1.3,2.1-3.1l1.2,0.2c-0.1,0.4-0.2,0.6-0.4,1h5.2v1.1h-3.4c0.2,0.3,0.5,1,0.7,1.4l-1.2,0.4
			c-0.3-0.7-0.5-1.2-0.8-1.8h-1.1c-0.4,0.6-0.7,1-1.2,1.5H711.9z M716.4,49.5v3.4h-9.1V54h10.2v3.6H706v-8.1H716.4z M707.3,50.5v1.4
			h7.8v-1.4H707.3z M707.3,54.9v1.6h8.9v-1.6H707.3z"/>
		<path class="st3" d="M725,54.8c-1.6,0.7-3.9,1.3-5.1,1.7l-0.2-1.3c0.6-0.1,1.4-0.4,2.2-0.6v-4.7H720v-1.2h1.8V45h-2v-1.2h5.1V45
			h-1.9v3.7h1.6v1.2h-1.6v4.3c0.8-0.3,1.3-0.5,1.9-0.7L725,54.8z M734.2,43.4V51h-3.7v1.8h3.9V54h-3.9v2.3h4.2v1.2h-10.2v-1.2h4.8
			V54h-3.8v-1.2h3.8V51h-3.7v-7.5H734.2z M729.2,44.6h-2.5v2.1h2.5V44.6z M729.2,47.7h-2.5v2.1h2.5V47.7z M733,44.6h-2.5v2.1h2.5
			V44.6z M733,47.7h-2.5v2.1h2.5V47.7z"/>
		<path class="st3" d="M741.4,50.7c-1.4-0.7-2.6-1.2-4.4-1.8l0.6-1.3c1.4,0.5,2.6,0.9,4.4,1.8L741.4,50.7z M750.2,48.4
			c-1.7,2.6-5.4,7.1-11.7,8.8l-0.6-1.5c2.5-0.5,7.2-2.3,11.3-8.5L750.2,48.4z M742.7,46.8c-1.7-0.8-2.9-1.3-4.4-1.8l0.6-1.3
			c1.6,0.6,2.7,1,4.4,1.8L742.7,46.8z"/>
		<path class="st3" d="M764.8,56.8c-0.7-1-2.2-2.9-4.6-4.8c-1.7,2-3.9,3.8-6.8,5l-0.8-1.2c5.7-2.6,8.1-6.3,9.4-9.7h-8.3v-1.4H764
			c-0.9,3-1.9,4.7-3,6.2c2.2,1.8,3.6,3.3,4.9,5L764.8,56.8z"/>
		<path class="st3" d="M770.2,56.1c4.4-1.5,4.5-4.3,4.6-6.4h-6.3v-1.4h13.4v1.4h-5.6c-0.1,2.6-0.4,5.8-5.1,7.6L770.2,56.1z
			 M780.1,44.4v1.4h-9.8v-1.4H780.1z"/>
		<path class="st3" d="M794.9,53.5c-0.5-0.9-1.1-1.9-2.3-3.6l1.2-0.7c1.3,1.7,2.8,3.9,4.1,7.2l-1.3,0.7c-0.3-0.8-0.7-1.6-1.1-2.3
			l-10.9,1.6l-0.3-1.4l2.2-0.3c1.1-2.7,2.5-5.9,4.1-10.9l1.4,0.5c-1.6,4.8-2.9,7.8-3.9,10.1L794.9,53.5z"/>
		<path class="st3" d="M803.5,44.3c-0.3,1-0.9,4-0.9,7.4c0,2.4,0.4,4.1,0.5,4.9l-1.4,0.2c-0.4-1.7-0.6-3.4-0.6-5.1
			c0-3.5,0.6-6.3,0.8-7.6L803.5,44.3z M813.6,55.8c-0.6,0.1-1.9,0.3-3.5,0.3c-2.3,0-4.8-0.3-4.8-2.6c0-0.8,0.3-1.5,0.8-2.2l1.2,0.3
			c-0.2,0.3-0.7,0.9-0.7,1.7c0,1.1,1.1,1.4,3.2,1.4c1.9,0,3.1-0.3,3.8-0.4L813.6,55.8z M805.9,45.6c0.8-0.1,2.4-0.3,4.5-0.3
			c1.2,0,2,0.1,2.6,0.1l0,1.4c-0.4,0-1.3-0.1-2.7-0.1c-2,0-3.5,0.2-4.4,0.3L805.9,45.6z"/>
		<path class="st3" d="M828.6,47.8c-0.8,0.1-2.4,0.3-4.6,0.4l0.1,3.8c2.6,0.6,4.6,1.8,5.9,2.6l-0.7,1.3c-1.4-1-3.1-1.9-5.2-2.5
			c0,1.8,0.1,3.8-3.4,3.8c-2.2,0-3.9-1-3.9-2.8c0-1.3,1-2.7,4.4-2.7c0.7,0,1.1,0.1,1.4,0.1l-0.2-8.2l1.4,0.1l0,3.2
			c0.7,0,2.4,0,4.7-0.5L828.6,47.8z M821,52.8c-1.9,0-2.9,0.6-2.9,1.5c0,1,1.3,1.5,2.5,1.5c2.1,0,2.1-0.9,2-2.8
			C822,52.9,821.5,52.8,821,52.8z"/>
		<path class="st3" d="M832.8,52.1l8.1-6.8c-2.4,0.3-4,0.4-6.2,0.4l-0.1-1.4c1.5,0,4.6,0,8-0.4l0.7,1.1c-1.6,1.2-3.2,2.4-5.3,4.1
			c0.6-0.3,1.5-0.6,2.9-0.6c2.7,0,4.5,1.6,4.5,4c0,3-2.6,4.7-5.6,4.7c-1.9,0-4.1-0.8-4.1-2.6c0-1.4,1.3-2.2,2.6-2.2
			c1.5,0,3.2,1,3.9,3c1.2-0.6,1.8-1.5,1.8-2.8c0-1.6-1.2-2.8-3.6-2.8c-2.9,0-4.7,1.6-6.7,3.4L832.8,52.1z M838.3,53.6
			c-0.9,0-1.3,0.4-1.3,1c0,0.9,1.5,1.4,2.7,1.4c0.6,0,1-0.1,1.2-0.2C840.4,54.3,839.4,53.6,838.3,53.6z"/>
		<path class="st3" d="M667.7,81.4c-0.6-0.7-1.5-1.7-3.1-3.1c-0.4,0.6-1.1,1.4-1.8,2.1c-1.4,1.5-3.1,2.7-4.9,3.7l-1-1.2
			c2.6-1.3,4.9-3.2,6.5-5.5c-1.9-1.5-3.2-2.2-4.3-2.8l0.7-1.1c1.1,0.6,2.5,1.4,4.4,2.8c0.7-1.1,1.6-2.8,2.2-5.5l1.5,0.4
			c-0.3,1.2-1,3.4-2.5,5.9c1,0.8,2.2,1.9,3.3,3.2L667.7,81.4z"/>
		<path class="st3" d="M678.2,75.2c-1.5-1-2.8-1.7-4.7-2.4l0.7-1.3c1.8,0.6,3.2,1.3,4.8,2.3L678.2,75.2z M686,75.5
			c-3.2,5.1-7.8,7.6-12,8.5l-0.5-1.5c5-1,9-3.9,11.6-8.4L686,75.5z"/>
		<path class="st3" d="M690.2,83.1c4.4-1.5,4.5-4.3,4.6-6.4h-6.3v-1.4h13.4v1.4h-5.6c-0.1,2.6-0.4,5.8-5.1,7.6L690.2,83.1z
			 M700.1,71.4v1.4h-9.8v-1.4H700.1z"/>
		<path class="st3" d="M718.1,74.5v1.4h-5.6c-0.1,3.2-0.7,6.3-5.4,8.4l-0.9-1.2c4.6-1.9,4.8-4.8,4.9-7.2h-6.5v-1.4h6.5v-3.8h1.5v3.8
			H718.1z"/>
		<path class="st3" d="M726.2,75.2c-1.5-1-2.8-1.7-4.7-2.4l0.7-1.3c1.8,0.6,3.2,1.3,4.8,2.3L726.2,75.2z M734,75.5
			c-3.2,5.1-7.8,7.6-12,8.5l-0.5-1.5c5-1,9-3.9,11.6-8.4L734,75.5z"/>
		<path class="st3" d="M748.8,83.8c-0.7-1-2.2-2.9-4.6-4.8c-1.7,2-3.9,3.8-6.8,5l-0.8-1.2c5.7-2.6,8.1-6.3,9.4-9.7h-8.3v-1.4H748
			c-0.9,3-1.9,4.7-3,6.2c2.2,1.8,3.6,3.3,4.9,5L748.8,83.8z"/>
		<path class="st3" d="M759,71.1v1.1h-2.5c0.2,0.4,0.4,0.9,0.5,1.3l-1.2,0.4c-0.1-0.5-0.4-1.3-0.6-1.7h-0.7c-0.5,0.6-1,1.4-1.8,1.9
			l-0.9-0.9c1.2-0.9,2.2-2.2,2.5-3.3l1.3,0.2c-0.1,0.3-0.2,0.5-0.4,1H759z M759.9,73.7v0.8h6.5v3h-1.2v-1.9h-11.7v1.9h-1.2v-3h6.4
			v-0.8h0.8l-0.9-0.7c0.4-0.4,1.5-1.3,2.1-3.1l1.2,0.2c-0.1,0.4-0.2,0.6-0.4,1h5.2v1.1h-3.4c0.2,0.3,0.5,1,0.7,1.4l-1.2,0.4
			c-0.3-0.7-0.5-1.2-0.8-1.8h-1.1c-0.4,0.6-0.7,1-1.2,1.5H759.9z M764.4,76.5v3.4h-9.1V81h10.2v3.6H754v-8.1H764.4z M755.3,77.5v1.4
			h7.8v-1.4H755.3z M755.3,81.9v1.6h8.9v-1.6H755.3z"/>
		<path class="st3" d="M773,81.8c-1.6,0.7-3.9,1.3-5.1,1.7l-0.2-1.3c0.6-0.1,1.4-0.4,2.2-0.6v-4.7H768v-1.2h1.8V72h-2v-1.2h5.1V72
			h-1.9v3.7h1.6v1.2h-1.6v4.3c0.8-0.3,1.3-0.5,1.9-0.7L773,81.8z M782.2,70.4V78h-3.7v1.8h3.9V81h-3.9v2.3h4.2v1.2h-10.2v-1.2h4.8
			V81h-3.8v-1.2h3.8V78h-3.7v-7.5H782.2z M777.2,71.6h-2.5v2.1h2.5V71.6z M777.2,74.7h-2.5v2.1h2.5V74.7z M781,71.6h-2.5v2.1h2.5
			V71.6z M781,74.7h-2.5v2.1h2.5V74.7z"/>
	</g>
</g>
<g>
	<g>
		<path class="st3" d="M670.4,104.5c0,3.9-3.2,7.1-7.1,7.1c-3.9,0-7.1-3.2-7.1-7.1c0-4,3.2-7.1,7.1-7.1
			C667.2,97.3,670.4,100.5,670.4,104.5z"/>
		<path class="st3" d="M684.9,110.3c0,0.8-0.3,1.5-1.5,1.5h-2.9l-0.2-1.4l2.8,0c0.4,0,0.5-0.2,0.5-0.5v-3.5h-8.4
			c-0.2,2.5-1.1,4.3-2.1,5.4l-1.2-0.9c0.8-0.9,2-2.5,2-6.3v-7.1h11.1V110.3z M675.2,98.8v2.5h8.3v-2.5H675.2z M675.2,102.6v2.7h8.3
			v-2.7H675.2z"/>
		<path class="st3" d="M687.6,109.9c1.1-1.4,2-2.9,2.8-5.1l1.1,0.7c-0.6,1.5-1.8,4-3,5.6L687.6,109.9z M688.7,97.7
			c0.9,0.4,2.2,1.3,3.1,2.3l-0.9,1.1c-0.8-0.8-2.1-1.8-3-2.3L688.7,97.7z M697.5,101.7v1.4c0,4.1,3,6.4,5.3,7.5l-0.8,1.3
			c-1.7-0.7-3.9-2.3-5.1-5.6c-0.3,1-1.3,4.2-5.9,5.6l-0.8-1.4c2.2-0.5,5.8-1.8,5.8-7.2v-1.6H697.5z M691.1,103.2
			c0.7-0.6,2.4-2.1,3.4-6.2l1.4,0.2c-0.2,1-0.5,1.6-0.8,2.4h7.3v1.2c-0.3,1.2-1.2,2.9-2,3.9l-1.2-0.7c0.7-0.8,1.5-2.1,1.8-3.2h-6.4
			c-0.4,0.9-1.2,2.4-2.4,3.3L691.1,103.2z"/>
		<path class="st3" d="M707.2,111.9h-1.3v-8.6c-0.7,0.9-1.2,1.3-1.6,1.7l-0.7-1.3c2.5-2.5,3.4-5.3,3.7-6.7l1.3,0.2
			c-0.3,1-0.7,2.3-1.5,3.9V111.9z M707.9,102.7c1.6-1.6,2.6-3.6,3.2-5.7l1.4,0.2c-0.2,0.5-0.3,1-0.8,2.1h6.9v1.2h-5.4v2.6h5.1v1.2
			h-5.1v2.6h5.1v1.2h-5.1v3.6h-1.3v-11.3h-0.8c-1.1,2-1.9,2.8-2.4,3.3L707.9,102.7z"/>
		<path class="st3" d="M733.9,111.6c-3.2-1.1-4.5-2.1-6-3.4v3.7h-1.3v-3.6c-1.8,1.8-3.9,2.7-6,3.4l-0.7-1.2c3.1-0.9,4.4-1.7,5.7-2.8
			h-5.8v-1.1h6.7v-1.2H721v-1h5.6v-1.1h-6v-1.1h3.4c-0.1-0.3-0.2-0.9-0.5-1.5h-3.7v-1.1h2.6c-0.3-0.7-0.4-0.9-1-2l1.3-0.4
			c0.5,0.9,0.8,1.5,1.1,2.5h1.3v-2.4h1.2v2.4h1.7v-2.4h1.2v2.4h1.3c0.1-0.3,0.7-1.3,1.1-2.5l1.3,0.4c-0.3,0.7-0.6,1.3-1,2h2.7v1.1
			h-3.7c-0.2,0.7-0.2,0.8-0.5,1.5h3.6v1.1h-6.1v1.1h5.7v1h-5.7v1.2h6.8v1.1h-5.8c1.9,1.6,3.6,2.3,5.8,2.8L733.9,111.6z M729.1,102.1
			c0.2-0.5,0.3-0.8,0.4-1.5h-4.7c0.1,0.4,0.4,1.2,0.5,1.5H729.1z"/>
		<path class="st3" d="M740.3,97v1.4h2.8v1.2h-2.8v1.7h3.2v1.2h-1c-0.1,0.7-0.4,1.8-0.6,2.2h1.4v1.2h-3v1.9h2.8v1.2h-2.8v2.9H739
			v-2.9h-2.8v-1.2h2.8v-1.9h-3v-1.2h1.5c-0.1-0.8-0.4-1.7-0.6-2.2h-1.1v-1.2h3.2v-1.7h-2.8v-1.2h2.8V97H740.3z M740.7,104.7
			c0.2-0.6,0.4-1.5,0.5-2.2h-3c0.2,0.7,0.4,1.6,0.5,2.2H740.7z M750.1,111.9c-0.5-0.4-1.1-0.9-2-2c-0.8,1-1.3,1.5-1.8,1.9l-0.8-1.1
			c0.5-0.4,1.1-0.9,1.8-1.9c-1.2-1.7-1.5-3-1.7-3.6l1.1-0.4c0.5,1.3,0.8,2,1.3,2.8c0.7-1.4,0.9-2.8,1-3.3h-3.8v7.5h-1.2V97.5h6.2
			c0,1.8-0.2,3.6-0.4,4.1c-0.1,0.3-0.3,0.7-1.3,0.7h-1.8l-0.2-1.2l1.6,0c0.7,0,0.9-0.2,1-2.4h-3.7v4.5h5.2c-0.1,1.2-0.4,3.4-1.6,5.5
			c0.6,0.6,1.2,1.2,2.1,1.9L750.1,111.9z"/>
		<path class="st3" d="M758.8,99.3V97h1.3v2.3h5.4v1.2h-5.4v2.6h6.6v1.2h-14.9v-1.2h7v-2.6h-3.6c-0.4,0.7-0.8,1.2-1.6,2.2l-1.2-0.8
			c1.6-1.4,2.4-3.2,3-4.8l1.2,0.3c-0.4,1.1-0.6,1.4-0.8,1.9H758.8z M765.1,111.6h-11.7v-5.7h11.7V111.6z M763.8,107h-9.1v3.3h9.1
			V107z"/>
		<path class="st3" d="M769.3,107.1c1,0.7,2.2,1.6,3.6,3.2l-1,1c-0.9-1.1-2-2.1-3.5-3.2L769.3,107.1z"/>
		<path class="st3" d="M798.5,99.6h-6.5v1.2h5.5v6.1h-5.5v1.2h6.8v1.2h-6.8v2.5h-1.3v-2.5h-6.8v-1.2h6.8v-1.2h-5.5v-6.1h5.5v-1.2
			h-6.6v-1.2h6.6V97h1.3v1.4h6.5V99.6z M790.6,101.9h-4.2v1.4h4.2V101.9z M790.6,104.3h-4.2v1.5h4.2V104.3z M796.1,101.9h-4.2v1.4
			h4.2V101.9z M796.1,104.3h-4.2v1.5h4.2V104.3z"/>
		<path class="st3" d="M814.7,97.6v1.2h-6.8v2h6.1v9.7c0,0.4-0.1,1.3-1.3,1.3h-2.6l-0.2-1.3l2.3,0c0.5,0,0.6-0.2,0.6-0.5v-8h-4.8
			v5.8h2.1v-4.4h1.2v5.6h-7.8v-5.6h1.2v4.4h2.1V102h-4.9v9.8h-1.3v-11h6.2v-2h-6.8v-1.2H814.7z"/>
		<path class="st3" d="M817.2,100.3c0,0.5,0,2.8-0.6,4.5l-1.1-0.5c0.5-1.2,0.6-3,0.6-4L817.2,100.3z M819.1,97v14.9h-1.3V97H819.1z
			 M820,102.1c-0.2-0.8-0.6-1.7-0.7-2l1-0.4c0.1,0.2,0.5,1.1,0.8,1.9L820,102.1z M826.3,100.1h3.7v1h-3.7v1.1h4.4v1h-10.1v-1h4.4
			v-1.1h-3.6v-1h3.6v-1.1h-4v-1h4v-1h1.3v1h4.1v1h-4.1V100.1z M829.9,110.4c0,1.1-0.2,1.5-1.5,1.5h-1.7l-0.3-1.2h1.8
			c0.4,0,0.4-0.3,0.4-0.5V109h-6v2.9h-1.3v-7.8h8.5V110.4z M828.7,105.1h-6v1h6V105.1z M828.7,107h-6v1h6V107z"/>
		<path class="st3" d="M836.3,97v1.4h2.8v1.2h-2.8v1.7h3.2v1.2h-1c-0.1,0.7-0.4,1.8-0.6,2.2h1.4v1.2h-3v1.9h2.8v1.2h-2.8v2.9H835
			v-2.9h-2.8v-1.2h2.8v-1.9h-3v-1.2h1.5c-0.1-0.8-0.4-1.7-0.6-2.2h-1.1v-1.2h3.2v-1.7h-2.8v-1.2h2.8V97H836.3z M836.7,104.7
			c0.2-0.6,0.4-1.5,0.5-2.2h-3c0.2,0.7,0.4,1.6,0.5,2.2H836.7z M846.1,111.9c-0.5-0.4-1.1-0.9-2-2c-0.8,1-1.3,1.5-1.8,1.9l-0.8-1.1
			c0.5-0.4,1.1-0.9,1.8-1.9c-1.2-1.7-1.5-3-1.7-3.6l1.1-0.4c0.5,1.3,0.8,2,1.3,2.8c0.7-1.4,0.9-2.8,1-3.3h-3.8v7.5h-1.2V97.5h6.2
			c0,1.8-0.2,3.6-0.4,4.1c-0.1,0.3-0.3,0.7-1.3,0.7h-1.8l-0.2-1.2l1.6,0c0.7,0,0.9-0.2,1-2.4h-3.7v4.5h5.2c-0.1,1.2-0.4,3.4-1.6,5.5
			c0.6,0.6,1.2,1.2,2.1,1.9L846.1,111.9z"/>
		<path class="st3" d="M856.1,109.9c3.4-1.1,4.5-3.5,4.5-5.5c0-1.2-0.4-4.4-4.5-4.9c-0.2,1.8-0.7,5.6-2.1,8.5
			c-1,2.2-1.9,2.2-2.3,2.2c-1.5,0-3.1-2.2-3.1-5.1c0-4,3-6.9,7-6.9c3.8,0,6.5,2.6,6.5,6.2c0,1.8-0.7,5.1-5.1,6.6L856.1,109.9z
			 M849.9,105.2c0,2.1,1,3.6,1.7,3.6c0.5,0,1-1,1.3-1.8c0.5-1.2,1.3-3.4,1.8-7.4C851.4,100,849.9,102.7,849.9,105.2z"/>
		<path class="st3" d="M660.6,132.1c-0.4,0.3-2,1.3-2,2.3c0,1.6,3.3,1.8,5.2,1.8c1.8,0,3.5-0.2,5.3-0.5l0.1,1.5
			c-1.8,0.3-3.5,0.4-5.3,0.4c-1.8,0-6.8-0.1-6.8-3c0-0.7,0.2-1.7,2.5-3.4L660.6,132.1z M666.2,127.6c-0.6-0.1-2-0.3-4-0.3
			c-1.7,0-2.9,0.1-3.8,0.2l0.1-1.5c0.8-0.1,2-0.2,3.7-0.2c1.5,0,2.9,0.1,4.3,0.3L666.2,127.6z M667.4,124c0.7,1,1.1,1.8,1.6,3
			l-1.1,0.6c-0.5-1.3-0.8-2-1.5-3.1L667.4,124z M669.8,123.3c0.7,0.9,1,1.7,1.6,3l-1.1,0.6c-0.4-1.3-0.8-2-1.5-3.1L669.8,123.3z"/>
		<path class="st3" d="M676.8,132.4c-0.4,0.2-0.6,0.3-1.6,0.7v4.5c0,0.8-0.5,1.3-1.4,1.3h-1.6l-0.2-1.4l1.4,0c0.2,0,0.5,0,0.5-0.4
			v-3.6c-1.3,0.4-1.5,0.5-2,0.6l-0.2-1.4c0.8-0.2,1.3-0.3,2.2-0.6v-4h-2.1V127h2.1v-3h1.3v3h1.8v1.2h-1.8v3.5
			c0.5-0.2,0.6-0.2,1.5-0.6L676.8,132.4z M675.9,138c0.5-0.4,1.9-1.7,2.2-5.3l1.2,0.2c-0.1,1-0.2,1.4-0.3,2c0.1,0.3,0.8,1.7,2.1,2.2
			v-5.2h-3.9v-1.2h9.4v1.2h-4.3v1.9h3.7v1.1h-3.7v2.5c0.1,0,0.2,0,0.4,0h4.1l-0.3,1.2h-3.5c-0.9,0-3.2,0-4.5-2.4
			c-0.5,1.4-1.3,2.2-1.7,2.6L675.9,138z M685.9,129.6h-8.4v-5.3h8.4V129.6z M684.7,125.4h-5.9v1.1h5.9V125.4z M684.7,127.4h-5.9v1.2
			h5.9V127.4z"/>
		<path class="st3" d="M690.7,138.9h-1.3v-8.1c-0.5,0.8-0.8,1.1-1.1,1.5l-0.7-1.5c1.8-2.1,2.6-4.4,3.1-6.8l1.3,0.2
			c-0.1,0.7-0.4,2.1-1.2,4V138.9z M691.2,137.8c1.4-0.8,2.7-2.2,3.5-3.5l1.2,0.5c-1.1,1.8-2.5,3.1-3.7,4L691.2,137.8z M695.3,124v3
			h3.3v-3h1.3v3h2.4v1.3H700v3.9h2.7v1.3h-11.2v-1.3h2.5v-3.9h-2.3V127h2.3v-3H695.3z M698.7,128.3h-3.3v3.9h3.3V128.3z
			 M699.3,134.3c0.9,1.3,2.3,2.6,3.5,3.5l-0.9,1.1c-1.2-0.9-2.8-2.5-3.7-3.9L699.3,134.3z"/>
	</g>
</g>
<g>
	<g>
		<path class="st2" d="M66.4,125.4c0,3.9-3.2,7.1-7.1,7.1c-3.9,0-7.1-3.2-7.1-7.1c0-4,3.2-7.1,7.1-7.1
			C63.2,118.3,66.4,121.4,66.4,125.4z"/>
		<path class="st2" d="M75.1,124h6.8v1.4h-6.8v3.5c0,1.1,0.4,1.4,2.4,1.4c1.3,0,2.5-0.1,3.5-0.2l-0.1,1.4c-1.3,0.1-2.3,0.1-3,0.1
			c-3,0-4.3-0.4-4.3-2.6v-3.7h-5V124h5v-3h-4v-1.4h11.1v1.4h-5.7V124z"/>
		<path class="st2" d="M98,129.1v1.4H84.5v-1.4H98z M96.8,120.3v1.4h-11v-1.4H96.8z"/>
		<path class="st2" d="M102.5,131.1c3.6-1.1,5.2-2.8,6.3-4c-0.9-0.7-2.5-1.8-5.2-3.2c-0.6,0.6-0.9,0.9-1.9,1.7l-1.1-1
			c1.8-1.4,3.3-3.1,4.3-5.2h8.3c-1.1,9.8-8.3,12.2-9.9,12.8L102.5,131.1z M105.9,120.8c-0.4,0.7-0.7,1.2-1.4,2
			c1.9,1,3.1,1.6,5.2,3.1c0.8-1.2,1.5-2.8,2-5.1H105.9z"/>
		<path class="st2" d="M120,119.1v8.2h-1.5v-8.2H120z M128.1,118.8v5.1c0,3.4-0.6,6.6-6,8.3l-0.7-1.3c4.9-1.3,5.3-4.3,5.3-7.1v-5
			H128.1z"/>
		<path class="st2" d="M138.2,123.1c-1.5-1-2.8-1.7-4.7-2.4l0.7-1.3c1.8,0.6,3.2,1.3,4.8,2.3L138.2,123.1z M146,123.5
			c-3.2,5.1-7.8,7.6-12,8.5l-0.5-1.5c5-1,9-3.9,11.6-8.4L146,123.5z"/>
		<path class="st2" d="M158.5,119.7l1.4,1.9c-0.6,2.3-2.3,8.2-8.7,10.9l-1-1.2c2.2-0.8,4.1-2.2,5.5-4c1.8-2.3,2.5-4.8,2.9-6.3h-5.5
			c-1.4,2.4-2.8,3.7-3.8,4.6l-1.1-1c0.9-0.7,2.8-2.3,4-4.9H158.5z M159.5,117.9c0.8,1,1.1,1.6,1.8,2.9l-1,0.7c-0.6-1.2-1-1.9-1.7-3
			L159.5,117.9z M161.7,117.3c0.8,1,1.1,1.6,1.8,2.9l-1,0.7c-0.5-1.2-0.9-1.9-1.7-3L161.7,117.3z"/>
		<path class="st2" d="M167.3,119.1h1.4v3.2h5v-3.6h1.4v3.6h2.8v1.4h-2.8v1.2c0,2.5-0.3,5.6-4.5,7.4l-1-1.1c3.8-1.5,4.1-3.9,4.1-6.3
			v-1.2h-5v4.2h-1.4v-4.2h-2.8v-1.4h2.8V119.1z"/>
		<path class="st2" d="M194,124.7v1.4h-13.3v-1.4H194z"/>
		<path class="st2" d="M199.4,123.9c0.9-0.2,3.8-0.8,7.4-2.5l0.7,1.2c-2.7,1.2-4.9,2-8.1,2.7v3.1c0,1.7,0.4,1.8,5.2,1.8
			c2,0,3.7-0.1,4.7-0.2v1.4c-1.2,0.1-2.6,0.1-4.7,0.1c-4.8,0-6.7,0-6.7-3.1v-9.7h1.5V123.9z M207.4,118.2c0.8,1,1.2,1.8,1.7,3
			l-1.1,0.7c-0.5-1.2-0.9-2-1.7-3L207.4,118.2z M209.7,117.3c0.3,0.4,0.9,1.2,1.7,3l-1.1,0.7c-0.5-1.3-0.8-1.9-1.6-3L209.7,117.3z"
			/>
		<path class="st2" d="M224.8,131.7c-0.7-1-2.2-2.9-4.6-4.8c-1.7,2-3.9,3.8-6.8,5l-0.8-1.2c5.7-2.6,8.1-6.3,9.4-9.7h-8.3v-1.4h10.4
			c-0.9,3-1.9,4.7-3,6.2c2.2,1.8,3.6,3.3,4.9,5L224.8,131.7z"/>
		<path class="st2" d="M236.1,130.8c3.4-1.1,4.5-3.5,4.5-5.5c0-1.2-0.4-4.4-4.5-4.9c-0.2,1.8-0.7,5.6-2.1,8.5
			c-1,2.2-1.9,2.2-2.3,2.2c-1.5,0-3.1-2.2-3.1-5.1c0-4,3-6.9,7-6.9c3.8,0,6.5,2.6,6.5,6.2c0,1.8-0.7,5.1-5.1,6.6L236.1,130.8z
			 M229.9,126.1c0,2.1,1,3.6,1.7,3.6c0.5,0,1-1,1.3-1.8c0.5-1.2,1.3-3.4,1.8-7.4C231.5,121,229.9,123.6,229.9,126.1z"/>
		<path class="st2" d="M56.7,153c-0.4,0.3-2,1.3-2,2.3c0,1.6,3.3,1.8,5.2,1.8c1.8,0,3.5-0.2,5.2-0.5l0.1,1.5
			c-1.8,0.3-3.5,0.4-5.2,0.4c-1.8,0-6.8-0.1-6.8-3c0-0.7,0.2-1.7,2.5-3.4L56.7,153z M62.3,148.6c-0.6-0.1-2-0.3-4-0.3
			c-1.7,0-2.9,0.1-3.8,0.2l0.1-1.5c0.8-0.1,2-0.2,3.7-0.2c1.5,0,2.9,0.1,4.3,0.3L62.3,148.6z M63.4,144.9c0.7,1,1.1,1.8,1.6,3
			l-1.1,0.6c-0.5-1.3-0.8-2-1.5-3.1L63.4,144.9z M65.8,144.3c0.7,0.9,1,1.7,1.6,3l-1.1,0.6c-0.4-1.3-0.8-2-1.5-3.1L65.8,144.3z"/>
		<path class="st2" d="M72.8,153.3c-0.4,0.2-0.6,0.3-1.6,0.7v4.5c0,0.8-0.5,1.3-1.4,1.3h-1.6l-0.2-1.4l1.4,0c0.2,0,0.5,0,0.5-0.4
			v-3.6c-1.3,0.4-1.5,0.5-2,0.6l-0.2-1.4c0.8-0.2,1.3-0.3,2.2-0.6v-4h-2.1v-1.2h2.1v-3h1.3v3H73v1.2h-1.8v3.5
			c0.5-0.2,0.6-0.2,1.5-0.6L72.8,153.3z M71.9,158.9c0.5-0.4,1.9-1.7,2.2-5.3l1.2,0.2c-0.1,1-0.2,1.4-0.3,2c0.1,0.3,0.8,1.7,2.1,2.2
			v-5.2h-3.9v-1.2h9.4v1.2h-4.3v1.9h3.7v1.1h-3.7v2.5c0.1,0,0.2,0,0.4,0h4.1l-0.3,1.2h-3.5c-0.9,0-3.2,0-4.5-2.4
			c-0.5,1.4-1.3,2.2-1.7,2.6L71.9,158.9z M82,150.6h-8.4v-5.3H82V150.6z M80.7,146.4h-5.9v1.1h5.9V146.4z M80.7,148.4h-5.9v1.2h5.9
			V148.4z"/>
		<path class="st2" d="M86.7,159.8h-1.3v-8.1c-0.5,0.8-0.8,1.1-1.1,1.5l-0.7-1.5c1.8-2.1,2.6-4.4,3.1-6.8l1.3,0.2
			c-0.1,0.7-0.4,2.1-1.2,4V159.8z M87.3,158.7c1.4-0.8,2.7-2.2,3.5-3.5l1.2,0.5c-1.1,1.8-2.5,3.1-3.7,4L87.3,158.7z M91.4,145v3h3.3
			v-3H96v3h2.4v1.3H96v3.9h2.7v1.3H87.5v-1.3H90v-3.9h-2.3V148H90v-3H91.4z M94.7,149.3h-3.3v3.9h3.3V149.3z M95.4,155.3
			c0.9,1.3,2.3,2.6,3.5,3.5l-0.9,1.1c-1.2-0.9-2.8-2.5-3.7-3.9L95.4,155.3z"/>
	</g>
</g>
<g>
	<g>
		<path class="st0" d="M230.5,243.1c0,3.9-3.2,7.1-7.1,7.1c-3.9,0-7.1-3.2-7.1-7.1c0-4,3.2-7.1,7.1-7.1
			C227.3,236,230.5,239.1,230.5,243.1z"/>
		<path class="st0" d="M234.7,250.5h-1.3v-8.1c-0.5,0.8-0.7,1.1-1.1,1.5l-0.6-1.5c2-2.7,2.5-6,2.7-6.9l1.3,0.2
			c-0.1,0.6-0.4,1.9-1,3.8V250.5z M235.9,238h1.2v10.4h-1.2V238z M246.4,243.7c-1.9-0.4-3.2-1-4.2-1.7c-1.7,1.1-3.5,1.5-4.3,1.7
			l-0.6-1.2c0.9-0.1,2.3-0.4,3.9-1.3c-1.1-0.9-1.6-1.7-1.8-2c-0.5,0.6-0.9,0.9-1.2,1.2l-0.9-0.9c1.3-1,2.3-2.6,2.8-3.9l1.2,0.2
			c-0.1,0.4-0.3,0.8-0.5,1.2h6v1.1h-1.3c-0.3,0.8-0.9,1.9-2.2,3.1c1.6,0.8,3,1.1,3.7,1.2L246.4,243.7z M237.6,249.3
			c3.7-0.3,6.6-1.7,8.3-3.3l0.9,0.8c-2.1,2.1-5.4,3.3-8.7,3.6L237.6,249.3z M237.8,244.8c0.9-0.2,3.1-0.7,4.7-1.8l0.9,0.8
			c-1.3,1-3.7,1.8-5.1,2.1L237.8,244.8z M237.9,247.1c2.8-0.4,5.1-1.6,6.3-2.5l0.9,0.8c-1.7,1.6-4.7,2.6-6.7,2.9L237.9,247.1z
			 M240.1,238.3c0.2,0.4,0.8,1.3,2.1,2.3c1.2-0.9,1.7-1.9,2-2.4h-4L240.1,238.3z"/>
		<path class="st0" d="M253.1,247.5c-1.6,0.7-3.9,1.3-5.1,1.7l-0.2-1.3c0.6-0.1,1.4-0.4,2.2-0.6v-4.7h-1.8v-1.2h1.8v-3.7h-2v-1.2
			h5.1v1.2h-1.9v3.7h1.6v1.2h-1.6v4.3c0.8-0.3,1.3-0.5,1.9-0.7L253.1,247.5z M262.3,236.1v7.5h-3.7v1.8h3.9v1.2h-3.9v2.3h4.2v1.2
			h-10.2v-1.2h4.8v-2.3h-3.8v-1.2h3.8v-1.8h-3.7v-7.5H262.3z M257.4,237.2h-2.5v2.1h2.5V237.2z M257.4,240.4h-2.5v2.1h2.5V240.4z
			 M261.1,237.2h-2.5v2.1h2.5V237.2z M261.1,240.4h-2.5v2.1h2.5V240.4z"/>
		<path class="st0" d="M265.4,245.7c1,0.7,2.2,1.6,3.6,3.2l-1,1c-0.9-1.1-2-2.1-3.5-3.2L265.4,245.7z"/>
		<path class="st0" d="M279.7,249.7c1-1.1,1.5-2,2-3.5l1.2,0.4c-0.2,0.6-0.9,2.5-2.2,3.9L279.7,249.7z M294.6,238.3h-7.1v1.7h5.9
			v5.6h-12.3v-5.6h5v-4.4h1.3v1.5h7.1V238.3z M292.2,241.3h-9.6v3.2h9.6V241.3z M284.7,250.4c0-0.4,0.1-0.7,0.1-1.4
			c0-1.1-0.1-1.9-0.2-2.4l1.2,0c0.1,0.9,0.2,2,0.2,2.9c0,0.4,0,0.6,0,0.9L284.7,250.4z M288.9,250.4c-0.2-1.5-0.5-2.4-0.9-3.7
			l1.2-0.1c0.5,1.4,0.7,2.1,1,3.6L288.9,250.4z M293.7,250.6c-0.6-1.5-1.2-2.4-2.2-3.8l1.1-0.5c1,1.3,1.5,2.1,2.2,3.7L293.7,250.6z"
			/>
		<path class="st0" d="M300.8,244.9c-0.6-0.9-1-1.5-1.4-2.4v8h-1.3v-7.7c-0.4,1.5-1,2.9-2,4.2l-0.6-1.6c0.6-0.8,1.6-2,2.4-5.4H296
			v-1.2h2.2v-3.1h1.3v3.1h1.4v1.2h-1.4v0.6c0.2,0.6,0.8,1.8,2,3.2L300.8,244.9z M300.9,249.4c0.7-0.2,3.4-0.9,4.1-3.4h-3.2v-4.4h3.6
			v-1.5h-2.1v-0.6c-0.7,0.5-1.2,0.8-1.6,1l-0.6-1.2c1.9-1,3-2,4.2-3.7h1.6c0.6,1.1,1.6,2.3,4.3,3.7l-0.7,1.2c-0.7-0.4-1.1-0.6-1.5-1
			v0.6h-2.2v1.5h3.6v4.4h-3.1c1,2.3,2.8,2.9,3.9,3.3l-0.6,1.2c-2.7-0.9-3.9-2.9-4.3-3.9c-1.1,2.8-3.5,3.6-4.6,4L300.9,249.4z
			 M305.4,242.7H303v2.2h2.2c0.1-0.4,0.1-0.9,0.1-1.8V242.7z M308.2,239c-1-0.8-1.8-1.9-2.2-2.4c-0.4,0.5-1.2,1.6-2.1,2.4H308.2z
			 M306.6,243c0,1,0,1.4-0.1,1.9h2.5v-2.2h-2.4V243z"/>
		<path class="st0" d="M318.4,243.6c-0.5-0.3-1.2-0.7-1.9-1.6v2.1h-1.1V242c-0.3,0.3-1.4,1.3-3.1,2.1l-0.6-1c1.7-0.6,2.6-1.4,3-1.7
			h-2.3v-3h3v-0.8h-3.5v-1h3.5v-0.8h1.1v0.8h3.6v1h-3.6v0.8h3v3h-2.4c0.3,0.2,1,0.8,2,1.3L318.4,243.6z M325.2,247.7h-5.2v1.2h6.7
			v1.1H312v-1.1h2.5v-2.6h1.3v2.6h2.9v-3.3h-6.1v-1.1H326v1.1h-5.9v1.1h5.2V247.7z M315.4,239.2h-1.9v1.2h1.9V239.2z M318.4,239.2
			h-1.9v1.2h1.9V239.2z M326.8,237v1.1H326c-0.1,0.5-0.5,2.2-1.6,3.4c0.9,0.7,2.1,1.1,2.7,1.3l-0.7,1.2c-0.5-0.2-1.8-0.7-2.9-1.6
			c-1.3,1-2.6,1.4-3.4,1.7l-0.7-1.1c0.8-0.2,1.9-0.5,3.2-1.5c-0.5-0.7-1-1.5-1.4-2.3c-0.3,0.4-0.5,0.6-0.8,0.8l-0.8-1
			c1.2-0.9,1.9-1.9,2.5-3.5l1.2,0.2c-0.2,0.5-0.3,0.8-0.5,1.2H326.8z M322.1,238.2L322.1,238.2c0.4,1.4,1,2.2,1.4,2.6
			c0.9-1,1.2-2,1.3-2.6H322.1z"/>
		<path class="st0" d="M330.6,250.5h-1.3v-8.1c-0.5,0.8-0.7,1-1,1.4l-0.7-1.5c1.5-1.6,2.3-4.5,2.6-6.7l1.3,0.2
			c-0.1,0.6-0.2,1.9-1,3.9V250.5z M335.7,235.7v1.3h2.9v-1.3h1.3v1.3h2.5v1.1h-2.5v1.5h2.8v1.1h-9.3v3.5c0,4-1.2,5.7-1.6,6.3l-1-1
			c0.8-1.1,1.3-2.7,1.3-5.3v-3.6h-0.7v-1.1h2.9V238H332v-1.1h2.5v-1.3H335.7z M342.2,249.4c0,0.7-0.3,1.1-1.2,1.1h-1.4l-0.2-1.2
			l1.1,0c0.2,0,0.5,0,0.5-0.4v-1.6h-2.3v3.2h-1.1v-3.2h-2.2v3.2h-1.2v-8.9h8V249.4z M337.7,242.7h-2.2v1.3h2.2V242.7z M337.7,244.9
			h-2.2v1.3h2.2V244.9z M338.6,238h-2.9v1.5h2.9V238z M341,242.7h-2.3v1.3h2.3V242.7z M341,244.9h-2.3v1.3h2.3V244.9z"/>
		<path class="st0" d="M352.2,248.5c3.4-1.1,4.5-3.5,4.5-5.5c0-1.2-0.4-4.4-4.5-4.9c-0.2,1.8-0.7,5.6-2.1,8.5
			c-1,2.2-1.9,2.2-2.3,2.2c-1.5,0-3.1-2.2-3.1-5.1c0-4,3-6.9,7-6.9c3.8,0,6.5,2.6,6.5,6.2c0,1.8-0.7,5.1-5.1,6.6L352.2,248.5z
			 M346,243.8c0,2.1,1,3.6,1.7,3.6c0.5,0,1-1,1.3-1.8c0.5-1.2,1.3-3.4,1.8-7.4C347.5,238.7,346,241.3,346,243.8z"/>
		<path class="st0" d="M364.7,243.7c-0.4,0.3-2,1.3-2,2.3c0,1.6,3.3,1.8,5.2,1.8c1.8,0,3.5-0.2,5.3-0.5l0.1,1.5
			c-1.8,0.3-3.5,0.4-5.3,0.4c-1.8,0-6.8-0.1-6.8-3c0-0.7,0.2-1.7,2.5-3.4L364.7,243.7z M370.3,239.2c-0.6-0.1-2-0.3-4-0.3
			c-1.7,0-2.9,0.1-3.8,0.2l0.1-1.5c0.8-0.1,2-0.2,3.7-0.2c1.5,0,2.9,0.1,4.3,0.3L370.3,239.2z M371.5,235.6c0.7,1,1.1,1.8,1.6,3
			l-1.1,0.6c-0.5-1.3-0.8-2-1.5-3.1L371.5,235.6z M373.9,234.9c0.7,0.9,1,1.7,1.6,3l-1.1,0.6c-0.4-1.3-0.8-2-1.5-3.1L373.9,234.9z"
			/>
		<path class="st0" d="M378.9,250.5h-1.3v-8.4c-0.5,0.9-0.8,1.2-1.2,1.6l-0.7-1.5c1.9-2.3,2.6-4.9,2.8-6.6l1.4,0.2
			c-0.1,0.6-0.3,1.7-1.1,3.7V250.5z M390.7,241.7c-1,1.2-2.5,2.4-3.3,3c0.7,1.5,1.8,3.3,3.6,4.7l-1,1.1c-3.5-3.1-4.8-7.4-5.1-10.1
			c-0.6,1.3-1.2,2.1-1.7,2.7v5.5c0.5-0.1,2.2-0.3,3.6-0.6l0,1.2c-2.8,0.6-5.7,0.9-6.5,1l-0.2-1.2c0.4,0,0.7,0,1.8-0.2v-4.2
			c-0.9,0.9-1.6,1.3-2.2,1.7l-0.6-1.3c1.2-0.8,3.6-2.3,5-5.6H380v-1.2h4.5v-2.4h1.3v2.4h4.9v1.2H386c0.1,0.7,0.2,2.2,1,4.2
			c0.8-0.6,1.8-1.4,2.8-2.7L390.7,241.7z"/>
		<path class="st0" d="M399.3,236.2h7.4v1.1h-3.2c-0.1,0.3-0.2,0.8-0.5,1.4h3.2v8.6h-6.4v-8.6h2c0.1-0.3,0.3-1,0.4-1.4h-3v1.1h-3.1
			v1.2h2.6v4.6h-2.6c0.2,0.4,1.1,1.6,2.5,2.8l-0.8,1.1c-0.6-0.6-1.2-1.3-1.8-2.3v4.7h-1.2v-4.7c-1,2-2,3-2.6,3.6l-0.6-1.1
			c1.7-1.5,2.6-3.2,3-4h-2.4v-4.6h2.6v-1.2H392v-1.2h3.1v-1.5h1.2v1.5h3.1V236.2z M395.1,240.7h-1.4v2.5h1.4V240.7z M397.7,240.7
			h-1.5v2.5h1.5V240.7z M398.4,249.6c1.1-0.5,2.1-1.1,2.9-2l1,0.7c-0.9,1-2,1.7-3.1,2.3L398.4,249.6z M405,239.8h-3.8v1.4h3.8V239.8
			z M405,242.2h-3.8v1.4h3.8V242.2z M405,244.7h-3.8v1.5h3.8V244.7z M404.6,247.5c0.9,0.9,1.5,1.4,2.5,1.9l-0.8,1.1
			c-0.8-0.5-2-1.4-2.6-2.1L404.6,247.5z"/>
	</g>
</g>
<g>
	<g>
		<path class="st3" d="M352.4,493.2c0,3.9-3.2,7.1-7.1,7.1c-3.9,0-7.1-3.2-7.1-7.1c0-4,3.2-7.1,7.1-7.1
			C349.2,486,352.4,489.2,352.4,493.2z"/>
		<path class="st3" d="M361.1,491.8h6.8v1.4h-6.8v3.5c0,1.1,0.4,1.4,2.4,1.4c1.3,0,2.5-0.1,3.5-0.2l-0.1,1.4c-1.3,0.1-2.3,0.1-3,0.1
			c-3,0-4.3-0.4-4.3-2.6v-3.7h-5v-1.4h5v-3h-4v-1.4h11.1v1.4h-5.7V491.8z"/>
		<path class="st3" d="M384,496.8v1.4h-13.5v-1.4H384z M382.8,488v1.4h-11V488H382.8z"/>
		<path class="st3" d="M388.5,498.8c3.6-1.1,5.2-2.8,6.3-4c-0.9-0.7-2.5-1.8-5.2-3.2c-0.6,0.6-0.9,0.9-1.9,1.7l-1.1-1
			c1.8-1.4,3.3-3.1,4.3-5.2h8.3c-1.1,9.8-8.3,12.2-9.9,12.8L388.5,498.8z M391.9,488.6c-0.4,0.7-0.7,1.2-1.4,2
			c1.9,1,3.1,1.6,5.2,3.1c0.8-1.2,1.5-2.8,2-5.1H391.9z"/>
		<path class="st3" d="M406,486.8v8.2h-1.5v-8.2H406z M414.1,486.6v5.1c0,3.4-0.6,6.6-6,8.3l-0.7-1.3c4.9-1.3,5.3-4.3,5.3-7.1v-5
			H414.1z"/>
		<path class="st3" d="M424.2,490.9c-1.5-1-2.8-1.7-4.7-2.4l0.7-1.3c1.8,0.6,3.2,1.3,4.8,2.3L424.2,490.9z M432,491.2
			c-3.2,5.1-7.8,7.6-12,8.5l-0.5-1.5c5-1,9-3.9,11.6-8.4L432,491.2z"/>
		<path class="st3" d="M444.5,487.5l1.4,1.9c-0.6,2.3-2.3,8.2-8.7,10.9l-1-1.2c2.2-0.8,4.1-2.2,5.5-4c1.8-2.3,2.5-4.8,2.9-6.3h-5.5
			c-1.4,2.4-2.8,3.7-3.8,4.6l-1.1-1c0.9-0.7,2.8-2.3,4-4.9H444.5z M445.5,485.6c0.8,1,1.1,1.6,1.8,2.9l-1,0.7c-0.6-1.2-1-1.9-1.7-3
			L445.5,485.6z M447.7,485c0.8,1,1.1,1.6,1.8,2.9l-1,0.7c-0.5-1.2-0.9-1.9-1.7-3L447.7,485z"/>
		<path class="st3" d="M458.1,498.6c3.4-1.1,4.5-3.5,4.5-5.5c0-1.2-0.4-4.4-4.5-4.9c-0.2,1.8-0.7,5.6-2.1,8.5
			c-1,2.2-1.9,2.2-2.3,2.2c-1.5,0-3.1-2.2-3.1-5.1c0-4,3-6.9,7-6.9c3.8,0,6.5,2.6,6.5,6.2c0,1.8-0.7,5.1-5.1,6.6L458.1,498.6z
			 M451.9,493.9c0,2.1,1,3.6,1.7,3.6c0.5,0,1-1,1.3-1.8c0.5-1.2,1.3-3.4,1.8-7.4C453.5,488.7,451.9,491.4,451.9,493.9z"/>
		<path class="st3" d="M473.9,488.5h6.8v1.1h-5.4c0.9,0.7,2.8,1.8,5.7,2.5l-0.6,1.2c-3.5-1.1-5.1-2.3-6.4-3.5v2.6h-1.2v-2.7
			c-2.1,2-4.2,2.9-6.3,3.6l-0.5-1.2c1.5-0.4,3.5-1,5.4-2.5h-5.3v-1.1h6.7v-1.1c-3,0.1-4.6,0.1-5.5,0.1l-0.3-1.2c0.4,0,1,0,1.8,0
			c3,0,7-0.2,10-0.8l0.6,1.1c-0.8,0.1-2.5,0.5-5.4,0.6V488.5z M479.1,500.6c-1.6-0.8-3.5-1.5-4.5-1.8c-1.5,0.9-4.3,1.6-7.8,1.8
			l-0.4-1.3c4,0,6-0.8,6.5-1c-2.5-0.7-4.1-0.9-5.2-1.1c0.7-0.6,1.3-1.2,2-2h-3.8v-1.2h4.9c0.6-0.8,0.9-1.2,1.1-1.6l1.3,0.5
			c-0.4,0.6-0.6,0.8-0.8,1.1h8.4v1.2h-3.1c-0.3,0.7-0.8,1.6-1.8,2.6c2.1,0.6,3.5,1.3,4.1,1.6L479.1,500.6z M471.3,495.3
			c-0.6,0.7-0.9,1-1.2,1.3c1.3,0.3,2.8,0.6,4.2,0.9c1.1-0.9,1.6-1.7,1.9-2.2H471.3z"/>
		<path class="st3" d="M487.9,488.5v1.1h-6.1v-1.1H487.9z M487.4,486.1v1.2h-5.1v-1.2H487.4z M487.4,490.7v1.2h-5.1v-1.2H487.4z
			 M487.4,493.1v1.2h-5.1v-1.2H487.4z M487.4,495.4v4.9h-5v-4.9H487.4z M486.1,496.5h-2.5v2.7h2.5V496.5z M492.1,492.2l4.6-0.3
			l0.1,1.2l-4.6,0.3v5.3c0,0.3,0,0.5,0.5,0.5h2c0.4,0,0.5-0.2,0.6-0.4c0.1-0.3,0.1-1.4,0.1-2.3l1.3,0.4c-0.1,3.3-0.5,3.6-1.7,3.6
			h-2.7c-0.8,0-1.6-0.2-1.6-1.2v-5.7l-2.7,0.2l-0.1-1.2l2.8-0.2v-4.2c-1,0.1-1.6,0.2-2.5,0.2l-0.3-1.2c2.1-0.1,5.1-0.4,7.7-1.5
			l0.7,1.1c-2,0.8-3.2,1-4.3,1.2V492.2z"/>
		<path class="st3" d="M499.3,495.8c1,0.7,2.2,1.6,3.6,3.2l-1,1c-0.9-1.1-2-2.1-3.5-3.2L499.3,495.8z"/>
		<path class="st3" d="M343.5,520.8c-0.7,0.4-1.2,0.6-2,0.9v4.4c0,1.2-0.7,1.5-1.4,1.5h-1.8l-0.2-1.3l1.6,0c0.3,0,0.5,0,0.5-0.4
			v-3.7c-1.1,0.4-1.6,0.5-2.3,0.7l-0.2-1.3c0.7-0.2,1.1-0.3,2.5-0.7v-3.9h-2.4v-1.2h2.4v-3h1.3v3h1.9v1.2h-1.9v3.5
			c1-0.4,1.3-0.5,1.9-0.8L343.5,520.8z M352,514.1c-2.1,1-4.7,1.5-6.8,1.8v1c0,0.5,0.1,0.6,0.8,0.6h4.5c0.6,0,0.8,0,1-2l1.3,0.4
			c-0.3,2.9-1,2.9-2,2.9h-5.1c-1.4,0-1.8-0.5-1.8-1.5v-4.5h1.3v2c2.3-0.4,4.1-0.8,6.1-1.7L352,514.1z M351.9,527.3h-7.7v-7.3h7.7
			V527.3z M350.7,521.2h-5.2v1.9h5.2V521.2z M350.7,524.2h-5.2v2h5.2V524.2z"/>
		<path class="st3" d="M365.8,523.4h2.8v1.1h-2.8v2c0,0.6-0.3,1.1-1.2,1.1h-2.3l-0.2-1.2l2.1,0c0.2,0,0.3,0,0.3-0.4v-1.5H354v-1.1
			h10.5v-0.8h-4.2c-2.5,0-3.2-0.9-3.6-1.4c-0.7,0.6-1.8,1.5-2.3,1.8l-0.5-1.2c0.3-0.2,1.6-0.8,2.3-1.6v-2.3h-2v-1.2h3.3v3.7
			c0.7,1.1,2.3,1.2,2.9,1.2h8.6l-0.2,1h-2.9V523.4z M357,515.4c-0.8-0.5-1.9-1.2-2.7-1.6l0.7-1c1.7,0.8,2.4,1.3,2.7,1.5L357,515.4z
			 M359.5,527.3c-0.9-0.7-1.8-1.2-3-1.8l0.8-1c1.5,0.7,2.4,1.3,3,1.8L359.5,527.3z M360.9,513.7c-0.1-0.3-0.4-0.7-0.6-0.9l1.2-0.2
			c0.2,0.4,0.4,0.7,0.6,1.1h2.7c0.2-0.4,0.4-0.9,0.5-1.1l1.3,0.2c-0.1,0.3-0.3,0.7-0.4,0.9h2.5v1h-4.7c-0.1,0.2-0.2,0.5-0.4,0.8h4.2
			v5.5H359v-5.5h3.2c0.1-0.2,0.3-0.5,0.3-0.8h-4.4v-1H360.9z M366.6,516.2h-6.4v0.8h6.4V516.2z M366.6,517.8h-6.4v0.8h6.4V517.8z
			 M366.6,519.3h-6.4v0.9h6.4V519.3z"/>
		<path class="st3" d="M371.3,522.8c1,0.7,2.2,1.6,3.6,3.2l-1,1c-0.9-1.1-2-2.1-3.5-3.2L371.3,522.8z"/>
		<path class="st3" d="M394.6,513.7c-0.4,0.8-1,1.9-2.2,3.5h1.4v1.2h-2.5c-0.8,0.8-1.2,1.2-1.5,1.3h3.1v1c-0.6,0.8-1.7,1.6-2.2,2
			v0.6c1.1-0.1,2.2-0.3,3.2-0.4v1.1c-0.6,0.1-1.5,0.3-3.2,0.5v1.9c0,0.4,0,1.3-1.3,1.3h-1.9l-0.2-1.3l1.8,0c0.3,0,0.4-0.1,0.4-0.4
			v-1.4c-1.2,0.1-2.6,0.3-3.6,0.3l-0.1-1.2c0.9,0,2.7-0.2,3.7-0.3v-1.5h0.5c0.3-0.2,0.9-0.8,1.2-1.2h-2.9c-1,0.7-1.5,0.9-2.1,1.2
			l-0.6-1.1c0.6-0.3,2.1-1,3.8-2.5h-3.7v-1.2h3v-1.8h-2.7v-1.1h2.7v-1.4h1.2v1.4h2.2v1.1c0.6-0.9,0.9-1.6,1.1-2.1L394.6,513.7z
			 M390.8,517.1c0.9-1,1.4-1.6,1.5-1.8h-2.1v1.8H390.8z M400.7,515.2v1.3h-0.8c-0.3,3.8-1.2,5.7-2,7c1.1,1.5,2.4,2.4,3,2.8l-0.8,1.2
			c-0.7-0.5-1.8-1.3-3-3c-1.4,1.7-3,2.5-3.8,3l-0.8-1.2c0.8-0.4,2.5-1.2,3.9-2.9c-0.5-0.9-1.1-2.2-1.5-4.1c-0.3,0.4-0.5,0.7-0.7,1.1
			l-1-0.9c0.7-1,1.8-2.6,2.4-6.9l1.3,0.1c-0.2,1.2-0.3,1.8-0.4,2.4H400.7z M396.1,516.5c0,0.2-0.1,0.4-0.4,1.1
			c0.2,1.9,0.7,3.4,1.4,4.8c0.9-1.5,1.3-3.5,1.5-5.8H396.1z"/>
		<path class="st3" d="M412.3,515.1c1.3,0.6,3,1.8,4,2.7l-1,0.9c-0.5-0.4-0.7-0.6-1.5-1.2c-2.7,0.3-7.9,0.6-11.2,0.6l-0.1-1.2
			c1,0,1.4,0,2.9,0c0.7-0.9,0.9-1.3,1.2-1.7h-4.5v-1.2h6.8v-1.2h1.3v1.2h6.8v1.2H408c-0.5,0.8-0.6,1-1.2,1.7
			c2.1-0.1,2.4-0.1,5.5-0.2c-0.5-0.3-0.6-0.4-1.2-0.7L412.3,515.1z M414.8,526.2c0,0.7-0.2,1.3-1.4,1.3h-2.6l-0.3-1.3l2.6,0
			c0.4,0,0.5-0.1,0.5-0.4v-1.3h-8.4v3h-1.3v-8.7h11V526.2z M413.5,520h-8.4v1.2h8.4V520z M413.5,522.2h-8.4v1.3h8.4V522.2z"/>
		<path class="st3" d="M423.5,520.8c-0.7,0.4-1.2,0.6-2,0.9v4.4c0,1.2-0.7,1.5-1.4,1.5h-1.8l-0.2-1.3l1.6,0c0.3,0,0.5,0,0.5-0.4
			v-3.7c-1.1,0.4-1.6,0.5-2.3,0.7l-0.2-1.3c0.7-0.2,1.1-0.3,2.5-0.7v-3.9h-2.4v-1.2h2.4v-3h1.3v3h1.9v1.2h-1.9v3.5
			c1-0.4,1.3-0.5,1.9-0.8L423.5,520.8z M432,514.1c-2.1,1-4.7,1.5-6.8,1.8v1c0,0.5,0.1,0.6,0.8,0.6h4.5c0.6,0,0.8,0,1-2l1.3,0.4
			c-0.3,2.9-1,2.9-2,2.9h-5.1c-1.4,0-1.8-0.5-1.8-1.5v-4.5h1.3v2c2.3-0.4,4.1-0.8,6.1-1.7L432,514.1z M431.9,527.3h-7.7v-7.3h7.7
			V527.3z M430.7,521.2h-5.2v1.9h5.2V521.2z M430.7,524.2h-5.2v2h5.2V524.2z"/>
		<path class="st3" d="M433.7,525.7c1.2-1.3,2.4-3.5,2.8-5.4l1.3,0.3c-0.5,2.4-1.9,5-3,6L433.7,525.7z M448.6,517.6v1.2h-6.7v7.4
			c0,0.7-0.2,1.3-1.4,1.3h-2.6l-0.2-1.4l2.3,0c0.4,0,0.5-0.1,0.5-0.5v-6.9h-6.7v-1.2H448.6z M447.7,513.3v1.2h-12.8v-1.2H447.7z
			 M445.9,520.2c0.8,2.6,1.5,3.6,2.9,5.4l-1,1c-1.6-1.8-2.6-4.1-3.1-6L445.9,520.2z"/>
		<path class="st3" d="M457,513.8v1.1h-2.5c0.2,0.4,0.4,0.9,0.5,1.3l-1.2,0.4c-0.1-0.5-0.4-1.3-0.6-1.7h-0.7c-0.5,0.6-1,1.4-1.8,1.9
			l-0.9-0.9c1.2-0.9,2.2-2.2,2.5-3.3l1.3,0.2c-0.1,0.3-0.2,0.5-0.4,1H457z M457.9,516.4v0.8h6.5v3h-1.2v-1.9h-11.7v1.9h-1.2v-3h6.4
			v-0.8h0.8l-0.9-0.7c0.4-0.4,1.5-1.3,2.1-3.1l1.2,0.2c-0.1,0.4-0.2,0.6-0.4,1h5.2v1.1h-3.4c0.2,0.3,0.5,1,0.7,1.4l-1.2,0.4
			c-0.3-0.7-0.5-1.2-0.8-1.8h-1.1c-0.4,0.6-0.7,1-1.2,1.5H457.9z M462.4,519.2v3.4h-9.1v1.1h10.2v3.6h-11.5v-8.1H462.4z
			 M453.4,520.2v1.4h7.8v-1.4H453.4z M453.4,524.7v1.6h8.9v-1.6H453.4z"/>
		<path class="st3" d="M471,524.6c-1.6,0.7-3.9,1.3-5.1,1.7l-0.2-1.3c0.6-0.1,1.4-0.4,2.2-0.6v-4.7H466v-1.2h1.8v-3.7h-2v-1.2h5.1
			v1.2h-1.9v3.7h1.6v1.2h-1.6v4.3c0.8-0.3,1.3-0.5,1.9-0.7L471,524.6z M480.2,513.2v7.5h-3.7v1.8h3.9v1.2h-3.9v2.3h4.2v1.2h-10.2
			v-1.2h4.8v-2.3h-3.8v-1.2h3.8v-1.8h-3.7v-7.5H480.2z M475.3,514.3h-2.5v2.1h2.5V514.3z M475.3,517.4h-2.5v2.1h2.5V517.4z
			 M479,514.3h-2.5v2.1h2.5V514.3z M479,517.4h-2.5v2.1h2.5V517.4z"/>
		<path class="st3" d="M483.3,522.8c1,0.7,2.2,1.6,3.6,3.2l-1,1c-0.9-1.1-2-2.1-3.5-3.2L483.3,522.8z"/>
		<path class="st3" d="M511.4,525.9h1.3v1.2h-14.8v-1.2h1.3v-4.1h12.2V525.9z M505.3,513.2v1.1h-2.6v1.1h2.1v3.1h-2.1v1.2h2.7v1
			h-6.9v-7.6H505.3z M501.6,514.3h-1.9v1.1h1.9V514.3z M503.6,516.4h-4v1.2h4V516.4z M501.6,518.5h-1.9v1.2h1.9V518.5z M502.9,523
			h-2.5v2.9h2.5V523z M506.5,523H504v2.9h2.5V523z M505,516.6c1.4-1.2,2-2.3,2.6-4l1.2,0.2c-0.1,0.4-0.2,0.9-0.5,1.5h4.5v1.2h-5.1
			c-0.7,1.2-1.3,1.7-1.7,2L505,516.6z M512.3,519.9h-5.7v-1.2h5.7V519.9z M510.2,523h-2.5v2.9h2.5V523z"/>
		<path class="st3" d="M513.7,519.2c0.7-0.7,1.1-1.5,1.4-2.3l1.1,0.2c-0.4,1-0.9,2-1.6,2.8L513.7,519.2z M518,512.7v0.8h2.7v1H518v1
			h3.3v1h-3v2.6c0,0.8-0.6,1-0.9,1H516l-0.2-1.1h1c0.3,0,0.3-0.1,0.3-0.3v-2.1h-3.3v-1h2.9v-2.8H518z M527,527.3h-11.3v-6.8H527
			V527.3z M525.7,521.5H517v1h8.7V521.5z M525.7,523.3H517v1h8.7V523.3z M525.7,525.2H517v1.1h8.7V525.2z M520,516.9
			c0.4,0.8,0.7,1.3,0.9,2l-1.1,0.4c-0.1-0.6-0.3-1.2-0.8-2.2L520,516.9z M520.9,519c1.5-0.5,2.3-0.9,3-1.4c-0.5-0.6-1-1.2-1.6-2.6
			l1-0.5c0.5,1.2,1,1.8,1.5,2.4c0.6-0.5,1.5-1.3,2-2.6h-5v-1.1h6.3v1.1c-0.6,1.6-1.5,2.5-2.4,3.4c0.7,0.5,1.4,1.1,3.1,1.6l-0.6,1.1
			c-1.9-0.7-2.8-1.5-3.4-2c-0.8,0.5-1.6,1.1-3.3,1.6L520.9,519z"/>
		<path class="st3" d="M531.3,522.8c1,0.7,2.2,1.6,3.6,3.2l-1,1c-0.9-1.1-2-2.1-3.5-3.2L531.3,522.8z"/>
		<path class="st3" d="M341.5,541.2v-1.5h1.3v1.5h3.3v1.2H345c-0.1,1-0.4,2.2-0.8,3.4h2.2v1.2h-8.5v-1.2h2.1c-0.1-1-0.2-2.2-0.6-3.4
			h-1.3v-1.2H341.5z M345.7,554.3h-7v-6.1h7V554.3z M344.4,549.4h-4.4v3.8h4.4V549.4z M343,545.8c0.4-1.2,0.6-2.6,0.7-3.4h-3.1
			c0.3,1.2,0.5,2.1,0.6,3.4H343z M347,554.6v-14.4h5.5v1.1c-0.6,1.7-1.2,2.8-2,4.3c1.4,1.3,2.3,2.9,2.3,4.7c0,0.8-0.3,1.7-0.9,2.2
			c-0.4,0.4-0.9,0.5-1.7,0.5H349l-0.2-1.3l1.2,0c1,0,1.4-0.6,1.4-1.6c0-1.7-1-3.1-2.4-4.3c0.8-1.4,1.7-3.3,2-4.5h-2.7v13.3H347z"/>
		<path class="st3" d="M360.5,547.3v7h-6.1v-7H360.5z M355.6,548.5v4.6h3.7v-4.6H355.6z M366.7,540.2v5.6h-10.8v-5.6H366.7z
			 M357.2,541.4v3.2h8.2v-3.2H357.2z M368.2,547.3v7h-6.3v-7H368.2z M363.1,548.5v4.6h3.9v-4.6H363.1z"/>
		<path class="st3" d="M378.9,547.2c0,0.9-0.7,1.6-1.6,1.6c-0.9,0-1.6-0.8-1.6-1.6c0-0.9,0.8-1.6,1.6-1.6
			C378.2,545.5,378.9,546.3,378.9,547.2z"/>
		<path class="st3" d="M389.9,544.3c-1,0.5-3,1.2-3.9,1.4l-0.3-1.3c1.4-0.3,2.7-0.7,4-1.2L389.9,544.3z M391.3,552.9
			c-1.9,1.1-4.4,1.6-4.8,1.7l-0.6-1.2c1.6-0.2,3.5-0.7,4.7-1.4L391.3,552.9z M389.2,542.1c-1-0.6-2-1-2.7-1.2l0.5-1.1
			c0.9,0.3,1.9,0.7,2.8,1.2L389.2,542.1z M399,545.3v6.7h-11.4v-6.7H399z M388.9,546.3v1h8.8v-1H388.9z M388.9,548v1h8.8v-1H388.9z
			 M388.9,549.9v1h8.8v-1H388.9z M400.2,540.7v0.9c-0.4,0.8-1,1.4-1.3,1.7l-1.1-0.5c0.5-0.5,0.7-0.7,1-1.2h-2.9
			c0.6,0.9,1.8,2.3,4.9,2.7l-0.6,1.2c-1.9-0.5-3.8-1.4-4.9-3c-0.7,1.2-2.1,2.1-4.4,2.5l-0.5-1.1c1.7-0.2,3.5-0.8,4.1-2.3h-1.9
			c-1,0.9-1.5,1.2-1.8,1.4l-0.8-0.9c1-0.6,2.2-1.6,2.7-2.5l1.3,0.2c-0.2,0.3-0.3,0.5-0.6,0.8H400.2z M400.2,554.6
			c-3-0.6-4.4-1.3-5-1.7l0.8-0.9c1.4,0.7,2.8,1.1,4.8,1.3L400.2,554.6z"/>
		<path class="st3" d="M407.4,549.4c-0.9-1.1-1.5-2.4-1.6-2.6v7.8h-1.3v-7.9c-0.8,2.4-1.9,3.8-2.4,4.4l-0.6-1.4c1-1,2.3-3.3,2.9-5.6
			h-2.6v-1.2h2.7v-3.1h1.3v3.1h2.3v1.2h-2.3v0.9c0.4,0.8,1.2,2.2,2.4,3.3L407.4,549.4z M407.3,551.1c1.8-1.2,3.8-3.1,5.7-7h-4.3
			v-1.2h4.4v-3.1h1.3v3.1h2.2v1.2h-2.2v9.2c0,1.1-0.9,1.3-1.4,1.3h-2.4l-0.2-1.3l2.1,0c0.4,0,0.6,0,0.6-0.5v-6.5
			c-1.2,2.3-2.8,4.4-4.9,6L407.3,551.1z"/>
		<path class="st3" d="M426.1,552.6c3.4-1.1,4.5-3.5,4.5-5.5c0-1.2-0.4-4.4-4.5-4.9c-0.2,1.8-0.7,5.6-2.1,8.5
			c-1,2.2-1.9,2.2-2.3,2.2c-1.5,0-3.1-2.2-3.1-5.1c0-4,3-6.9,7-6.9c3.8,0,6.5,2.6,6.5,6.2c0,1.8-0.7,5.1-5.1,6.6L426.1,552.6z
			 M419.9,547.9c0,2.1,1,3.6,1.7,3.6c0.5,0,1-1,1.3-1.8c0.5-1.2,1.3-3.4,1.8-7.4C421.5,542.7,419.9,545.4,419.9,547.9z"/>
		<path class="st3" d="M436.7,554.6h-1.3v-8.1c-0.5,0.8-0.8,1.1-1.1,1.5l-0.7-1.5c1.8-2.1,2.6-4.4,3.1-6.8l1.3,0.2
			c-0.1,0.7-0.4,2.1-1.2,4V554.6z M437.3,553.5c1.4-0.8,2.7-2.2,3.5-3.5l1.2,0.5c-1.1,1.8-2.5,3.1-3.7,4L437.3,553.5z M441.4,539.7
			v3h3.3v-3h1.3v3h2.4v1.3H446v3.9h2.7v1.3h-11.2v-1.3h2.5V544h-2.3v-1.3h2.3v-3H441.4z M444.7,544h-3.3v3.9h3.3V544z M445.4,550
			c0.9,1.3,2.3,2.6,3.5,3.5l-0.9,1.1c-1.2-0.9-2.8-2.5-3.7-3.9L445.4,550z"/>
		<path class="st3" d="M449.7,553c0.3-0.8,0.6-1.7,0.8-4.2l1.2,0.2c-0.1,1.4-0.4,3.4-0.8,4.5L449.7,553z M455.6,541.6
			c-0.6,1.2-2.4,3.8-3.2,4.9c0.3,0,1.9-0.1,2.2-0.1c-0.1-0.4-0.2-0.6-0.5-1.1l1-0.4c0.5,0.8,1,2.2,1.2,2.9l-1.1,0.4
			c-0.1-0.4-0.1-0.4-0.2-0.8c-0.2,0-1,0.1-1.2,0.1v7h-1.2v-6.9c-1.1,0.1-2,0.1-2.6,0.1l-0.1-1.2c0.7,0,0.9,0,1.3,0
			c0.3-0.4,0.4-0.5,0.9-1.3c-0.2-0.3-1.4-1.5-2.2-2.1l0.6-1c0.2,0.2,0.3,0.2,0.5,0.4c0.3-0.5,1-1.8,1.5-2.9l1.2,0.5
			c-0.5,1.1-1.2,2.4-1.8,3.2c0.4,0.4,0.6,0.6,0.8,0.9c0.7-1,1.3-2,1.8-3.1L455.6,541.6z M454.9,552.6c-0.1-1.2-0.4-3-0.6-3.7
			l1.1-0.3c0.3,1,0.6,2.5,0.7,3.6L454.9,552.6z M455.2,543.9c2.6-1.6,3.6-3.1,4.2-4.2h1.5c1.1,1.8,2.1,3,4.1,4l-0.6,1.3
			c-1.8-1.1-3.1-2.5-4.2-4.2c-1.1,1.7-2.6,3.2-4.3,4.3L455.2,543.9z M463.9,554.3h-7.2v-6.7h7.2V554.3z M457.3,545.7v-1.2h5.9v1.2
			H457.3z M462.6,548.7h-4.7v4.4h4.7V548.7z"/>
	</g>
</g>
<g id="XMLID_509_">
	<path id="XMLID_517_" class="st0" d="M486.6,37.1c0,0-83.3,0-90,0c-8.5,0-13.2,4-13.2,12.4c0,6.7,0,49.4,0,49.4h3.8
		c1.4-6.1,6.8-10.6,13.2-10.6c6.5,0,11.9,4.5,13.3,10.6h4.7c1.4-6.1,6.8-10.6,13.2-10.6c6.5,0,11.9,4.5,13.3,10.6h13.9V42.6h27.8
		V37.1z"/>
	<path id="XMLID_516_" class="st0" d="M409.8,98.9c-0.1-0.2-0.2-0.5-0.3-0.7c0,0,0,0,0,0c-0.1-0.2-0.2-0.4-0.3-0.7c0,0,0-0.1,0-0.1
		c-0.2-0.4-0.5-0.8-0.8-1.2c0,0,0,0,0-0.1c-0.2-0.2-0.3-0.4-0.4-0.6c0,0,0,0,0,0c-0.1-0.2-0.3-0.3-0.5-0.5c0,0,0,0,0,0
		c-0.1-0.1-0.3-0.3-0.5-0.5c0,0-0.1-0.1-0.1-0.1c-0.2-0.1-0.3-0.3-0.6-0.4c0,0,0,0,0,0c-0.2-0.1-0.4-0.2-0.6-0.4c0,0,0,0-0.1,0
		c-0.2-0.1-0.4-0.2-0.6-0.3c0,0-0.1-0.1-0.1-0.1c-0.2-0.1-0.4-0.2-0.6-0.3c0,0,0,0,0,0c-0.2-0.1-0.4-0.1-0.7-0.2c0,0-0.1,0-0.1,0
		c-0.2-0.1-0.4-0.1-0.7-0.2c-0.1,0-0.1,0-0.1,0c-0.2,0-0.4-0.1-0.6-0.1c0,0-0.1,0-0.1,0c-0.2-0.1-0.5-0.1-0.7-0.1c0,0-0.1,0-0.2,0
		c-0.2,0-0.5,0-0.7,0c-0.2,0-0.5,0-0.7,0c-0.1,0-0.1,0-0.2,0c-0.2,0-0.5,0-0.7,0.1c0,0-0.1,0-0.1,0c-0.2,0-0.4,0.1-0.6,0.1
		c0,0,0,0-0.1,0c-0.2,0.1-0.5,0.1-0.7,0.2c0,0-0.1,0-0.1,0c-0.2,0.1-0.4,0.2-0.6,0.2c0,0,0,0,0,0c-0.2,0.1-0.4,0.2-0.6,0.3
		c0,0-0.1,0-0.1,0.1c-0.2,0.1-0.4,0.2-0.6,0.3c0,0,0,0-0.1,0c-0.2,0.1-0.4,0.2-0.6,0.4c0,0,0,0,0,0c-0.2,0.1-0.4,0.3-0.6,0.4
		c0,0,0,0.1-0.1,0.1c-0.2,0.1-0.4,0.3-0.5,0.5c0,0,0,0,0,0c-0.2,0.2-0.3,0.4-0.5,0.5c0,0,0,0,0,0c-0.2,0.2-0.3,0.4-0.5,0.6
		c0,0,0,0.1,0,0.1c-0.3,0.4-0.5,0.8-0.8,1.2c0,0,0,0,0,0.1c-0.1,0.2-0.2,0.4-0.3,0.7c0,0,0,0,0,0c-0.1,0.2-0.2,0.5-0.3,0.7l0,0
		c-0.3,0.9-0.5,2-0.5,3c0,5.4,4.4,9.8,9.8,9.8c5.4,0,9.9-4.4,9.9-9.8C410.3,100.9,410.1,99.9,409.8,98.9L409.8,98.9z"/>
	<path id="XMLID_514_" class="st0" d="M441,98.9c-0.1-0.2-0.2-0.5-0.3-0.7c0,0,0,0,0,0c-0.1-0.2-0.2-0.5-0.3-0.7c0,0,0,0,0-0.1
		c-0.3-0.4-0.5-0.8-0.8-1.2c0,0,0,0,0-0.1c-0.1-0.2-0.3-0.4-0.4-0.6c0,0,0,0,0,0c-0.2-0.2-0.3-0.4-0.5-0.5c0,0,0,0,0,0
		c-0.2-0.1-0.4-0.3-0.5-0.5c0,0-0.1-0.1-0.1-0.1c-0.2-0.1-0.4-0.3-0.6-0.4l0,0c-0.2-0.1-0.4-0.3-0.6-0.4c0,0-0.1,0-0.1,0
		c-0.2-0.1-0.4-0.2-0.6-0.3c0,0-0.1-0.1-0.1-0.1c-0.2-0.1-0.4-0.2-0.6-0.3c0,0,0,0,0,0c-0.2-0.1-0.4-0.1-0.6-0.2c-0.1,0-0.1,0-0.1,0
		c-0.2-0.1-0.4-0.1-0.7-0.2c0,0-0.1,0-0.1,0c-0.2,0-0.4-0.1-0.6-0.1c0,0-0.1,0-0.1,0c-0.2-0.1-0.4-0.1-0.7-0.1c0,0-0.1,0-0.2,0
		c-0.2,0-0.5,0-0.7,0c-0.2,0-0.5,0-0.7,0c0,0-0.1,0-0.1,0c-0.2,0-0.5,0-0.7,0.1c0,0-0.1,0-0.1,0c-0.2,0-0.4,0.1-0.6,0.1
		c0,0,0,0-0.1,0c-0.2,0.1-0.4,0.1-0.7,0.2c0,0-0.1,0-0.1,0c-0.2,0.1-0.4,0.2-0.7,0.2c0,0,0,0,0,0c-0.2,0.1-0.4,0.2-0.6,0.3
		c0,0-0.1,0-0.1,0.1c-0.2,0.1-0.4,0.2-0.6,0.3c0,0-0.1,0-0.1,0c-0.2,0.1-0.4,0.2-0.6,0.4c0,0,0,0,0,0c-0.2,0.1-0.4,0.3-0.5,0.4
		c0,0-0.1,0.1-0.1,0.1c-0.2,0.1-0.3,0.3-0.5,0.5c0,0,0,0,0,0c-0.2,0.2-0.3,0.4-0.5,0.5c0,0,0,0,0,0c-0.1,0.2-0.3,0.4-0.4,0.6
		c0,0,0,0.1,0,0.1c-0.3,0.4-0.5,0.8-0.8,1.2c0,0,0,0,0,0.1c-0.1,0.2-0.2,0.4-0.3,0.7c0,0,0,0,0,0c-0.1,0.2-0.2,0.5-0.3,0.7l0,0
		c-0.3,0.9-0.5,2-0.5,3c0,5.4,4.4,9.8,9.8,9.8c5.5,0,9.9-4.4,9.9-9.8C441.4,100.9,441.3,99.9,441,98.9L441,98.9z"/>
	<path id="XMLID_513_" class="st0" d="M489.8,98.9c-0.1-0.2-0.2-0.5-0.3-0.7c0,0,0,0,0,0c-0.1-0.2-0.2-0.4-0.3-0.7c0,0,0-0.1,0-0.1
		c-0.2-0.4-0.5-0.8-0.8-1.2c0,0,0,0,0-0.1c-0.1-0.2-0.3-0.4-0.4-0.6c0,0,0,0,0,0c-0.2-0.2-0.3-0.3-0.5-0.5c0,0,0,0,0,0
		c-0.2-0.1-0.3-0.3-0.5-0.5c0,0,0-0.1-0.1-0.1c-0.2-0.1-0.4-0.3-0.5-0.4h0c-0.2-0.2-0.4-0.3-0.5-0.4c0,0,0,0-0.1,0
		c-0.2-0.1-0.4-0.2-0.6-0.3c0,0-0.1-0.1-0.1-0.1c-0.2-0.1-0.4-0.2-0.6-0.3l0,0c-0.2-0.1-0.4-0.1-0.6-0.2c-0.1,0-0.1,0-0.1,0
		c-0.2-0.1-0.4-0.1-0.7-0.2c0,0-0.1,0-0.1,0c-0.2,0-0.4-0.1-0.6-0.1c0,0-0.1,0-0.1,0c-0.2-0.1-0.5-0.1-0.7-0.1c0,0-0.1,0-0.2,0
		c-0.2,0-0.5,0-0.7,0c-0.2,0-0.5,0-0.7,0c0,0-0.1,0-0.1,0c-0.2,0-0.5,0-0.7,0.1c0,0-0.1,0-0.1,0c-0.2,0-0.4,0.1-0.6,0.1
		c0,0-0.1,0-0.1,0c-0.2,0.1-0.4,0.1-0.7,0.2c0,0-0.1,0-0.1,0c-0.2,0.1-0.4,0.2-0.6,0.2c0,0,0,0,0,0c-0.2,0.1-0.4,0.2-0.6,0.3
		c0,0-0.1,0-0.1,0.1c-0.2,0.1-0.4,0.2-0.6,0.3c0,0-0.1,0-0.1,0c-0.2,0.1-0.4,0.2-0.6,0.4c0,0,0,0,0,0c-0.2,0.1-0.4,0.3-0.6,0.4
		c0,0-0.1,0.1-0.1,0.1c-0.2,0.1-0.3,0.3-0.5,0.5c0,0,0,0,0,0c-0.2,0.2-0.3,0.4-0.5,0.5c0,0,0,0-0.1,0c-0.1,0.2-0.3,0.4-0.4,0.6
		c0,0,0,0.1,0,0.1c-0.3,0.4-0.5,0.8-0.8,1.2c0,0,0,0,0,0.1c-0.1,0.2-0.2,0.4-0.3,0.7c0,0,0,0,0,0c-0.1,0.2-0.2,0.5-0.3,0.7l0,0
		c-0.3,0.9-0.5,2-0.5,3c0,5.4,4.4,9.8,9.8,9.8c5.4,0,9.9-4.4,9.9-9.8C490.3,100.9,490.1,99.9,489.8,98.9L489.8,98.9z"/>
	<path id="XMLID_510_" class="st0" d="M486.8,49.5l-22,0.2v49.2h2.3c1.4-6.1,6.8-10.6,13.2-10.6c6.5,0,11.9,4.5,13.3,10.6h5.1V73.6
		L486.8,49.5z M469.2,67.2l0-11.5h13.7l5.7,11.5H469.2z"/>
</g>
<g id="XMLID_501_">
	<polygon id="XMLID_508_" class="st2" points="192,357.4 191.9,332.8 165.3,357.4 	"/>
	<polygon id="XMLID_507_" class="st2" points="112,357.4 138.7,357.4 138.6,332.8 	"/>
	<rect id="XMLID_506_" x="197.7" y="326.9" class="st2" width="18.4" height="31.3"/>
	<polygon id="XMLID_505_" class="st2" points="138.7,357.4 165.3,357.4 165.2,332.8 	"/>
	<path id="XMLID_502_" class="st2" d="M216.1,361.3H109.6c-2.1,0-3.8,1.7-3.8,3.8v47.1h72.7v-21.4h22.4v21.4h19v-47.1
		C219.9,363,218.2,361.3,216.1,361.3z M159.7,386.1H116v-13.3h43.8V386.1z"/>
</g>
<rect id="XMLID_500_" x="279.4" y="0.5" class="st4" width="324" height="216"/>
<rect id="XMLID_499_" x="0.5" y="294.7" class="st5" width="324" height="216"/>
<rect id="XMLID_498_" x="558.4" y="294.7" class="st6" width="324" height="216"/>
<g id="XMLID_492_">
	<g id="XMLID_356_">
		<line id="XMLID_359_" class="st7" x1="324.5" y1="355.9" x2="529.5" y2="355.9"/>
		<g id="XMLID_357_">
			<polygon id="XMLID_358_" class="st2" points="525.1,370.7 550.8,355.9 525.1,341.1 			"/>
		</g>
	</g>
</g>
<g id="XMLID_486_">
	<g id="XMLID_342_">
		<line id="XMLID_352_" class="st8" x1="558.4" y1="446.4" x2="354.8" y2="446.4"/>
		<g id="XMLID_343_">
			<polygon id="XMLID_345_" class="st3" points="359.1,431.5 333.4,446.4 359.1,461.2 			"/>
		</g>
	</g>
</g>
<g id="XMLID_480_">
	<g id="XMLID_327_">
		<polyline id="XMLID_335_" class="st8" points="634,157.1 738.2,157.1 738.2,294.7 		"/>
		<g id="XMLID_328_">
			<polygon id="XMLID_329_" class="st3" points="638.3,171.9 612.6,157.1 638.3,142.3 			"/>
		</g>
	</g>
</g>
<g id="XMLID_474_">
	<g id="XMLID_254_">
		<polyline id="XMLID_297_" class="st7" points="249.4,157.1 144.1,157.1 144.1,294.7 		"/>
		<g id="XMLID_255_">
			<polygon id="XMLID_296_" class="st2" points="245.1,142.3 270.7,157.1 245.1,171.9 			"/>
		</g>
	</g>
</g>
<g id="XMLID_468_">
	<g id="XMLID_204_">
		<polyline id="XMLID_229_" class="st9" points="279.4,192.5 198.4,192.5 198.4,264.3 		"/>
		<g id="XMLID_210_">
			<polygon id="XMLID_213_" class="st0" points="183.6,259.9 198.4,285.6 213.2,259.9 			"/>
		</g>
	</g>
</g>
<polygon id="XMLID_466_" class="st3" points="666.5,372.7 666.5,412.2 744.9,412.2 744.9,391.9 761.7,391.9 761.7,412.2 
	775.4,412.2 775.4,372.7 "/>
<rect id="XMLID_465_" x="687.4" y="343.2" class="st3" width="66.8" height="36.6"/>
<rect id="XMLID_464_" x="678.1" y="383.9" class="st10" width="13.6" height="9.6"/>
<rect id="XMLID_456_" x="709.7" y="383.9" class="st10" width="13.6" height="9.6"/>
<rect id="XMLID_453_" x="700.4" y="354.6" class="st10" width="13.6" height="9.6"/>
<rect id="XMLID_209_" x="727.8" y="354.6" class="st10" width="13.6" height="9.6"/>
<rect id="XMLID_208_" x="719" y="317.4" class="st3" width="3.6" height="46.5"/>
<polygon id="XMLID_207_" class="st3" points="725.4,335.1 725.4,317.4 742.9,326.2 "/>
</svg>
